<svg width="330" height="330" viewBox="0 0 330 330" fill="none" xmlns="http://www.w3.org/2000/svg">
<rect x="169" y="234" width="124" height="60" fill="#C4C4C4"/>
<path d="M194.505 259.273H195.562V265.511C195.562 266.068 195.46 266.541 195.255 266.93C195.051 267.32 194.762 267.615 194.39 267.817C194.018 268.018 193.579 268.119 193.073 268.119C192.596 268.119 192.171 268.033 191.799 267.859C191.427 267.683 191.134 267.433 190.921 267.109C190.708 266.786 190.602 266.401 190.602 265.955H191.642C191.642 266.202 191.703 266.418 191.825 266.602C191.95 266.784 192.12 266.926 192.336 267.028C192.552 267.131 192.798 267.182 193.073 267.182C193.377 267.182 193.636 267.118 193.849 266.99C194.062 266.862 194.224 266.675 194.335 266.428C194.448 266.178 194.505 265.872 194.505 265.511V259.273ZM199.47 268.153C199.055 268.153 198.678 268.075 198.34 267.919C198.002 267.76 197.734 267.531 197.535 267.233C197.336 266.932 197.237 266.568 197.237 266.142C197.237 265.767 197.311 265.463 197.458 265.23C197.606 264.994 197.803 264.81 198.051 264.676C198.298 264.543 198.57 264.443 198.869 264.378C199.17 264.31 199.472 264.256 199.776 264.216C200.174 264.165 200.497 264.126 200.744 264.101C200.994 264.072 201.176 264.026 201.289 263.96C201.406 263.895 201.464 263.781 201.464 263.619V263.585C201.464 263.165 201.349 262.838 201.119 262.605C200.892 262.372 200.546 262.256 200.083 262.256C199.603 262.256 199.227 262.361 198.954 262.571C198.681 262.781 198.49 263.006 198.379 263.244L197.424 262.903C197.595 262.506 197.822 262.196 198.106 261.974C198.393 261.75 198.705 261.594 199.044 261.506C199.384 261.415 199.72 261.369 200.049 261.369C200.259 261.369 200.501 261.395 200.774 261.446C201.049 261.494 201.315 261.595 201.57 261.749C201.829 261.902 202.044 262.134 202.214 262.443C202.384 262.753 202.47 263.168 202.47 263.688V268H201.464V267.114H201.413C201.345 267.256 201.231 267.408 201.072 267.57C200.913 267.732 200.701 267.869 200.437 267.983C200.173 268.097 199.85 268.153 199.47 268.153ZM199.623 267.25C200.021 267.25 200.356 267.172 200.629 267.016C200.904 266.859 201.112 266.658 201.251 266.411C201.393 266.163 201.464 265.903 201.464 265.631V264.71C201.421 264.761 201.328 264.808 201.183 264.851C201.041 264.891 200.876 264.926 200.688 264.957C200.504 264.986 200.323 265.011 200.147 265.034C199.974 265.054 199.833 265.071 199.725 265.085C199.464 265.119 199.22 265.175 198.992 265.251C198.768 265.325 198.586 265.437 198.447 265.588C198.311 265.736 198.242 265.937 198.242 266.193C198.242 266.543 198.372 266.807 198.63 266.986C198.892 267.162 199.222 267.25 199.623 267.25ZM209.423 261.455L207.003 268H205.98L203.559 261.455H204.65L206.457 266.67H206.525L208.332 261.455H209.423ZM212.477 268.153C212.063 268.153 211.686 268.075 211.348 267.919C211.01 267.76 210.742 267.531 210.543 267.233C210.344 266.932 210.244 266.568 210.244 266.142C210.244 265.767 210.318 265.463 210.466 265.23C210.614 264.994 210.811 264.81 211.058 264.676C211.306 264.543 211.578 264.443 211.877 264.378C212.178 264.31 212.48 264.256 212.784 264.216C213.182 264.165 213.504 264.126 213.752 264.101C214.002 264.072 214.183 264.026 214.297 263.96C214.414 263.895 214.472 263.781 214.472 263.619V263.585C214.472 263.165 214.357 262.838 214.127 262.605C213.899 262.372 213.554 262.256 213.091 262.256C212.611 262.256 212.235 262.361 211.962 262.571C211.689 262.781 211.497 263.006 211.387 263.244L210.432 262.903C210.602 262.506 210.83 262.196 211.114 261.974C211.401 261.75 211.713 261.594 212.051 261.506C212.392 261.415 212.727 261.369 213.057 261.369C213.267 261.369 213.509 261.395 213.781 261.446C214.057 261.494 214.323 261.595 214.578 261.749C214.837 261.902 215.051 262.134 215.222 262.443C215.392 262.753 215.477 263.168 215.477 263.688V268H214.472V267.114H214.421C214.352 267.256 214.239 267.408 214.08 267.57C213.921 267.732 213.709 267.869 213.445 267.983C213.181 268.097 212.858 268.153 212.477 268.153ZM212.631 267.25C213.029 267.25 213.364 267.172 213.637 267.016C213.912 266.859 214.119 266.658 214.259 266.411C214.401 266.163 214.472 265.903 214.472 265.631V264.71C214.429 264.761 214.335 264.808 214.191 264.851C214.048 264.891 213.884 264.926 213.696 264.957C213.512 264.986 213.331 265.011 213.155 265.034C212.982 265.054 212.841 265.071 212.733 265.085C212.472 265.119 212.227 265.175 212 265.251C211.776 265.325 211.594 265.437 211.455 265.588C211.318 265.736 211.25 265.937 211.25 266.193C211.25 266.543 211.379 266.807 211.638 266.986C211.899 267.162 212.23 267.25 212.631 267.25ZM222.222 261.455C222.171 261.023 221.964 260.688 221.6 260.449C221.236 260.21 220.79 260.091 220.262 260.091C219.876 260.091 219.537 260.153 219.248 260.278C218.961 260.403 218.736 260.575 218.574 260.794C218.415 261.013 218.336 261.261 218.336 261.54C218.336 261.773 218.391 261.973 218.502 262.141C218.616 262.305 218.76 262.443 218.937 262.554C219.113 262.662 219.297 262.751 219.491 262.822C219.684 262.891 219.861 262.946 220.023 262.989L220.91 263.227C221.137 263.287 221.39 263.369 221.668 263.474C221.949 263.58 222.218 263.723 222.474 263.905C222.732 264.084 222.945 264.314 223.113 264.595C223.28 264.876 223.364 265.222 223.364 265.631C223.364 266.102 223.241 266.528 222.993 266.909C222.749 267.29 222.391 267.592 221.92 267.817C221.451 268.041 220.881 268.153 220.211 268.153C219.586 268.153 219.045 268.053 218.587 267.851C218.133 267.649 217.775 267.368 217.513 267.007C217.255 266.646 217.108 266.227 217.074 265.75H218.165C218.194 266.08 218.305 266.352 218.498 266.568C218.694 266.781 218.941 266.94 219.239 267.045C219.54 267.148 219.864 267.199 220.211 267.199C220.614 267.199 220.976 267.134 221.297 267.003C221.618 266.869 221.873 266.685 222.06 266.449C222.248 266.21 222.341 265.932 222.341 265.614C222.341 265.324 222.26 265.088 222.099 264.906C221.937 264.724 221.724 264.577 221.459 264.463C221.195 264.349 220.91 264.25 220.603 264.165L219.529 263.858C218.847 263.662 218.307 263.382 217.91 263.018C217.512 262.655 217.313 262.179 217.313 261.591C217.313 261.102 217.445 260.676 217.709 260.312C217.976 259.946 218.334 259.662 218.783 259.46C219.235 259.256 219.739 259.153 220.296 259.153C220.858 259.153 221.358 259.254 221.796 259.456C222.233 259.655 222.58 259.928 222.836 260.274C223.094 260.621 223.231 261.014 223.245 261.455H222.222ZM227.624 268.136C227.011 268.136 226.482 267.991 226.039 267.702C225.596 267.412 225.255 267.013 225.017 266.504C224.778 265.996 224.659 265.415 224.659 264.761C224.659 264.097 224.781 263.51 225.025 263.001C225.272 262.49 225.616 262.091 226.056 261.804C226.499 261.514 227.017 261.369 227.607 261.369C228.068 261.369 228.482 261.455 228.852 261.625C229.221 261.795 229.524 262.034 229.759 262.341C229.995 262.648 230.142 263.006 230.198 263.415H229.193C229.116 263.116 228.945 262.852 228.681 262.622C228.42 262.389 228.068 262.273 227.624 262.273C227.232 262.273 226.889 262.375 226.593 262.58C226.301 262.781 226.072 263.067 225.907 263.436C225.745 263.803 225.664 264.233 225.664 264.727C225.664 265.233 225.744 265.673 225.903 266.048C226.065 266.423 226.292 266.714 226.585 266.922C226.88 267.129 227.227 267.233 227.624 267.233C227.886 267.233 228.123 267.188 228.336 267.097C228.549 267.006 228.73 266.875 228.877 266.705C229.025 266.534 229.13 266.33 229.193 266.091H230.198C230.142 266.477 230.001 266.825 229.776 267.135C229.555 267.442 229.261 267.686 228.894 267.868C228.531 268.047 228.107 268.136 227.624 268.136ZM231.669 268V261.455H232.64V262.443H232.708C232.828 262.119 233.044 261.857 233.356 261.655C233.669 261.453 234.021 261.352 234.413 261.352C234.487 261.352 234.579 261.354 234.69 261.357C234.801 261.359 234.884 261.364 234.941 261.369V262.392C234.907 262.384 234.829 262.371 234.707 262.354C234.588 262.334 234.461 262.324 234.328 262.324C234.009 262.324 233.725 262.391 233.475 262.524C233.228 262.655 233.032 262.837 232.887 263.07C232.745 263.3 232.674 263.562 232.674 263.858V268H231.669ZM236.133 268V261.455H237.139V268H236.133ZM236.645 260.364C236.449 260.364 236.28 260.297 236.138 260.163C235.998 260.03 235.929 259.869 235.929 259.682C235.929 259.494 235.998 259.334 236.138 259.2C236.28 259.067 236.449 259 236.645 259C236.841 259 237.008 259.067 237.148 259.2C237.29 259.334 237.361 259.494 237.361 259.682C237.361 259.869 237.29 260.03 237.148 260.163C237.008 260.297 236.841 260.364 236.645 260.364ZM238.981 270.455V261.455H239.953V262.494H240.072C240.146 262.381 240.248 262.236 240.379 262.06C240.512 261.881 240.703 261.722 240.95 261.582C241.2 261.44 241.538 261.369 241.964 261.369C242.515 261.369 243.001 261.507 243.421 261.783C243.842 262.058 244.17 262.449 244.406 262.955C244.642 263.46 244.759 264.057 244.759 264.744C244.759 265.438 244.642 266.038 244.406 266.547C244.17 267.053 243.843 267.445 243.426 267.723C243.008 267.999 242.526 268.136 241.981 268.136C241.561 268.136 241.224 268.067 240.971 267.928C240.718 267.786 240.524 267.625 240.387 267.446C240.251 267.264 240.146 267.114 240.072 266.994H239.987V270.455H238.981ZM239.97 264.727C239.97 265.222 240.042 265.658 240.187 266.036C240.332 266.411 240.544 266.705 240.822 266.918C241.1 267.128 241.441 267.233 241.845 267.233C242.265 267.233 242.616 267.122 242.897 266.901C243.181 266.676 243.394 266.375 243.536 265.997C243.681 265.616 243.754 265.193 243.754 264.727C243.754 264.267 243.683 263.852 243.541 263.483C243.401 263.111 243.19 262.817 242.906 262.601C242.624 262.382 242.271 262.273 241.845 262.273C241.436 262.273 241.092 262.376 240.813 262.584C240.535 262.788 240.325 263.075 240.183 263.445C240.041 263.811 239.97 264.239 239.97 264.727ZM249.14 261.455V262.307H245.748V261.455H249.14ZM246.737 259.886H247.742V266.125C247.742 266.409 247.784 266.622 247.866 266.764C247.951 266.903 248.059 266.997 248.19 267.045C248.323 267.091 248.464 267.114 248.612 267.114C248.722 267.114 248.813 267.108 248.884 267.097C248.955 267.082 249.012 267.071 249.055 267.062L249.259 267.966C249.191 267.991 249.096 268.017 248.974 268.043C248.852 268.071 248.697 268.085 248.509 268.085C248.225 268.085 247.947 268.024 247.674 267.902C247.404 267.78 247.18 267.594 247.001 267.344C246.825 267.094 246.737 266.778 246.737 266.398V259.886ZM254.522 259.273L257.113 266.619H257.215L259.806 259.273H260.914L257.71 268H256.619L253.414 259.273H254.522ZM262.274 259.273H263.535L266.501 266.517H266.603L269.569 259.273H270.83V268H269.842V261.369H269.757L267.029 268H266.075L263.347 261.369H263.262V268H262.274V259.273Z" fill="black"/>
<rect x="37" y="234" width="124" height="60" fill="#C4C4C4"/>
<path d="M73.9409 268L71.5545 259.273H72.6284L74.4522 266.381H74.5375L76.3954 259.273H77.5886L79.4466 266.381H79.5318L81.3556 259.273H82.4295L80.0431 268H78.9522L77.0261 261.045H76.9579L75.0318 268H73.9409ZM84.9267 268.153C84.5119 268.153 84.1355 268.075 83.7974 267.919C83.4593 267.76 83.1909 267.531 82.992 267.233C82.7931 266.932 82.6937 266.568 82.6937 266.142C82.6937 265.767 82.7676 265.463 82.9153 265.23C83.063 264.994 83.2605 264.81 83.5076 264.676C83.7548 264.543 84.0275 264.443 84.3258 264.378C84.627 264.31 84.9295 264.256 85.2335 264.216C85.6312 264.165 85.9537 264.126 86.2008 264.101C86.4508 264.072 86.6326 264.026 86.7463 263.96C86.8627 263.895 86.921 263.781 86.921 263.619V263.585C86.921 263.165 86.8059 262.838 86.5758 262.605C86.3485 262.372 86.0034 262.256 85.5403 262.256C85.0602 262.256 84.6838 262.361 84.411 262.571C84.1383 262.781 83.9466 263.006 83.8358 263.244L82.8812 262.903C83.0517 262.506 83.2789 262.196 83.563 261.974C83.85 261.75 84.1625 261.594 84.5005 261.506C84.8414 261.415 85.1767 261.369 85.5062 261.369C85.7164 261.369 85.9579 261.395 86.2306 261.446C86.5062 261.494 86.7718 261.595 87.0275 261.749C87.286 261.902 87.5005 262.134 87.671 262.443C87.8414 262.753 87.9267 263.168 87.9267 263.688V268H86.921V267.114H86.8699C86.8017 267.256 86.688 267.408 86.5289 267.57C86.3699 267.732 86.1582 267.869 85.894 267.983C85.6298 268.097 85.3074 268.153 84.9267 268.153ZM85.0801 267.25C85.4778 267.25 85.813 267.172 86.0858 267.016C86.3613 266.859 86.5687 266.658 86.7079 266.411C86.85 266.163 86.921 265.903 86.921 265.631V264.71C86.8784 264.761 86.7846 264.808 86.6397 264.851C86.4977 264.891 86.3329 264.926 86.1454 264.957C85.9608 264.986 85.7804 265.011 85.6042 265.034C85.4309 265.054 85.2903 265.071 85.1824 265.085C84.921 265.119 84.6767 265.175 84.4494 265.251C84.225 265.325 84.0431 265.437 83.9039 265.588C83.7676 265.736 83.6994 265.937 83.6994 266.193C83.6994 266.543 83.8287 266.807 84.0872 266.986C84.3485 267.162 84.6795 267.25 85.0801 267.25ZM94.3986 262.92L93.4952 263.176C93.4384 263.026 93.3546 262.879 93.2438 262.737C93.1358 262.592 92.9881 262.473 92.8006 262.379C92.6131 262.286 92.373 262.239 92.0804 262.239C91.6799 262.239 91.3461 262.331 91.079 262.516C90.8148 262.697 90.6827 262.929 90.6827 263.21C90.6827 263.46 90.7736 263.658 90.9554 263.803C91.1373 263.947 91.4213 264.068 91.8077 264.165L92.7793 264.403C93.3645 264.545 93.8006 264.763 94.0875 265.055C94.3745 265.345 94.5179 265.719 94.5179 266.176C94.5179 266.551 94.41 266.886 94.1941 267.182C93.981 267.477 93.6827 267.71 93.2992 267.881C92.9157 268.051 92.4696 268.136 91.9611 268.136C91.2935 268.136 90.7409 267.991 90.3034 267.702C89.8659 267.412 89.589 266.989 89.4725 266.432L90.427 266.193C90.5179 266.545 90.6898 266.81 90.9426 266.986C91.1983 267.162 91.5321 267.25 91.9441 267.25C92.4128 267.25 92.785 267.151 93.0605 266.952C93.339 266.75 93.4782 266.509 93.4782 266.227C93.4782 266 93.3986 265.81 93.2395 265.656C93.0804 265.5 92.8361 265.384 92.5066 265.307L91.4157 265.051C90.8162 264.909 90.3759 264.689 90.0946 264.391C89.8162 264.089 89.677 263.713 89.677 263.261C89.677 262.892 89.7807 262.565 89.9881 262.281C90.1983 261.997 90.4838 261.774 90.8446 261.612C91.2083 261.45 91.6202 261.369 92.0804 261.369C92.7282 261.369 93.2367 261.511 93.606 261.795C93.9782 262.08 94.2424 262.455 94.3986 262.92ZM96.0318 268V261.455H97.0034V262.477H97.0886C97.225 262.128 97.4451 261.857 97.7491 261.663C98.0531 261.467 98.4181 261.369 98.8443 261.369C99.2761 261.369 99.6355 261.467 99.9224 261.663C100.212 261.857 100.438 262.128 100.6 262.477H100.668C100.836 262.139 101.087 261.871 101.422 261.672C101.758 261.47 102.16 261.369 102.628 261.369C103.214 261.369 103.692 261.553 104.064 261.919C104.437 262.283 104.623 262.849 104.623 263.619V268H103.617V263.619C103.617 263.136 103.485 262.791 103.221 262.584C102.956 262.376 102.645 262.273 102.287 262.273C101.827 262.273 101.471 262.412 101.218 262.69C100.965 262.966 100.839 263.315 100.839 263.739V268H99.8159V263.517C99.8159 263.145 99.6951 262.845 99.4537 262.618C99.2122 262.388 98.9011 262.273 98.5204 262.273C98.2591 262.273 98.0147 262.342 97.7875 262.482C97.563 262.621 97.3812 262.814 97.242 263.061C97.1056 263.305 97.0375 263.588 97.0375 263.909V268H96.0318ZM110.331 259.273L112.922 266.619H113.024L115.615 259.273H116.723L113.518 268H112.427L109.223 259.273H110.331ZM118.082 259.273H119.344L122.309 266.517H122.412L125.378 259.273H126.639V268H125.65V261.369H125.565L122.838 268H121.883L119.156 261.369H119.071V268H118.082V259.273Z" fill="black"/>
<rect x="37" y="168" width="124" height="60" fill="#E3A03B"/>
<path d="M74.176 203V194.273H77.1248C77.8066 194.273 78.3663 194.389 78.8038 194.622C79.2413 194.852 79.5652 195.169 79.7754 195.572C79.9856 195.976 80.0907 196.435 80.0907 196.949C80.0907 197.463 79.9856 197.919 79.7754 198.317C79.5652 198.714 79.2427 199.027 78.8081 199.254C78.3734 199.479 77.818 199.591 77.1419 199.591H74.7555V198.636H77.1078C77.5737 198.636 77.9487 198.568 78.2328 198.432C78.5197 198.295 78.7271 198.102 78.8549 197.852C78.9856 197.599 79.051 197.298 79.051 196.949C79.051 196.599 78.9856 196.294 78.8549 196.033C78.7243 195.771 78.5154 195.57 78.2285 195.428C77.9416 195.283 77.5623 195.21 77.0907 195.21H75.2328V203H74.176ZM78.2839 199.08L80.4316 203H79.2044L77.0907 199.08H78.2839ZM84.3894 203.136C83.7587 203.136 83.2147 202.997 82.7573 202.719C82.3027 202.438 81.9519 202.045 81.7047 201.543C81.4604 201.037 81.3382 200.449 81.3382 199.778C81.3382 199.108 81.4604 198.517 81.7047 198.006C81.9519 197.491 82.2956 197.091 82.736 196.804C83.1792 196.514 83.6962 196.369 84.2871 196.369C84.628 196.369 84.9647 196.426 85.2971 196.54C85.6294 196.653 85.932 196.838 86.2047 197.094C86.4775 197.347 86.6948 197.682 86.8567 198.099C87.0186 198.517 87.0996 199.031 87.0996 199.642V200.068H82.0542V199.199H86.0769C86.0769 198.83 86.003 198.5 85.8553 198.21C85.7104 197.92 85.503 197.692 85.2331 197.524C84.9661 197.357 84.6507 197.273 84.2871 197.273C83.8865 197.273 83.54 197.372 83.2473 197.571C82.9576 197.767 82.7346 198.023 82.5783 198.338C82.4221 198.653 82.3439 198.991 82.3439 199.352V199.932C82.3439 200.426 82.4292 200.845 82.5996 201.189C82.7729 201.53 83.013 201.79 83.3198 201.969C83.6266 202.145 83.9831 202.233 84.3894 202.233C84.6536 202.233 84.8922 202.196 85.1053 202.122C85.3212 202.045 85.5073 201.932 85.6635 201.781C85.8198 201.628 85.9405 201.437 86.0257 201.21L86.9973 201.483C86.8951 201.812 86.7232 202.102 86.4817 202.352C86.2402 202.599 85.9419 202.793 85.5868 202.932C85.2317 203.068 84.8326 203.136 84.3894 203.136ZM89.6351 199.062V203H88.6294V196.455H89.601V197.477H89.6863C89.8397 197.145 90.0726 196.878 90.3851 196.676C90.6976 196.472 91.101 196.369 91.5953 196.369C92.0385 196.369 92.4263 196.46 92.7587 196.642C93.0911 196.821 93.3496 197.094 93.5343 197.46C93.7189 197.824 93.8113 198.284 93.8113 198.841V203H92.8056V198.909C92.8056 198.395 92.6721 197.994 92.405 197.707C92.138 197.418 91.7715 197.273 91.3056 197.273C90.9846 197.273 90.6976 197.342 90.4448 197.482C90.1948 197.621 89.9973 197.824 89.8525 198.091C89.7076 198.358 89.6351 198.682 89.6351 199.062ZM98.1206 203.136C97.5751 203.136 97.0936 202.999 96.676 202.723C96.2583 202.445 95.9316 202.053 95.6958 201.547C95.46 201.038 95.3422 200.438 95.3422 199.744C95.3422 199.057 95.46 198.46 95.6958 197.955C95.9316 197.449 96.2598 197.058 96.6802 196.783C97.1007 196.507 97.5865 196.369 98.1376 196.369C98.5637 196.369 98.9004 196.44 99.1475 196.582C99.3975 196.722 99.5879 196.881 99.7186 197.06C99.8521 197.236 99.9558 197.381 100.03 197.494H100.115V194.273H101.121V203H100.149V201.994H100.03C99.9558 202.114 99.8507 202.264 99.7143 202.446C99.5779 202.625 99.3833 202.786 99.1305 202.928C98.8777 203.067 98.541 203.136 98.1206 203.136ZM98.2569 202.233C98.6603 202.233 99.0012 202.128 99.2797 201.918C99.5581 201.705 99.7697 201.411 99.9146 201.036C100.059 200.658 100.132 200.222 100.132 199.727C100.132 199.239 100.061 198.811 99.9189 198.445C99.7768 198.075 99.5666 197.788 99.2882 197.584C99.0098 197.376 98.666 197.273 98.2569 197.273C97.8308 197.273 97.4757 197.382 97.1916 197.601C96.9103 197.817 96.6987 198.111 96.5566 198.483C96.4174 198.852 96.3478 199.267 96.3478 199.727C96.3478 200.193 96.4189 200.616 96.5609 200.997C96.7058 201.375 96.9189 201.676 97.2001 201.901C97.4842 202.122 97.8365 202.233 98.2569 202.233ZM105.846 203.136C105.216 203.136 104.672 202.997 104.214 202.719C103.76 202.438 103.409 202.045 103.162 201.543C102.917 201.037 102.795 200.449 102.795 199.778C102.795 199.108 102.917 198.517 103.162 198.006C103.409 197.491 103.753 197.091 104.193 196.804C104.636 196.514 105.153 196.369 105.744 196.369C106.085 196.369 106.422 196.426 106.754 196.54C107.086 196.653 107.389 196.838 107.662 197.094C107.934 197.347 108.152 197.682 108.314 198.099C108.476 198.517 108.557 199.031 108.557 199.642V200.068H103.511V199.199H107.534C107.534 198.83 107.46 198.5 107.312 198.21C107.167 197.92 106.96 197.692 106.69 197.524C106.423 197.357 106.108 197.273 105.744 197.273C105.344 197.273 104.997 197.372 104.704 197.571C104.415 197.767 104.192 198.023 104.035 198.338C103.879 198.653 103.801 198.991 103.801 199.352V199.932C103.801 200.426 103.886 200.845 104.057 201.189C104.23 201.53 104.47 201.79 104.777 201.969C105.084 202.145 105.44 202.233 105.846 202.233C106.111 202.233 106.349 202.196 106.562 202.122C106.778 202.045 106.964 201.932 107.121 201.781C107.277 201.628 107.398 201.437 107.483 201.21L108.454 201.483C108.352 201.812 108.18 202.102 107.939 202.352C107.697 202.599 107.399 202.793 107.044 202.932C106.689 203.068 106.29 203.136 105.846 203.136ZM110.086 203V196.455H111.058V197.443H111.126C111.246 197.119 111.461 196.857 111.774 196.655C112.086 196.453 112.439 196.352 112.831 196.352C112.905 196.352 112.997 196.354 113.108 196.357C113.219 196.359 113.302 196.364 113.359 196.369V197.392C113.325 197.384 113.247 197.371 113.125 197.354C113.006 197.334 112.879 197.324 112.746 197.324C112.427 197.324 112.143 197.391 111.893 197.524C111.646 197.655 111.45 197.837 111.305 198.07C111.163 198.3 111.092 198.562 111.092 198.858V203H110.086ZM117.096 203.136C116.466 203.136 115.922 202.997 115.464 202.719C115.01 202.438 114.659 202.045 114.412 201.543C114.167 201.037 114.045 200.449 114.045 199.778C114.045 199.108 114.167 198.517 114.412 198.006C114.659 197.491 115.003 197.091 115.443 196.804C115.886 196.514 116.403 196.369 116.994 196.369C117.335 196.369 117.672 196.426 118.004 196.54C118.336 196.653 118.639 196.838 118.912 197.094C119.184 197.347 119.402 197.682 119.564 198.099C119.726 198.517 119.807 199.031 119.807 199.642V200.068H114.761V199.199H118.784C118.784 198.83 118.71 198.5 118.562 198.21C118.417 197.92 118.21 197.692 117.94 197.524C117.673 197.357 117.358 197.273 116.994 197.273C116.594 197.273 116.247 197.372 115.954 197.571C115.665 197.767 115.442 198.023 115.285 198.338C115.129 198.653 115.051 198.991 115.051 199.352V199.932C115.051 200.426 115.136 200.845 115.307 201.189C115.48 201.53 115.72 201.79 116.027 201.969C116.334 202.145 116.69 202.233 117.096 202.233C117.361 202.233 117.599 202.196 117.812 202.122C118.028 202.045 118.214 201.932 118.371 201.781C118.527 201.628 118.648 201.437 118.733 201.21L119.704 201.483C119.602 201.812 119.43 202.102 119.189 202.352C118.947 202.599 118.649 202.793 118.294 202.932C117.939 203.068 117.54 203.136 117.096 203.136ZM121.336 203V196.455H122.308V197.443H122.376C122.496 197.119 122.711 196.857 123.024 196.655C123.336 196.453 123.689 196.352 124.081 196.352C124.155 196.352 124.247 196.354 124.358 196.357C124.469 196.359 124.552 196.364 124.609 196.369V197.392C124.575 197.384 124.497 197.371 124.375 197.354C124.256 197.334 124.129 197.324 123.996 197.324C123.677 197.324 123.393 197.391 123.143 197.524C122.896 197.655 122.7 197.837 122.555 198.07C122.413 198.3 122.342 198.562 122.342 198.858V203H121.336Z" fill="black"/>
<rect x="37" y="102" width="124" height="60" fill="#E3A03B"/>
<path d="M72.6374 137H71.5295L74.734 128.273H75.8249L79.0295 137H77.9215L75.3136 129.653H75.2454L72.6374 137ZM73.0465 133.591H77.5124V134.528H73.0465V133.591ZM81.2582 133.062V137H80.2525V130.455H81.2241V131.477H81.3093C81.4627 131.145 81.6957 130.878 82.0082 130.676C82.3207 130.472 82.7241 130.369 83.2184 130.369C83.6616 130.369 84.0494 130.46 84.3817 130.642C84.7141 130.821 84.9727 131.094 85.1573 131.46C85.342 131.824 85.4343 132.284 85.4343 132.841V137H84.4286V132.909C84.4286 132.395 84.2951 131.994 84.0281 131.707C83.761 131.418 83.3945 131.273 82.9286 131.273C82.6076 131.273 82.3207 131.342 82.0678 131.482C81.8178 131.621 81.6204 131.824 81.4755 132.091C81.3306 132.358 81.2582 132.682 81.2582 133.062ZM87.272 137V130.455H88.2777V137H87.272ZM87.7834 129.364C87.5874 129.364 87.4183 129.297 87.2763 129.163C87.1371 129.03 87.0675 128.869 87.0675 128.682C87.0675 128.494 87.1371 128.334 87.2763 128.2C87.4183 128.067 87.5874 128 87.7834 128C87.9794 128 88.147 128.067 88.2862 128.2C88.4283 128.334 88.4993 128.494 88.4993 128.682C88.4993 128.869 88.4283 129.03 88.2862 129.163C88.147 129.297 87.9794 129.364 87.7834 129.364ZM90.1197 137V130.455H91.0913V131.477H91.1765C91.3129 131.128 91.533 130.857 91.837 130.663C92.141 130.467 92.506 130.369 92.9322 130.369C93.364 130.369 93.7234 130.467 94.0103 130.663C94.3001 130.857 94.5259 131.128 94.6879 131.477H94.756C94.9237 131.139 95.1751 130.871 95.5103 130.672C95.8455 130.47 96.2475 130.369 96.7163 130.369C97.3015 130.369 97.7802 130.553 98.1523 130.919C98.5245 131.283 98.7106 131.849 98.7106 132.619V137H97.7049V132.619C97.7049 132.136 97.5728 131.791 97.3086 131.584C97.0444 131.376 96.7333 131.273 96.3754 131.273C95.9151 131.273 95.5586 131.412 95.3058 131.69C95.0529 131.966 94.9265 132.315 94.9265 132.739V137H93.9038V132.517C93.9038 132.145 93.783 131.845 93.5415 131.618C93.3001 131.388 92.989 131.273 92.6083 131.273C92.3469 131.273 92.1026 131.342 91.8754 131.482C91.6509 131.621 91.4691 131.814 91.3299 132.061C91.1935 132.305 91.1254 132.588 91.1254 132.909V137H90.1197ZM102.475 137.153C102.061 137.153 101.684 137.075 101.346 136.919C101.008 136.76 100.74 136.531 100.541 136.233C100.342 135.932 100.243 135.568 100.243 135.142C100.243 134.767 100.316 134.463 100.464 134.23C100.612 133.994 100.809 133.81 101.056 133.676C101.304 133.543 101.576 133.443 101.875 133.378C102.176 133.31 102.478 133.256 102.782 133.216C103.18 133.165 103.502 133.126 103.75 133.101C104 133.072 104.181 133.026 104.295 132.96C104.412 132.895 104.47 132.781 104.47 132.619V132.585C104.47 132.165 104.355 131.838 104.125 131.605C103.897 131.372 103.552 131.256 103.089 131.256C102.609 131.256 102.233 131.361 101.96 131.571C101.687 131.781 101.495 132.006 101.385 132.244L100.43 131.903C100.6 131.506 100.828 131.196 101.112 130.974C101.399 130.75 101.711 130.594 102.049 130.506C102.39 130.415 102.725 130.369 103.055 130.369C103.265 130.369 103.507 130.395 103.779 130.446C104.055 130.494 104.321 130.595 104.576 130.749C104.835 130.902 105.049 131.134 105.22 131.443C105.39 131.753 105.475 132.168 105.475 132.688V137H104.47V136.114H104.419C104.35 136.256 104.237 136.408 104.078 136.57C103.919 136.732 103.707 136.869 103.443 136.983C103.179 137.097 102.856 137.153 102.475 137.153ZM102.629 136.25C103.027 136.25 103.362 136.172 103.635 136.016C103.91 135.859 104.118 135.658 104.257 135.411C104.399 135.163 104.47 134.903 104.47 134.631V133.71C104.427 133.761 104.333 133.808 104.189 133.851C104.047 133.891 103.882 133.926 103.694 133.957C103.51 133.986 103.329 134.011 103.153 134.034C102.98 134.054 102.839 134.071 102.731 134.085C102.47 134.119 102.225 134.175 101.998 134.251C101.774 134.325 101.592 134.437 101.453 134.588C101.316 134.736 101.248 134.937 101.248 135.193C101.248 135.543 101.377 135.807 101.636 135.986C101.897 136.162 102.228 136.25 102.629 136.25ZM110.158 130.455V131.307H106.766V130.455H110.158ZM107.754 128.886H108.76V135.125C108.76 135.409 108.801 135.622 108.884 135.764C108.969 135.903 109.077 135.997 109.207 136.045C109.341 136.091 109.482 136.114 109.629 136.114C109.74 136.114 109.831 136.108 109.902 136.097C109.973 136.082 110.03 136.071 110.072 136.062L110.277 136.966C110.209 136.991 110.114 137.017 109.991 137.043C109.869 137.071 109.714 137.085 109.527 137.085C109.243 137.085 108.964 137.024 108.692 136.902C108.422 136.78 108.197 136.594 108.018 136.344C107.842 136.094 107.754 135.778 107.754 135.398V128.886ZM111.67 137V130.455H112.676V137H111.67ZM112.182 129.364C111.986 129.364 111.817 129.297 111.675 129.163C111.536 129.03 111.466 128.869 111.466 128.682C111.466 128.494 111.536 128.334 111.675 128.2C111.817 128.067 111.986 128 112.182 128C112.378 128 112.545 128.067 112.685 128.2C112.827 128.334 112.898 128.494 112.898 128.682C112.898 128.869 112.827 129.03 112.685 129.163C112.545 129.297 112.378 129.364 112.182 129.364ZM117.177 137.136C116.586 137.136 116.068 136.996 115.622 136.714C115.179 136.433 114.832 136.04 114.582 135.534C114.335 135.028 114.211 134.437 114.211 133.761C114.211 133.08 114.335 132.484 114.582 131.976C114.832 131.467 115.179 131.072 115.622 130.791C116.068 130.51 116.586 130.369 117.177 130.369C117.768 130.369 118.285 130.51 118.728 130.791C119.174 131.072 119.521 131.467 119.768 131.976C120.018 132.484 120.143 133.08 120.143 133.761C120.143 134.437 120.018 135.028 119.768 135.534C119.521 136.04 119.174 136.433 118.728 136.714C118.285 136.996 117.768 137.136 117.177 137.136ZM117.177 136.233C117.626 136.233 117.995 136.118 118.285 135.888C118.575 135.658 118.789 135.355 118.929 134.98C119.068 134.605 119.137 134.199 119.137 133.761C119.137 133.324 119.068 132.916 118.929 132.538C118.789 132.161 118.575 131.855 118.285 131.622C117.995 131.389 117.626 131.273 117.177 131.273C116.728 131.273 116.359 131.389 116.069 131.622C115.779 131.855 115.565 132.161 115.426 132.538C115.287 132.916 115.217 133.324 115.217 133.761C115.217 134.199 115.287 134.605 115.426 134.98C115.565 135.355 115.779 135.658 116.069 135.888C116.359 136.118 116.728 136.233 117.177 136.233ZM122.684 133.062V137H121.678V130.455H122.65V131.477H122.735C122.888 131.145 123.121 130.878 123.434 130.676C123.746 130.472 124.15 130.369 124.644 130.369C125.087 130.369 125.475 130.46 125.808 130.642C126.14 130.821 126.398 131.094 126.583 131.46C126.768 131.824 126.86 132.284 126.86 132.841V137H125.854V132.909C125.854 132.395 125.721 131.994 125.454 131.707C125.187 131.418 124.82 131.273 124.354 131.273C124.033 131.273 123.746 131.342 123.494 131.482C123.244 131.621 123.046 131.824 122.901 132.091C122.756 132.358 122.684 132.682 122.684 133.062Z" fill="black"/>
<rect x="37" y="36" width="124" height="60" fill="#E3A03B"/>
<path d="M53.9545 56.4545C53.9034 56.0227 53.696 55.6875 53.3324 55.4489C52.9688 55.2102 52.5227 55.0909 51.9943 55.0909C51.608 55.0909 51.2699 55.1534 50.9801 55.2784C50.6932 55.4034 50.4688 55.5753 50.3068 55.794C50.1477 56.0128 50.0682 56.2614 50.0682 56.5398C50.0682 56.7727 50.1236 56.973 50.2344 57.1406C50.348 57.3054 50.4929 57.4432 50.669 57.554C50.8452 57.6619 51.0298 57.7514 51.223 57.8224C51.4162 57.8906 51.5938 57.946 51.7557 57.9886L52.642 58.2273C52.8693 58.2869 53.1222 58.3693 53.4006 58.4744C53.6818 58.5795 53.9503 58.723 54.206 58.9048C54.4645 59.0838 54.6776 59.3139 54.8452 59.5952C55.0128 59.8764 55.0966 60.2216 55.0966 60.6307C55.0966 61.1023 54.973 61.5284 54.7259 61.9091C54.4815 62.2898 54.1236 62.5923 53.652 62.8168C53.1832 63.0412 52.6136 63.1534 51.9432 63.1534C51.3182 63.1534 50.777 63.0526 50.3196 62.8509C49.8651 62.6491 49.5071 62.3679 49.2457 62.0071C48.9872 61.6463 48.8409 61.2273 48.8068 60.75H49.8977C49.9261 61.0795 50.0369 61.3523 50.2301 61.5682C50.4261 61.7812 50.6733 61.9403 50.9716 62.0455C51.2727 62.1477 51.5966 62.1989 51.9432 62.1989C52.3466 62.1989 52.7088 62.1335 53.0298 62.0028C53.3509 61.8693 53.6051 61.6847 53.7926 61.4489C53.9801 61.2102 54.0739 60.9318 54.0739 60.6136C54.0739 60.3239 53.9929 60.0881 53.831 59.9062C53.669 59.7244 53.456 59.5767 53.1918 59.4631C52.9276 59.3494 52.642 59.25 52.3352 59.1648L51.2614 58.858C50.5795 58.6619 50.0398 58.3821 49.642 58.0185C49.2443 57.6548 49.0455 57.179 49.0455 56.5909C49.0455 56.1023 49.1776 55.6761 49.4418 55.3125C49.7088 54.946 50.0668 54.6619 50.5156 54.4602C50.9673 54.2557 51.4716 54.1534 52.0284 54.1534C52.5909 54.1534 53.0909 54.2543 53.5284 54.456C53.9659 54.6548 54.3125 54.9276 54.5682 55.2741C54.8267 55.6207 54.9631 56.0142 54.9773 56.4545H53.9545ZM59.3569 63.1364C58.7433 63.1364 58.2148 62.9915 57.7717 62.7017C57.3285 62.4119 56.9876 62.0128 56.7489 61.5043C56.5103 60.9957 56.391 60.4148 56.391 59.7614C56.391 59.0966 56.5131 58.5099 56.7575 58.0014C57.0046 57.4901 57.3484 57.0909 57.7887 56.804C58.2319 56.5142 58.7489 56.3693 59.3398 56.3693C59.8001 56.3693 60.2148 56.4545 60.5842 56.625C60.9535 56.7955 61.256 57.0341 61.4918 57.3409C61.7276 57.6477 61.8739 58.0057 61.9308 58.4148H60.9251C60.8484 58.1165 60.6779 57.8523 60.4137 57.6222C60.1523 57.3892 59.8001 57.2727 59.3569 57.2727C58.9648 57.2727 58.6211 57.375 58.3256 57.5795C58.033 57.7812 57.8043 58.0668 57.6396 58.4361C57.4776 58.8026 57.3967 59.233 57.3967 59.7273C57.3967 60.233 57.4762 60.6733 57.6353 61.0483C57.7972 61.4233 58.0245 61.7145 58.3171 61.9219C58.6126 62.1293 58.9592 62.233 59.3569 62.233C59.6183 62.233 59.8555 62.1875 60.0685 62.0966C60.2816 62.0057 60.462 61.875 60.6097 61.7045C60.7575 61.5341 60.8626 61.3295 60.9251 61.0909H61.9308C61.8739 61.4773 61.7333 61.8253 61.5089 62.1349C61.2873 62.4418 60.9933 62.6861 60.6268 62.8679C60.2631 63.0469 59.8398 63.1364 59.3569 63.1364ZM66.1452 63.1364C65.5146 63.1364 64.9705 62.9972 64.5131 62.7188C64.0586 62.4375 63.7077 62.0455 63.4606 61.5426C63.2163 61.0369 63.0941 60.4489 63.0941 59.7784C63.0941 59.108 63.2163 58.517 63.4606 58.0057C63.7077 57.4915 64.0515 57.0909 64.4918 56.804C64.935 56.5142 65.4521 56.3693 66.043 56.3693C66.3839 56.3693 66.7205 56.4261 67.0529 56.5398C67.3853 56.6534 67.6879 56.8381 67.9606 57.0938C68.2333 57.3466 68.4506 57.6818 68.6126 58.0994C68.7745 58.517 68.8555 59.0312 68.8555 59.642V60.0682H63.81V59.1989H67.8327C67.8327 58.8295 67.7589 58.5 67.6112 58.2102C67.4663 57.9205 67.2589 57.6918 66.989 57.5241C66.7219 57.3565 66.4066 57.2727 66.043 57.2727C65.6424 57.2727 65.2958 57.3722 65.0032 57.571C64.7134 57.767 64.4904 58.0227 64.3342 58.3381C64.1779 58.6534 64.0998 58.9915 64.0998 59.3523V59.9318C64.0998 60.4261 64.185 60.8452 64.3555 61.1889C64.5288 61.5298 64.7688 61.7898 65.0756 61.9688C65.3825 62.1449 65.739 62.233 66.1452 62.233C66.4094 62.233 66.6481 62.196 66.8612 62.1222C67.0771 62.0455 67.2631 61.9318 67.4194 61.7812C67.5756 61.6278 67.6964 61.4375 67.7816 61.2102L68.7532 61.483C68.6509 61.8125 68.479 62.1023 68.2376 62.3523C67.9961 62.5994 67.6978 62.7926 67.3427 62.9318C66.9876 63.0682 66.5884 63.1364 66.1452 63.1364ZM71.391 59.0625V63H70.3853V56.4545H71.3569V57.4773H71.4421C71.5955 57.1449 71.8285 56.8778 72.141 56.6761C72.4535 56.4716 72.8569 56.3693 73.3512 56.3693C73.7944 56.3693 74.1822 56.4602 74.5146 56.642C74.8469 56.821 75.1055 57.0938 75.2901 57.4602C75.4748 57.8239 75.5671 58.2841 75.5671 58.8409V63H74.5614V58.9091C74.5614 58.3949 74.4279 57.9943 74.1609 57.7074C73.8938 57.4176 73.5273 57.2727 73.0614 57.2727C72.7404 57.2727 72.4535 57.3423 72.2006 57.4815C71.9506 57.6207 71.7532 57.8239 71.6083 58.0909C71.4634 58.358 71.391 58.6818 71.391 59.0625ZM80.1491 63.1364C79.5185 63.1364 78.9744 62.9972 78.517 62.7188C78.0625 62.4375 77.7116 62.0455 77.4645 61.5426C77.2202 61.0369 77.098 60.4489 77.098 59.7784C77.098 59.108 77.2202 58.517 77.4645 58.0057C77.7116 57.4915 78.0554 57.0909 78.4957 56.804C78.9389 56.5142 79.456 56.3693 80.0469 56.3693C80.3878 56.3693 80.7244 56.4261 81.0568 56.5398C81.3892 56.6534 81.6918 56.8381 81.9645 57.0938C82.2372 57.3466 82.4545 57.6818 82.6165 58.0994C82.7784 58.517 82.8594 59.0312 82.8594 59.642V60.0682H77.8139V59.1989H81.8366C81.8366 58.8295 81.7628 58.5 81.6151 58.2102C81.4702 57.9205 81.2628 57.6918 80.9929 57.5241C80.7259 57.3565 80.4105 57.2727 80.0469 57.2727C79.6463 57.2727 79.2997 57.3722 79.0071 57.571C78.7173 57.767 78.4943 58.0227 78.3381 58.3381C78.1818 58.6534 78.1037 58.9915 78.1037 59.3523V59.9318C78.1037 60.4261 78.1889 60.8452 78.3594 61.1889C78.5327 61.5298 78.7727 61.7898 79.0795 61.9688C79.3864 62.1449 79.7429 62.233 80.1491 62.233C80.4134 62.233 80.652 62.196 80.8651 62.1222C81.081 62.0455 81.267 61.9318 81.4233 61.7812C81.5795 61.6278 81.7003 61.4375 81.7855 61.2102L82.7571 61.483C82.6548 61.8125 82.483 62.1023 82.2415 62.3523C82 62.5994 81.7017 62.7926 81.3466 62.9318C80.9915 63.0682 80.5923 63.1364 80.1491 63.1364ZM90.2358 63.1193C89.6619 63.1193 89.1676 63.0142 88.7528 62.804C88.3381 62.5937 88.0185 62.3054 87.794 61.9389C87.5696 61.5724 87.4574 61.1534 87.4574 60.6818C87.4574 60.3182 87.5341 59.9957 87.6875 59.7145C87.8438 59.4304 88.0582 59.1676 88.331 58.9261C88.6065 58.6818 88.9233 58.4375 89.2812 58.1932L90.5426 57.2557C90.7898 57.0937 90.9872 56.9205 91.1349 56.7358C91.2855 56.5511 91.3608 56.3097 91.3608 56.0114C91.3608 55.7898 91.2628 55.5753 91.0668 55.3679C90.8736 55.1605 90.6193 55.0568 90.304 55.0568C90.0824 55.0568 89.8864 55.1136 89.7159 55.2273C89.5483 55.3381 89.4162 55.4801 89.3196 55.6534C89.2259 55.8239 89.179 56 89.179 56.1818C89.179 56.3864 89.2344 56.5938 89.3452 56.804C89.4588 57.0114 89.6023 57.2244 89.7756 57.4432C89.9517 57.6591 90.1335 57.8807 90.321 58.108L94.3267 63H93.1165L89.8097 59.0114C89.5028 58.642 89.2244 58.3068 88.9744 58.0057C88.7244 57.7045 88.5256 57.4077 88.3778 57.1151C88.2301 56.8224 88.1562 56.5057 88.1562 56.1648C88.1562 55.7727 88.2429 55.429 88.4162 55.1335C88.5923 54.8352 88.8381 54.6037 89.1534 54.4389C89.4716 54.2713 89.8438 54.1875 90.2699 54.1875C90.7074 54.1875 91.0838 54.2727 91.3991 54.4432C91.7145 54.6108 91.9574 54.8338 92.1278 55.1122C92.2983 55.3878 92.3835 55.6875 92.3835 56.0114C92.3835 56.429 92.2798 56.7912 92.0724 57.098C91.8651 57.4048 91.5824 57.6903 91.2244 57.9545L89.4858 59.25C89.0938 59.5398 88.8281 59.821 88.6889 60.0938C88.5497 60.3665 88.4801 60.5625 88.4801 60.6818C88.4801 60.9545 88.5511 61.2088 88.6932 61.4446C88.8352 61.6804 89.0355 61.8707 89.294 62.0156C89.5526 62.1605 89.8551 62.233 90.2017 62.233C90.5313 62.233 90.8523 62.1634 91.1648 62.0241C91.4773 61.8821 91.7599 61.6776 92.0128 61.4105C92.2685 61.1435 92.4702 60.8224 92.6179 60.4474C92.7685 60.0724 92.8438 59.6506 92.8438 59.1818H93.8153C93.8153 59.7614 93.7486 60.2344 93.6151 60.6009C93.4815 60.9673 93.331 61.2543 93.1634 61.4616C92.9957 61.669 92.8608 61.8239 92.7585 61.9261C92.7244 61.9687 92.6932 62.0114 92.6648 62.054C92.6364 62.0966 92.6051 62.1392 92.571 62.1818C92.2898 62.4972 91.9347 62.733 91.5057 62.8892C91.0767 63.0426 90.6534 63.1193 90.2358 63.1193ZM98.815 63V56.4545H99.7866V57.4432H99.8548C99.9741 57.1193 100.19 56.8565 100.502 56.6548C100.815 56.4531 101.167 56.3523 101.559 56.3523C101.633 56.3523 101.725 56.3537 101.836 56.3565C101.947 56.3594 102.031 56.3636 102.088 56.3693V57.392C102.054 57.3835 101.975 57.3707 101.853 57.3537C101.734 57.3338 101.608 57.3239 101.474 57.3239C101.156 57.3239 100.872 57.3906 100.622 57.5241C100.375 57.6548 100.179 57.8366 100.034 58.0696C99.8917 58.2997 99.8207 58.5625 99.8207 58.858V63H98.815ZM105.825 63.1364C105.194 63.1364 104.65 62.9972 104.193 62.7188C103.738 62.4375 103.387 62.0455 103.14 61.5426C102.896 61.0369 102.774 60.4489 102.774 59.7784C102.774 59.108 102.896 58.517 103.14 58.0057C103.387 57.4915 103.731 57.0909 104.172 56.804C104.615 56.5142 105.132 56.3693 105.723 56.3693C106.064 56.3693 106.4 56.4261 106.733 56.5398C107.065 56.6534 107.368 56.8381 107.64 57.0938C107.913 57.3466 108.13 57.6818 108.292 58.0994C108.454 58.517 108.535 59.0312 108.535 59.642V60.0682H103.49V59.1989H107.512C107.512 58.8295 107.439 58.5 107.291 58.2102C107.146 57.9205 106.939 57.6918 106.669 57.5241C106.402 57.3565 106.086 57.2727 105.723 57.2727C105.322 57.2727 104.975 57.3722 104.683 57.571C104.393 57.767 104.17 58.0227 104.014 58.3381C103.858 58.6534 103.779 58.9915 103.779 59.3523V59.9318C103.779 60.4261 103.865 60.8452 104.035 61.1889C104.208 61.5298 104.449 61.7898 104.755 61.9688C105.062 62.1449 105.419 62.233 105.825 62.233C106.089 62.233 106.328 62.196 106.541 62.1222C106.757 62.0455 106.943 61.9318 107.099 61.7812C107.255 61.6278 107.376 61.4375 107.461 61.2102L108.433 61.483C108.331 61.8125 108.159 62.1023 107.917 62.3523C107.676 62.5994 107.377 62.7926 107.022 62.9318C106.667 63.0682 106.268 63.1364 105.825 63.1364ZM114.701 57.9205L113.798 58.1761C113.741 58.0256 113.657 57.8793 113.547 57.7372C113.439 57.5923 113.291 57.473 113.103 57.3793C112.916 57.2855 112.676 57.2386 112.383 57.2386C111.983 57.2386 111.649 57.331 111.382 57.5156C111.118 57.6974 110.985 57.929 110.985 58.2102C110.985 58.4602 111.076 58.6577 111.258 58.8026C111.44 58.9474 111.724 59.0682 112.11 59.1648L113.082 59.4034C113.667 59.5455 114.103 59.7628 114.39 60.0554C114.677 60.3452 114.821 60.7187 114.821 61.1761C114.821 61.5511 114.713 61.8864 114.497 62.1818C114.284 62.4773 113.985 62.7102 113.602 62.8807C113.218 63.0511 112.772 63.1364 112.264 63.1364C111.596 63.1364 111.044 62.9915 110.606 62.7017C110.169 62.4119 109.892 61.9886 109.775 61.4318L110.73 61.1932C110.821 61.5455 110.993 61.8097 111.245 61.9858C111.501 62.1619 111.835 62.25 112.247 62.25C112.716 62.25 113.088 62.1506 113.363 61.9517C113.642 61.75 113.781 61.5085 113.781 61.2273C113.781 61 113.701 60.8097 113.542 60.6562C113.383 60.5 113.139 60.3835 112.809 60.3068L111.718 60.0511C111.119 59.9091 110.679 59.6889 110.397 59.3906C110.119 59.0895 109.98 58.7131 109.98 58.2614C109.98 57.892 110.083 57.5653 110.291 57.2812C110.501 56.9972 110.787 56.7741 111.147 56.6122C111.511 56.4503 111.923 56.3693 112.383 56.3693C113.031 56.3693 113.539 56.5114 113.909 56.7955C114.281 57.0795 114.545 57.4545 114.701 57.9205ZM118.994 63.1364C118.403 63.1364 117.884 62.9957 117.438 62.7145C116.995 62.4332 116.648 62.0398 116.398 61.5341C116.151 61.0284 116.028 60.4375 116.028 59.7614C116.028 59.0795 116.151 58.4844 116.398 57.9759C116.648 57.4673 116.995 57.0724 117.438 56.7912C117.884 56.5099 118.403 56.3693 118.994 56.3693C119.585 56.3693 120.102 56.5099 120.545 56.7912C120.991 57.0724 121.337 57.4673 121.585 57.9759C121.835 58.4844 121.96 59.0795 121.96 59.7614C121.96 60.4375 121.835 61.0284 121.585 61.5341C121.337 62.0398 120.991 62.4332 120.545 62.7145C120.102 62.9957 119.585 63.1364 118.994 63.1364ZM118.994 62.233C119.442 62.233 119.812 62.1179 120.102 61.8878C120.391 61.6577 120.606 61.3551 120.745 60.9801C120.884 60.6051 120.954 60.1989 120.954 59.7614C120.954 59.3239 120.884 58.9162 120.745 58.5384C120.606 58.1605 120.391 57.8551 120.102 57.6222C119.812 57.3892 119.442 57.2727 118.994 57.2727C118.545 57.2727 118.175 57.3892 117.886 57.6222C117.596 57.8551 117.381 58.1605 117.242 58.5384C117.103 58.9162 117.033 59.3239 117.033 59.7614C117.033 60.1989 117.103 60.6051 117.242 60.9801C117.381 61.3551 117.596 61.6577 117.886 61.8878C118.175 62.1179 118.545 62.233 118.994 62.233ZM127.62 60.3239V56.4545H128.625V63H127.62V61.892H127.551C127.398 62.2244 127.159 62.5071 126.836 62.7401C126.512 62.9702 126.103 63.0852 125.608 63.0852C125.199 63.0852 124.836 62.9957 124.517 62.8168C124.199 62.6349 123.949 62.3622 123.767 61.9986C123.586 61.6321 123.495 61.1705 123.495 60.6136V56.4545H124.5V60.5455C124.5 61.0227 124.634 61.4034 124.901 61.6875C125.171 61.9716 125.515 62.1136 125.932 62.1136C126.182 62.1136 126.436 62.0497 126.695 61.9219C126.956 61.794 127.175 61.598 127.351 61.3338C127.53 61.0696 127.62 60.733 127.62 60.3239ZM130.467 63V56.4545H131.439V57.4432H131.507C131.626 57.1193 131.842 56.8565 132.155 56.6548C132.467 56.4531 132.82 56.3523 133.212 56.3523C133.286 56.3523 133.378 56.3537 133.489 56.3565C133.599 56.3594 133.683 56.3636 133.74 56.3693V57.392C133.706 57.3835 133.628 57.3707 133.506 57.3537C133.386 57.3338 133.26 57.3239 133.126 57.3239C132.808 57.3239 132.524 57.3906 132.274 57.5241C132.027 57.6548 131.831 57.8366 131.686 58.0696C131.544 58.2997 131.473 58.5625 131.473 58.858V63H130.467ZM137.392 63.1364C136.778 63.1364 136.25 62.9915 135.807 62.7017C135.364 62.4119 135.023 62.0128 134.784 61.5043C134.545 60.9957 134.426 60.4148 134.426 59.7614C134.426 59.0966 134.548 58.5099 134.793 58.0014C135.04 57.4901 135.384 57.0909 135.824 56.804C136.267 56.5142 136.784 56.3693 137.375 56.3693C137.835 56.3693 138.25 56.4545 138.619 56.625C138.989 56.7955 139.291 57.0341 139.527 57.3409C139.763 57.6477 139.909 58.0057 139.966 58.4148H138.96C138.884 58.1165 138.713 57.8523 138.449 57.6222C138.188 57.3892 137.835 57.2727 137.392 57.2727C137 57.2727 136.656 57.375 136.361 57.5795C136.068 57.7812 135.839 58.0668 135.675 58.4361C135.513 58.8026 135.432 59.233 135.432 59.7273C135.432 60.233 135.511 60.6733 135.67 61.0483C135.832 61.4233 136.06 61.7145 136.352 61.9219C136.648 62.1293 136.994 62.233 137.392 62.233C137.653 62.233 137.891 62.1875 138.104 62.0966C138.317 62.0057 138.497 61.875 138.645 61.7045C138.793 61.5341 138.898 61.3295 138.96 61.0909H139.966C139.909 61.4773 139.768 61.8253 139.544 62.1349C139.322 62.4418 139.028 62.6861 138.662 62.8679C138.298 63.0469 137.875 63.1364 137.392 63.1364ZM144.18 63.1364C143.55 63.1364 143.006 62.9972 142.548 62.7188C142.094 62.4375 141.743 62.0455 141.496 61.5426C141.251 61.0369 141.129 60.4489 141.129 59.7784C141.129 59.108 141.251 58.517 141.496 58.0057C141.743 57.4915 142.087 57.0909 142.527 56.804C142.97 56.5142 143.487 56.3693 144.078 56.3693C144.419 56.3693 144.756 56.4261 145.088 56.5398C145.42 56.6534 145.723 56.8381 145.996 57.0938C146.268 57.3466 146.486 57.6818 146.648 58.0994C146.81 58.517 146.891 59.0312 146.891 59.642V60.0682H141.845V59.1989H145.868C145.868 58.8295 145.794 58.5 145.646 58.2102C145.501 57.9205 145.294 57.6918 145.024 57.5241C144.757 57.3565 144.442 57.2727 144.078 57.2727C143.678 57.2727 143.331 57.3722 143.038 57.571C142.749 57.767 142.526 58.0227 142.369 58.3381C142.213 58.6534 142.135 58.9915 142.135 59.3523V59.9318C142.135 60.4261 142.22 60.8452 142.391 61.1889C142.564 61.5298 142.804 61.7898 143.111 61.9688C143.418 62.1449 143.774 62.233 144.18 62.233C144.445 62.233 144.683 62.196 144.896 62.1222C145.112 62.0455 145.298 61.9318 145.455 61.7812C145.611 61.6278 145.732 61.4375 145.817 61.2102L146.788 61.483C146.686 61.8125 146.514 62.1023 146.273 62.3523C146.031 62.5994 145.733 62.7926 145.378 62.9318C145.023 63.0682 144.624 63.1364 144.18 63.1364ZM63.3892 78V71.4545H64.3608V72.4773H64.446C64.5824 72.1278 64.8026 71.8565 65.1065 71.6634C65.4105 71.4673 65.7756 71.3693 66.2017 71.3693C66.6335 71.3693 66.9929 71.4673 67.2798 71.6634C67.5696 71.8565 67.7955 72.1278 67.9574 72.4773H68.0256C68.1932 72.1392 68.4446 71.8707 68.7798 71.6719C69.1151 71.4702 69.517 71.3693 69.9858 71.3693C70.571 71.3693 71.0497 71.5526 71.4219 71.919C71.794 72.2827 71.9801 72.8494 71.9801 73.6193V78H70.9744V73.6193C70.9744 73.1364 70.8423 72.7912 70.5781 72.5838C70.3139 72.3764 70.0028 72.2727 69.6449 72.2727C69.1847 72.2727 68.8281 72.4119 68.5753 72.6903C68.3224 72.9659 68.196 73.3153 68.196 73.7386V78H67.1733V73.517C67.1733 73.1449 67.0526 72.8452 66.8111 72.6179C66.5696 72.3878 66.2585 72.2727 65.8778 72.2727C65.6165 72.2727 65.3722 72.3423 65.1449 72.4815C64.9205 72.6207 64.7386 72.8139 64.5994 73.0611C64.4631 73.3054 64.3949 73.5881 64.3949 73.9091V78H63.3892ZM75.745 78.1534C75.3303 78.1534 74.9538 78.0753 74.6158 77.919C74.2777 77.7599 74.0092 77.5312 73.8104 77.233C73.6115 76.9318 73.5121 76.5682 73.5121 76.142C73.5121 75.767 73.5859 75.4631 73.7337 75.2301C73.8814 74.9943 74.0788 74.8097 74.326 74.6761C74.5732 74.5426 74.8459 74.4432 75.1442 74.3778C75.4453 74.3097 75.7479 74.2557 76.0518 74.2159C76.4496 74.1648 76.772 74.1264 77.0192 74.1009C77.2692 74.0724 77.451 74.0256 77.5646 73.9602C77.6811 73.8949 77.7393 73.7812 77.7393 73.6193V73.5852C77.7393 73.1648 77.6243 72.8381 77.3942 72.6051C77.1669 72.3722 76.8217 72.2557 76.3587 72.2557C75.8786 72.2557 75.5021 72.3608 75.2294 72.571C74.9567 72.7812 74.7649 73.0057 74.6541 73.2443L73.6996 72.9034C73.87 72.5057 74.0973 72.196 74.3814 71.9744C74.6683 71.75 74.9808 71.5937 75.3189 71.5057C75.6598 71.4148 75.995 71.3693 76.3246 71.3693C76.5348 71.3693 76.7763 71.3949 77.049 71.446C77.3246 71.4943 77.5902 71.5952 77.8459 71.7486C78.1044 71.902 78.3189 72.1335 78.4893 72.4432C78.6598 72.7528 78.745 73.1676 78.745 73.6875V78H77.7393V77.1136H77.6882C77.62 77.2557 77.5064 77.4077 77.3473 77.5696C77.1882 77.7315 76.9766 77.8693 76.7124 77.983C76.4482 78.0966 76.1257 78.1534 75.745 78.1534ZM75.8984 77.25C76.2962 77.25 76.6314 77.1719 76.9041 77.0156C77.1797 76.8594 77.3871 76.6577 77.5263 76.4105C77.6683 76.1634 77.7393 75.9034 77.7393 75.6307V74.7102C77.6967 74.7614 77.603 74.8082 77.4581 74.8509C77.3161 74.8906 77.1513 74.9261 76.9638 74.9574C76.7791 74.9858 76.5987 75.0114 76.4226 75.0341C76.2493 75.054 76.1087 75.071 76.0007 75.0852C75.7393 75.1193 75.495 75.1747 75.2678 75.2514C75.0433 75.3253 74.8615 75.4375 74.7223 75.5881C74.5859 75.7358 74.5178 75.9375 74.5178 76.1932C74.5178 76.5426 74.647 76.8068 74.9055 76.9858C75.1669 77.1619 75.4979 77.25 75.8984 77.25ZM81.5863 74.0625V78H80.5806V71.4545H81.5522V72.4773H81.6374C81.7908 72.1449 82.0238 71.8778 82.3363 71.6761C82.6488 71.4716 83.0522 71.3693 83.5465 71.3693C83.9897 71.3693 84.3775 71.4602 84.7099 71.642C85.0423 71.821 85.3008 72.0938 85.4854 72.4602C85.6701 72.8239 85.7624 73.2841 85.7624 73.8409V78H84.7567V73.9091C84.7567 73.3949 84.6232 72.9943 84.3562 72.7074C84.0891 72.4176 83.7227 72.2727 83.2567 72.2727C82.9357 72.2727 82.6488 72.3423 82.396 72.4815C82.146 72.6207 81.9485 72.8239 81.8036 73.0909C81.6587 73.358 81.5863 73.6818 81.5863 74.0625ZM89.5263 78.1534C89.1115 78.1534 88.7351 78.0753 88.397 77.919C88.0589 77.7599 87.7905 77.5312 87.5916 77.233C87.3928 76.9318 87.2933 76.5682 87.2933 76.142C87.2933 75.767 87.3672 75.4631 87.5149 75.2301C87.6626 74.9943 87.8601 74.8097 88.1072 74.6761C88.3544 74.5426 88.6271 74.4432 88.9254 74.3778C89.2266 74.3097 89.5291 74.2557 89.8331 74.2159C90.2308 74.1648 90.5533 74.1264 90.8004 74.1009C91.0504 74.0724 91.2322 74.0256 91.3459 73.9602C91.4624 73.8949 91.5206 73.7812 91.5206 73.6193V73.5852C91.5206 73.1648 91.4055 72.8381 91.1754 72.6051C90.9482 72.3722 90.603 72.2557 90.1399 72.2557C89.6598 72.2557 89.2834 72.3608 89.0107 72.571C88.7379 72.7812 88.5462 73.0057 88.4354 73.2443L87.4808 72.9034C87.6513 72.5057 87.8786 72.196 88.1626 71.9744C88.4496 71.75 88.7621 71.5937 89.1001 71.5057C89.4411 71.4148 89.7763 71.3693 90.1058 71.3693C90.3161 71.3693 90.5575 71.3949 90.8303 71.446C91.1058 71.4943 91.3714 71.5952 91.6271 71.7486C91.8857 71.902 92.1001 72.1335 92.2706 72.4432C92.4411 72.7528 92.5263 73.1676 92.5263 73.6875V78H91.5206V77.1136H91.4695C91.4013 77.2557 91.2876 77.4077 91.1286 77.5696C90.9695 77.7315 90.7578 77.8693 90.4936 77.983C90.2294 78.0966 89.907 78.1534 89.5263 78.1534ZM89.6797 77.25C90.0774 77.25 90.4126 77.1719 90.6854 77.0156C90.9609 76.8594 91.1683 76.6577 91.3075 76.4105C91.4496 76.1634 91.5206 75.9034 91.5206 75.6307V74.7102C91.478 74.7614 91.3842 74.8082 91.2393 74.8509C91.0973 74.8906 90.9325 74.9261 90.745 74.9574C90.5604 74.9858 90.38 75.0114 90.2038 75.0341C90.0305 75.054 89.8899 75.071 89.782 75.0852C89.5206 75.1193 89.2763 75.1747 89.049 75.2514C88.8246 75.3253 88.6428 75.4375 88.5036 75.5881C88.3672 75.7358 88.299 75.9375 88.299 76.1932C88.299 76.5426 88.4283 76.8068 88.6868 76.9858C88.9482 77.1619 89.2791 77.25 89.6797 77.25ZM97.0039 80.5909C96.5181 80.5909 96.1005 80.5284 95.7511 80.4034C95.4016 80.2812 95.1104 80.1193 94.8775 79.9176C94.6474 79.7188 94.4641 79.5057 94.3278 79.2784L95.1289 78.7159C95.2198 78.8352 95.3349 78.9716 95.4741 79.125C95.6133 79.2812 95.8036 79.4162 96.0451 79.5298C96.2894 79.6463 96.609 79.7045 97.0039 79.7045C97.5323 79.7045 97.9684 79.5767 98.3121 79.321C98.6559 79.0653 98.8278 78.6648 98.8278 78.1193V76.7898H98.7425C98.6687 76.9091 98.5636 77.0568 98.4272 77.233C98.2937 77.4062 98.1005 77.5611 97.8477 77.6974C97.5977 77.831 97.2596 77.8977 96.8335 77.8977C96.305 77.8977 95.8306 77.7727 95.4102 77.5227C94.9925 77.2727 94.6616 76.9091 94.4173 76.4318C94.1758 75.9545 94.055 75.375 94.055 74.6932C94.055 74.0227 94.1729 73.4389 94.4087 72.9418C94.6445 72.4418 94.9727 72.0554 95.3931 71.7827C95.8136 71.5071 96.2994 71.3693 96.8505 71.3693C97.2766 71.3693 97.6147 71.4403 97.8647 71.5824C98.1175 71.7216 98.3107 71.8807 98.4442 72.0597C98.5806 72.2358 98.6857 72.3807 98.7596 72.4943H98.8619V71.4545H99.8335V78.1875C99.8335 78.75 99.7056 79.2074 99.4499 79.5597C99.1971 79.9148 98.8562 80.1747 98.4272 80.3395C98.0011 80.5071 97.5266 80.5909 97.0039 80.5909ZM96.9698 76.9943C97.3732 76.9943 97.7141 76.902 97.9925 76.7173C98.271 76.5327 98.4826 76.267 98.6275 75.9205C98.7724 75.5739 98.8448 75.1591 98.8448 74.6761C98.8448 74.2045 98.7738 73.7884 98.6317 73.4276C98.4897 73.0668 98.2795 72.7841 98.0011 72.5795C97.7227 72.375 97.3789 72.2727 96.9698 72.2727C96.5437 72.2727 96.1886 72.3807 95.9045 72.5966C95.6232 72.8125 95.4116 73.1023 95.2695 73.4659C95.1303 73.8295 95.0607 74.233 95.0607 74.6761C95.0607 75.1307 95.1317 75.5327 95.2738 75.8821C95.4187 76.2287 95.6317 76.5014 95.913 76.7003C96.1971 76.8963 96.5494 76.9943 96.9698 76.9943ZM104.419 78.1364C103.788 78.1364 103.244 77.9972 102.787 77.7188C102.332 77.4375 101.981 77.0455 101.734 76.5426C101.49 76.0369 101.368 75.4489 101.368 74.7784C101.368 74.108 101.49 73.517 101.734 73.0057C101.981 72.4915 102.325 72.0909 102.765 71.804C103.208 71.5142 103.725 71.3693 104.316 71.3693C104.657 71.3693 104.994 71.4261 105.326 71.5398C105.659 71.6534 105.961 71.8381 106.234 72.0938C106.507 72.3466 106.724 72.6818 106.886 73.0994C107.048 73.517 107.129 74.0312 107.129 74.642V75.0682H102.083V74.1989H106.106C106.106 73.8295 106.032 73.5 105.885 73.2102C105.74 72.9205 105.532 72.6918 105.262 72.5241C104.995 72.3565 104.68 72.2727 104.316 72.2727C103.916 72.2727 103.569 72.3722 103.277 72.571C102.987 72.767 102.764 73.0227 102.608 73.3381C102.451 73.6534 102.373 73.9915 102.373 74.3523V74.9318C102.373 75.4261 102.458 75.8452 102.629 76.1889C102.802 76.5298 103.042 76.7898 103.349 76.9688C103.656 77.1449 104.012 77.233 104.419 77.233C104.683 77.233 104.922 77.196 105.135 77.1222C105.35 77.0455 105.537 76.9318 105.693 76.7812C105.849 76.6278 105.97 76.4375 106.055 76.2102L107.027 76.483C106.924 76.8125 106.752 77.1023 106.511 77.3523C106.27 77.5994 105.971 77.7926 105.616 77.9318C105.261 78.0682 104.862 78.1364 104.419 78.1364ZM108.659 78V71.4545H109.63V72.4773H109.716C109.852 72.1278 110.072 71.8565 110.376 71.6634C110.68 71.4673 111.045 71.3693 111.471 71.3693C111.903 71.3693 112.262 71.4673 112.549 71.6634C112.839 71.8565 113.065 72.1278 113.227 72.4773H113.295C113.463 72.1392 113.714 71.8707 114.049 71.6719C114.385 71.4702 114.787 71.3693 115.255 71.3693C115.841 71.3693 116.319 71.5526 116.691 71.919C117.064 72.2827 117.25 72.8494 117.25 73.6193V78H116.244V73.6193C116.244 73.1364 116.112 72.7912 115.848 72.5838C115.583 72.3764 115.272 72.2727 114.914 72.2727C114.454 72.2727 114.098 72.4119 113.845 72.6903C113.592 72.9659 113.466 73.3153 113.466 73.7386V78H112.443V73.517C112.443 73.1449 112.322 72.8452 112.081 72.6179C111.839 72.3878 111.528 72.2727 111.147 72.2727C110.886 72.2727 110.642 72.3423 110.414 72.4815C110.19 72.6207 110.008 72.8139 109.869 73.0611C109.733 73.3054 109.664 73.5881 109.664 73.9091V78H108.659ZM121.833 78.1364C121.202 78.1364 120.658 77.9972 120.201 77.7188C119.746 77.4375 119.395 77.0455 119.148 76.5426C118.904 76.0369 118.782 75.4489 118.782 74.7784C118.782 74.108 118.904 73.517 119.148 73.0057C119.395 72.4915 119.739 72.0909 120.179 71.804C120.623 71.5142 121.14 71.3693 121.73 71.3693C122.071 71.3693 122.408 71.4261 122.74 71.5398C123.073 71.6534 123.375 71.8381 123.648 72.0938C123.921 72.3466 124.138 72.6818 124.3 73.0994C124.462 73.517 124.543 74.0312 124.543 74.642V75.0682H119.498V74.1989H123.52C123.52 73.8295 123.446 73.5 123.299 73.2102C123.154 72.9205 122.946 72.6918 122.676 72.5241C122.409 72.3565 122.094 72.2727 121.73 72.2727C121.33 72.2727 120.983 72.3722 120.691 72.571C120.401 72.767 120.178 73.0227 120.022 73.3381C119.865 73.6534 119.787 73.9915 119.787 74.3523V74.9318C119.787 75.4261 119.873 75.8452 120.043 76.1889C120.216 76.5298 120.456 76.7898 120.763 76.9688C121.07 77.1449 121.426 77.233 121.833 77.233C122.097 77.233 122.336 77.196 122.549 77.1222C122.765 77.0455 122.951 76.9318 123.107 76.7812C123.263 76.6278 123.384 76.4375 123.469 76.2102L124.441 76.483C124.338 76.8125 124.167 77.1023 123.925 77.3523C123.684 77.5994 123.385 77.7926 123.03 77.9318C122.675 78.0682 122.276 78.1364 121.833 78.1364ZM127.078 74.0625V78H126.073V71.4545H127.044V72.4773H127.13C127.283 72.1449 127.516 71.8778 127.828 71.6761C128.141 71.4716 128.544 71.3693 129.039 71.3693C129.482 71.3693 129.87 71.4602 130.202 71.642C130.534 71.821 130.793 72.0938 130.978 72.4602C131.162 72.8239 131.255 73.2841 131.255 73.8409V78H130.249V73.9091C130.249 73.3949 130.115 72.9943 129.848 72.7074C129.581 72.4176 129.215 72.2727 128.749 72.2727C128.428 72.2727 128.141 72.3423 127.888 72.4815C127.638 72.6207 127.441 72.8239 127.296 73.0909C127.151 73.358 127.078 73.6818 127.078 74.0625ZM135.939 71.4545V72.3068H132.547V71.4545H135.939ZM133.536 69.8864H134.541V76.125C134.541 76.4091 134.582 76.6222 134.665 76.7642C134.75 76.9034 134.858 76.9972 134.989 77.0455C135.122 77.0909 135.263 77.1136 135.411 77.1136C135.521 77.1136 135.612 77.108 135.683 77.0966C135.754 77.0824 135.811 77.071 135.854 77.0625L136.058 77.9659C135.99 77.9915 135.895 78.017 135.773 78.0426C135.651 78.071 135.496 78.0852 135.308 78.0852C135.024 78.0852 134.746 78.0241 134.473 77.902C134.203 77.7798 133.979 77.5938 133.8 77.3438C133.624 77.0938 133.536 76.7784 133.536 76.3977V69.8864Z" fill="black"/>
<rect x="169" y="36" width="124" height="192" fill="#509FCB"/>
<path d="M186.254 141V132.273H189.203C189.888 132.273 190.447 132.396 190.882 132.643C191.319 132.888 191.643 133.219 191.854 133.636C192.064 134.054 192.169 134.52 192.169 135.034C192.169 135.548 192.064 136.016 191.854 136.436C191.646 136.857 191.325 137.192 190.89 137.442C190.456 137.689 189.899 137.812 189.22 137.812H187.106V136.875H189.186C189.655 136.875 190.031 136.794 190.315 136.632C190.599 136.47 190.805 136.251 190.933 135.976C191.064 135.697 191.129 135.384 191.129 135.034C191.129 134.685 191.064 134.372 190.933 134.097C190.805 133.821 190.598 133.605 190.311 133.449C190.024 133.29 189.643 133.21 189.169 133.21H187.311V141H186.254ZM193.735 141V134.455H194.706V135.443H194.775C194.894 135.119 195.11 134.857 195.422 134.655C195.735 134.453 196.087 134.352 196.479 134.352C196.553 134.352 196.645 134.354 196.756 134.357C196.867 134.359 196.951 134.364 197.008 134.369V135.392C196.974 135.384 196.895 135.371 196.773 135.354C196.654 135.334 196.528 135.324 196.394 135.324C196.076 135.324 195.792 135.391 195.542 135.524C195.295 135.655 195.099 135.837 194.954 136.07C194.812 136.3 194.741 136.562 194.741 136.858V141H193.735ZM198.2 141V134.455H199.205V141H198.2ZM198.711 133.364C198.515 133.364 198.346 133.297 198.204 133.163C198.065 133.03 197.995 132.869 197.995 132.682C197.995 132.494 198.065 132.334 198.204 132.2C198.346 132.067 198.515 132 198.711 132C198.907 132 199.075 132.067 199.214 132.2C199.356 132.334 199.427 132.494 199.427 132.682C199.427 132.869 199.356 133.03 199.214 133.163C199.075 133.297 198.907 133.364 198.711 133.364ZM201.047 141V134.455H202.019V135.477H202.104C202.241 135.128 202.461 134.857 202.765 134.663C203.069 134.467 203.434 134.369 203.86 134.369C204.292 134.369 204.651 134.467 204.938 134.663C205.228 134.857 205.454 135.128 205.616 135.477H205.684C205.851 135.139 206.103 134.871 206.438 134.672C206.773 134.47 207.175 134.369 207.644 134.369C208.229 134.369 208.708 134.553 209.08 134.919C209.452 135.283 209.638 135.849 209.638 136.619V141H208.633V136.619C208.633 136.136 208.501 135.791 208.236 135.584C207.972 135.376 207.661 135.273 207.303 135.273C206.843 135.273 206.486 135.412 206.233 135.69C205.981 135.966 205.854 136.315 205.854 136.739V141H204.831V136.517C204.831 136.145 204.711 135.845 204.469 135.618C204.228 135.388 203.917 135.273 203.536 135.273C203.275 135.273 203.03 135.342 202.803 135.482C202.579 135.621 202.397 135.814 202.258 136.061C202.121 136.305 202.053 136.588 202.053 136.909V141H201.047ZM214.221 141.136C213.591 141.136 213.047 140.997 212.589 140.719C212.135 140.438 211.784 140.045 211.537 139.543C211.292 139.037 211.17 138.449 211.17 137.778C211.17 137.108 211.292 136.517 211.537 136.006C211.784 135.491 212.128 135.091 212.568 134.804C213.011 134.514 213.528 134.369 214.119 134.369C214.46 134.369 214.797 134.426 215.129 134.54C215.461 134.653 215.764 134.838 216.037 135.094C216.309 135.347 216.527 135.682 216.689 136.099C216.851 136.517 216.932 137.031 216.932 137.642V138.068H211.886V137.199H215.909C215.909 136.83 215.835 136.5 215.687 136.21C215.542 135.92 215.335 135.692 215.065 135.524C214.798 135.357 214.483 135.273 214.119 135.273C213.719 135.273 213.372 135.372 213.079 135.571C212.79 135.767 212.567 136.023 212.41 136.338C212.254 136.653 212.176 136.991 212.176 137.352V137.932C212.176 138.426 212.261 138.845 212.432 139.189C212.605 139.53 212.845 139.79 213.152 139.969C213.459 140.145 213.815 140.233 214.221 140.233C214.486 140.233 214.724 140.196 214.937 140.122C215.153 140.045 215.339 139.932 215.496 139.781C215.652 139.628 215.773 139.437 215.858 139.21L216.829 139.483C216.727 139.812 216.555 140.102 216.314 140.352C216.072 140.599 215.774 140.793 215.419 140.932C215.064 141.068 214.665 141.136 214.221 141.136ZM227.189 134.455L224.768 141H223.746L221.325 134.455H222.416L224.223 139.67H224.291L226.098 134.455H227.189ZM228.516 141V134.455H229.522V141H228.516ZM229.028 133.364C228.831 133.364 228.662 133.297 228.52 133.163C228.381 133.03 228.312 132.869 228.312 132.682C228.312 132.494 228.381 132.334 228.52 132.2C228.662 132.067 228.831 132 229.028 132C229.224 132 229.391 132.067 229.53 132.2C229.672 132.334 229.743 132.494 229.743 132.682C229.743 132.869 229.672 133.03 229.53 133.163C229.391 133.297 229.224 133.364 229.028 133.364ZM233.835 141.136C233.29 141.136 232.808 140.999 232.391 140.723C231.973 140.445 231.646 140.053 231.411 139.547C231.175 139.038 231.057 138.438 231.057 137.744C231.057 137.057 231.175 136.46 231.411 135.955C231.646 135.449 231.975 135.058 232.395 134.783C232.816 134.507 233.301 134.369 233.852 134.369C234.279 134.369 234.615 134.44 234.862 134.582C235.112 134.722 235.303 134.881 235.433 135.06C235.567 135.236 235.671 135.381 235.744 135.494H235.83V132.273H236.835V141H235.864V139.994H235.744C235.671 140.114 235.566 140.264 235.429 140.446C235.293 140.625 235.098 140.786 234.845 140.928C234.593 141.067 234.256 141.136 233.835 141.136ZM233.972 140.233C234.375 140.233 234.716 140.128 234.994 139.918C235.273 139.705 235.485 139.411 235.629 139.036C235.774 138.658 235.847 138.222 235.847 137.727C235.847 137.239 235.776 136.811 235.634 136.445C235.492 136.075 235.281 135.788 235.003 135.584C234.725 135.376 234.381 135.273 233.972 135.273C233.546 135.273 233.191 135.382 232.906 135.601C232.625 135.817 232.414 136.111 232.271 136.483C232.132 136.852 232.063 137.267 232.063 137.727C232.063 138.193 232.134 138.616 232.276 138.997C232.421 139.375 232.634 139.676 232.915 139.901C233.199 140.122 233.551 140.233 233.972 140.233ZM241.561 141.136C240.931 141.136 240.387 140.997 239.929 140.719C239.475 140.438 239.124 140.045 238.877 139.543C238.632 139.037 238.51 138.449 238.51 137.778C238.51 137.108 238.632 136.517 238.877 136.006C239.124 135.491 239.468 135.091 239.908 134.804C240.351 134.514 240.868 134.369 241.459 134.369C241.8 134.369 242.137 134.426 242.469 134.54C242.801 134.653 243.104 134.838 243.377 135.094C243.649 135.347 243.867 135.682 244.029 136.099C244.191 136.517 244.271 137.031 244.271 137.642V138.068H239.226V137.199H243.249C243.249 136.83 243.175 136.5 243.027 136.21C242.882 135.92 242.675 135.692 242.405 135.524C242.138 135.357 241.823 135.273 241.459 135.273C241.058 135.273 240.712 135.372 240.419 135.571C240.129 135.767 239.906 136.023 239.75 136.338C239.594 136.653 239.516 136.991 239.516 137.352V137.932C239.516 138.426 239.601 138.845 239.771 139.189C239.945 139.53 240.185 139.79 240.492 139.969C240.798 140.145 241.155 140.233 241.561 140.233C241.825 140.233 242.064 140.196 242.277 140.122C242.493 140.045 242.679 139.932 242.835 139.781C242.992 139.628 243.112 139.437 243.198 139.21L244.169 139.483C244.067 139.812 243.895 140.102 243.654 140.352C243.412 140.599 243.114 140.793 242.759 140.932C242.404 141.068 242.004 141.136 241.561 141.136ZM248.46 141.136C247.869 141.136 247.351 140.996 246.905 140.714C246.462 140.433 246.115 140.04 245.865 139.534C245.618 139.028 245.494 138.437 245.494 137.761C245.494 137.08 245.618 136.484 245.865 135.976C246.115 135.467 246.462 135.072 246.905 134.791C247.351 134.51 247.869 134.369 248.46 134.369C249.051 134.369 249.568 134.51 250.012 134.791C250.458 135.072 250.804 135.467 251.051 135.976C251.301 136.484 251.426 137.08 251.426 137.761C251.426 138.437 251.301 139.028 251.051 139.534C250.804 140.04 250.458 140.433 250.012 140.714C249.568 140.996 249.051 141.136 248.46 141.136ZM248.46 140.233C248.909 140.233 249.279 140.118 249.568 139.888C249.858 139.658 250.073 139.355 250.212 138.98C250.351 138.605 250.421 138.199 250.421 137.761C250.421 137.324 250.351 136.916 250.212 136.538C250.073 136.161 249.858 135.855 249.568 135.622C249.279 135.389 248.909 135.273 248.46 135.273C248.012 135.273 247.642 135.389 247.352 135.622C247.063 135.855 246.848 136.161 246.709 136.538C246.57 136.916 246.5 137.324 246.5 137.761C246.5 138.199 246.57 138.605 246.709 138.98C246.848 139.355 247.063 139.658 247.352 139.888C247.642 140.118 248.012 140.233 248.46 140.233ZM258.263 141.153C257.848 141.153 257.471 141.075 257.133 140.919C256.795 140.76 256.527 140.531 256.328 140.233C256.129 139.932 256.03 139.568 256.03 139.142C256.03 138.767 256.104 138.463 256.251 138.23C256.399 137.994 256.596 137.81 256.844 137.676C257.091 137.543 257.363 137.443 257.662 137.378C257.963 137.31 258.265 137.256 258.569 137.216C258.967 137.165 259.29 137.126 259.537 137.101C259.787 137.072 259.969 137.026 260.082 136.96C260.199 136.895 260.257 136.781 260.257 136.619V136.585C260.257 136.165 260.142 135.838 259.912 135.605C259.684 135.372 259.339 135.256 258.876 135.256C258.396 135.256 258.02 135.361 257.747 135.571C257.474 135.781 257.282 136.006 257.172 136.244L256.217 135.903C256.388 135.506 256.615 135.196 256.899 134.974C257.186 134.75 257.498 134.594 257.836 134.506C258.177 134.415 258.513 134.369 258.842 134.369C259.052 134.369 259.294 134.395 259.567 134.446C259.842 134.494 260.108 134.595 260.363 134.749C260.622 134.902 260.836 135.134 261.007 135.443C261.177 135.753 261.263 136.168 261.263 136.688V141H260.257V140.114H260.206C260.138 140.256 260.024 140.408 259.865 140.57C259.706 140.732 259.494 140.869 259.23 140.983C258.966 141.097 258.643 141.153 258.263 141.153ZM258.416 140.25C258.814 140.25 259.149 140.172 259.422 140.016C259.697 139.859 259.905 139.658 260.044 139.411C260.186 139.163 260.257 138.903 260.257 138.631V137.71C260.214 137.761 260.121 137.808 259.976 137.851C259.834 137.891 259.669 137.926 259.481 137.957C259.297 137.986 259.116 138.011 258.94 138.034C258.767 138.054 258.626 138.071 258.518 138.085C258.257 138.119 258.013 138.175 257.785 138.251C257.561 138.325 257.379 138.437 257.24 138.588C257.104 138.736 257.035 138.937 257.035 139.193C257.035 139.543 257.165 139.807 257.423 139.986C257.684 140.162 258.015 140.25 258.416 140.25ZM263.098 143.455V134.455H264.07V135.494H264.189C264.263 135.381 264.365 135.236 264.496 135.06C264.629 134.881 264.82 134.722 265.067 134.582C265.317 134.44 265.655 134.369 266.081 134.369C266.632 134.369 267.118 134.507 267.539 134.783C267.959 135.058 268.287 135.449 268.523 135.955C268.759 136.46 268.877 137.057 268.877 137.744C268.877 138.438 268.759 139.038 268.523 139.547C268.287 140.053 267.96 140.445 267.543 140.723C267.125 140.999 266.644 141.136 266.098 141.136C265.678 141.136 265.341 141.067 265.088 140.928C264.835 140.786 264.641 140.625 264.504 140.446C264.368 140.264 264.263 140.114 264.189 139.994H264.104V143.455H263.098ZM264.087 137.727C264.087 138.222 264.159 138.658 264.304 139.036C264.449 139.411 264.661 139.705 264.939 139.918C265.218 140.128 265.558 140.233 265.962 140.233C266.382 140.233 266.733 140.122 267.014 139.901C267.298 139.676 267.512 139.375 267.654 138.997C267.798 138.616 267.871 138.193 267.871 137.727C267.871 137.267 267.8 136.852 267.658 136.483C267.519 136.111 267.307 135.817 267.023 135.601C266.742 135.382 266.388 135.273 265.962 135.273C265.553 135.273 265.209 135.376 264.931 135.584C264.652 135.788 264.442 136.075 264.3 136.445C264.158 136.811 264.087 137.239 264.087 137.727ZM270.411 143.455V134.455H271.382V135.494H271.502C271.575 135.381 271.678 135.236 271.808 135.06C271.942 134.881 272.132 134.722 272.379 134.582C272.629 134.44 272.968 134.369 273.394 134.369C273.945 134.369 274.431 134.507 274.851 134.783C275.271 135.058 275.6 135.449 275.835 135.955C276.071 136.46 276.189 137.057 276.189 137.744C276.189 138.438 276.071 139.038 275.835 139.547C275.6 140.053 275.273 140.445 274.855 140.723C274.438 140.999 273.956 141.136 273.411 141.136C272.99 141.136 272.654 141.067 272.401 140.928C272.148 140.786 271.953 140.625 271.817 140.446C271.681 140.264 271.575 140.114 271.502 139.994H271.416V143.455H270.411ZM271.399 137.727C271.399 138.222 271.472 138.658 271.617 139.036C271.762 139.411 271.973 139.705 272.252 139.918C272.53 140.128 272.871 140.233 273.274 140.233C273.695 140.233 274.046 140.122 274.327 139.901C274.611 139.676 274.824 139.375 274.966 138.997C275.111 138.616 275.183 138.193 275.183 137.727C275.183 137.267 275.112 136.852 274.97 136.483C274.831 136.111 274.619 135.817 274.335 135.601C274.054 135.382 273.7 135.273 273.274 135.273C272.865 135.273 272.521 135.376 272.243 135.584C271.965 135.788 271.754 136.075 271.612 136.445C271.47 136.811 271.399 137.239 271.399 137.727Z" fill="black"/>
</svg>
