<svg width="330" height="357" viewBox="0 0 330 357" fill="none" xmlns="http://www.w3.org/2000/svg">
<rect x="169" y="246" width="124" height="60" fill="#C4C4C4"/>
<path d="M194.505 271.273H195.562V277.511C195.562 278.068 195.46 278.541 195.255 278.93C195.051 279.32 194.762 279.615 194.39 279.817C194.018 280.018 193.579 280.119 193.073 280.119C192.596 280.119 192.171 280.033 191.799 279.859C191.427 279.683 191.134 279.433 190.921 279.109C190.708 278.786 190.602 278.401 190.602 277.955H191.642C191.642 278.202 191.703 278.418 191.825 278.602C191.95 278.784 192.12 278.926 192.336 279.028C192.552 279.131 192.798 279.182 193.073 279.182C193.377 279.182 193.636 279.118 193.849 278.99C194.062 278.862 194.224 278.675 194.335 278.428C194.448 278.178 194.505 277.872 194.505 277.511V271.273ZM199.47 280.153C199.055 280.153 198.678 280.075 198.34 279.919C198.002 279.76 197.734 279.531 197.535 279.233C197.336 278.932 197.237 278.568 197.237 278.142C197.237 277.767 197.311 277.463 197.458 277.23C197.606 276.994 197.803 276.81 198.051 276.676C198.298 276.543 198.57 276.443 198.869 276.378C199.17 276.31 199.472 276.256 199.776 276.216C200.174 276.165 200.497 276.126 200.744 276.101C200.994 276.072 201.176 276.026 201.289 275.96C201.406 275.895 201.464 275.781 201.464 275.619V275.585C201.464 275.165 201.349 274.838 201.119 274.605C200.892 274.372 200.546 274.256 200.083 274.256C199.603 274.256 199.227 274.361 198.954 274.571C198.681 274.781 198.49 275.006 198.379 275.244L197.424 274.903C197.595 274.506 197.822 274.196 198.106 273.974C198.393 273.75 198.705 273.594 199.044 273.506C199.384 273.415 199.72 273.369 200.049 273.369C200.259 273.369 200.501 273.395 200.774 273.446C201.049 273.494 201.315 273.595 201.57 273.749C201.829 273.902 202.044 274.134 202.214 274.443C202.384 274.753 202.47 275.168 202.47 275.688V280H201.464V279.114H201.413C201.345 279.256 201.231 279.408 201.072 279.57C200.913 279.732 200.701 279.869 200.437 279.983C200.173 280.097 199.85 280.153 199.47 280.153ZM199.623 279.25C200.021 279.25 200.356 279.172 200.629 279.016C200.904 278.859 201.112 278.658 201.251 278.411C201.393 278.163 201.464 277.903 201.464 277.631V276.71C201.421 276.761 201.328 276.808 201.183 276.851C201.041 276.891 200.876 276.926 200.688 276.957C200.504 276.986 200.323 277.011 200.147 277.034C199.974 277.054 199.833 277.071 199.725 277.085C199.464 277.119 199.22 277.175 198.992 277.251C198.768 277.325 198.586 277.437 198.447 277.588C198.311 277.736 198.242 277.937 198.242 278.193C198.242 278.543 198.372 278.807 198.63 278.986C198.892 279.162 199.222 279.25 199.623 279.25ZM209.423 273.455L207.003 280H205.98L203.559 273.455H204.65L206.457 278.67H206.525L208.332 273.455H209.423ZM212.477 280.153C212.063 280.153 211.686 280.075 211.348 279.919C211.01 279.76 210.742 279.531 210.543 279.233C210.344 278.932 210.244 278.568 210.244 278.142C210.244 277.767 210.318 277.463 210.466 277.23C210.614 276.994 210.811 276.81 211.058 276.676C211.306 276.543 211.578 276.443 211.877 276.378C212.178 276.31 212.48 276.256 212.784 276.216C213.182 276.165 213.504 276.126 213.752 276.101C214.002 276.072 214.183 276.026 214.297 275.96C214.414 275.895 214.472 275.781 214.472 275.619V275.585C214.472 275.165 214.357 274.838 214.127 274.605C213.899 274.372 213.554 274.256 213.091 274.256C212.611 274.256 212.235 274.361 211.962 274.571C211.689 274.781 211.497 275.006 211.387 275.244L210.432 274.903C210.602 274.506 210.83 274.196 211.114 273.974C211.401 273.75 211.713 273.594 212.051 273.506C212.392 273.415 212.727 273.369 213.057 273.369C213.267 273.369 213.509 273.395 213.781 273.446C214.057 273.494 214.323 273.595 214.578 273.749C214.837 273.902 215.051 274.134 215.222 274.443C215.392 274.753 215.477 275.168 215.477 275.688V280H214.472V279.114H214.421C214.352 279.256 214.239 279.408 214.08 279.57C213.921 279.732 213.709 279.869 213.445 279.983C213.181 280.097 212.858 280.153 212.477 280.153ZM212.631 279.25C213.029 279.25 213.364 279.172 213.637 279.016C213.912 278.859 214.119 278.658 214.259 278.411C214.401 278.163 214.472 277.903 214.472 277.631V276.71C214.429 276.761 214.335 276.808 214.191 276.851C214.048 276.891 213.884 276.926 213.696 276.957C213.512 276.986 213.331 277.011 213.155 277.034C212.982 277.054 212.841 277.071 212.733 277.085C212.472 277.119 212.227 277.175 212 277.251C211.776 277.325 211.594 277.437 211.455 277.588C211.318 277.736 211.25 277.937 211.25 278.193C211.25 278.543 211.379 278.807 211.638 278.986C211.899 279.162 212.23 279.25 212.631 279.25ZM222.222 273.455C222.171 273.023 221.964 272.688 221.6 272.449C221.236 272.21 220.79 272.091 220.262 272.091C219.876 272.091 219.537 272.153 219.248 272.278C218.961 272.403 218.736 272.575 218.574 272.794C218.415 273.013 218.336 273.261 218.336 273.54C218.336 273.773 218.391 273.973 218.502 274.141C218.616 274.305 218.76 274.443 218.937 274.554C219.113 274.662 219.297 274.751 219.491 274.822C219.684 274.891 219.861 274.946 220.023 274.989L220.91 275.227C221.137 275.287 221.39 275.369 221.668 275.474C221.949 275.58 222.218 275.723 222.474 275.905C222.732 276.084 222.945 276.314 223.113 276.595C223.28 276.876 223.364 277.222 223.364 277.631C223.364 278.102 223.241 278.528 222.993 278.909C222.749 279.29 222.391 279.592 221.92 279.817C221.451 280.041 220.881 280.153 220.211 280.153C219.586 280.153 219.045 280.053 218.587 279.851C218.133 279.649 217.775 279.368 217.513 279.007C217.255 278.646 217.108 278.227 217.074 277.75H218.165C218.194 278.08 218.305 278.352 218.498 278.568C218.694 278.781 218.941 278.94 219.239 279.045C219.54 279.148 219.864 279.199 220.211 279.199C220.614 279.199 220.976 279.134 221.297 279.003C221.618 278.869 221.873 278.685 222.06 278.449C222.248 278.21 222.341 277.932 222.341 277.614C222.341 277.324 222.26 277.088 222.099 276.906C221.937 276.724 221.724 276.577 221.459 276.463C221.195 276.349 220.91 276.25 220.603 276.165L219.529 275.858C218.847 275.662 218.307 275.382 217.91 275.018C217.512 274.655 217.313 274.179 217.313 273.591C217.313 273.102 217.445 272.676 217.709 272.312C217.976 271.946 218.334 271.662 218.783 271.46C219.235 271.256 219.739 271.153 220.296 271.153C220.858 271.153 221.358 271.254 221.796 271.456C222.233 271.655 222.58 271.928 222.836 272.274C223.094 272.621 223.231 273.014 223.245 273.455H222.222ZM227.624 280.136C227.011 280.136 226.482 279.991 226.039 279.702C225.596 279.412 225.255 279.013 225.017 278.504C224.778 277.996 224.659 277.415 224.659 276.761C224.659 276.097 224.781 275.51 225.025 275.001C225.272 274.49 225.616 274.091 226.056 273.804C226.499 273.514 227.017 273.369 227.607 273.369C228.068 273.369 228.482 273.455 228.852 273.625C229.221 273.795 229.524 274.034 229.759 274.341C229.995 274.648 230.142 275.006 230.198 275.415H229.193C229.116 275.116 228.945 274.852 228.681 274.622C228.42 274.389 228.068 274.273 227.624 274.273C227.232 274.273 226.889 274.375 226.593 274.58C226.301 274.781 226.072 275.067 225.907 275.436C225.745 275.803 225.664 276.233 225.664 276.727C225.664 277.233 225.744 277.673 225.903 278.048C226.065 278.423 226.292 278.714 226.585 278.922C226.88 279.129 227.227 279.233 227.624 279.233C227.886 279.233 228.123 279.188 228.336 279.097C228.549 279.006 228.73 278.875 228.877 278.705C229.025 278.534 229.13 278.33 229.193 278.091H230.198C230.142 278.477 230.001 278.825 229.776 279.135C229.555 279.442 229.261 279.686 228.894 279.868C228.531 280.047 228.107 280.136 227.624 280.136ZM231.669 280V273.455H232.64V274.443H232.708C232.828 274.119 233.044 273.857 233.356 273.655C233.669 273.453 234.021 273.352 234.413 273.352C234.487 273.352 234.579 273.354 234.69 273.357C234.801 273.359 234.884 273.364 234.941 273.369V274.392C234.907 274.384 234.829 274.371 234.707 274.354C234.588 274.334 234.461 274.324 234.328 274.324C234.009 274.324 233.725 274.391 233.475 274.524C233.228 274.655 233.032 274.837 232.887 275.07C232.745 275.3 232.674 275.562 232.674 275.858V280H231.669ZM236.133 280V273.455H237.139V280H236.133ZM236.645 272.364C236.449 272.364 236.28 272.297 236.138 272.163C235.998 272.03 235.929 271.869 235.929 271.682C235.929 271.494 235.998 271.334 236.138 271.2C236.28 271.067 236.449 271 236.645 271C236.841 271 237.008 271.067 237.148 271.2C237.29 271.334 237.361 271.494 237.361 271.682C237.361 271.869 237.29 272.03 237.148 272.163C237.008 272.297 236.841 272.364 236.645 272.364ZM238.981 282.455V273.455H239.953V274.494H240.072C240.146 274.381 240.248 274.236 240.379 274.06C240.512 273.881 240.703 273.722 240.95 273.582C241.2 273.44 241.538 273.369 241.964 273.369C242.515 273.369 243.001 273.507 243.421 273.783C243.842 274.058 244.17 274.449 244.406 274.955C244.642 275.46 244.759 276.057 244.759 276.744C244.759 277.438 244.642 278.038 244.406 278.547C244.17 279.053 243.843 279.445 243.426 279.723C243.008 279.999 242.526 280.136 241.981 280.136C241.561 280.136 241.224 280.067 240.971 279.928C240.718 279.786 240.524 279.625 240.387 279.446C240.251 279.264 240.146 279.114 240.072 278.994H239.987V282.455H238.981ZM239.97 276.727C239.97 277.222 240.042 277.658 240.187 278.036C240.332 278.411 240.544 278.705 240.822 278.918C241.1 279.128 241.441 279.233 241.845 279.233C242.265 279.233 242.616 279.122 242.897 278.901C243.181 278.676 243.394 278.375 243.536 277.997C243.681 277.616 243.754 277.193 243.754 276.727C243.754 276.267 243.683 275.852 243.541 275.483C243.401 275.111 243.19 274.817 242.906 274.601C242.624 274.382 242.271 274.273 241.845 274.273C241.436 274.273 241.092 274.376 240.813 274.584C240.535 274.788 240.325 275.075 240.183 275.445C240.041 275.811 239.97 276.239 239.97 276.727ZM249.14 273.455V274.307H245.748V273.455H249.14ZM246.737 271.886H247.742V278.125C247.742 278.409 247.784 278.622 247.866 278.764C247.951 278.903 248.059 278.997 248.19 279.045C248.323 279.091 248.464 279.114 248.612 279.114C248.722 279.114 248.813 279.108 248.884 279.097C248.955 279.082 249.012 279.071 249.055 279.062L249.259 279.966C249.191 279.991 249.096 280.017 248.974 280.043C248.852 280.071 248.697 280.085 248.509 280.085C248.225 280.085 247.947 280.024 247.674 279.902C247.404 279.78 247.18 279.594 247.001 279.344C246.825 279.094 246.737 278.778 246.737 278.398V271.886ZM254.522 271.273L257.113 278.619H257.215L259.806 271.273H260.914L257.71 280H256.619L253.414 271.273H254.522ZM262.274 271.273H263.535L266.501 278.517H266.603L269.569 271.273H270.83V280H269.842V273.369H269.757L267.029 280H266.075L263.347 273.369H263.262V280H262.274V271.273Z" fill="black"/>
<rect x="37" y="246" width="124" height="60" fill="#C4C4C4"/>
<path d="M73.9409 280L71.5545 271.273H72.6284L74.4522 278.381H74.5375L76.3954 271.273H77.5886L79.4466 278.381H79.5318L81.3556 271.273H82.4295L80.0431 280H78.9522L77.0261 273.045H76.9579L75.0318 280H73.9409ZM84.9267 280.153C84.5119 280.153 84.1355 280.075 83.7974 279.919C83.4593 279.76 83.1909 279.531 82.992 279.233C82.7931 278.932 82.6937 278.568 82.6937 278.142C82.6937 277.767 82.7676 277.463 82.9153 277.23C83.063 276.994 83.2605 276.81 83.5076 276.676C83.7548 276.543 84.0275 276.443 84.3258 276.378C84.627 276.31 84.9295 276.256 85.2335 276.216C85.6312 276.165 85.9537 276.126 86.2008 276.101C86.4508 276.072 86.6326 276.026 86.7463 275.96C86.8627 275.895 86.921 275.781 86.921 275.619V275.585C86.921 275.165 86.8059 274.838 86.5758 274.605C86.3485 274.372 86.0034 274.256 85.5403 274.256C85.0602 274.256 84.6838 274.361 84.411 274.571C84.1383 274.781 83.9466 275.006 83.8358 275.244L82.8812 274.903C83.0517 274.506 83.2789 274.196 83.563 273.974C83.85 273.75 84.1625 273.594 84.5005 273.506C84.8414 273.415 85.1767 273.369 85.5062 273.369C85.7164 273.369 85.9579 273.395 86.2306 273.446C86.5062 273.494 86.7718 273.595 87.0275 273.749C87.286 273.902 87.5005 274.134 87.671 274.443C87.8414 274.753 87.9267 275.168 87.9267 275.688V280H86.921V279.114H86.8699C86.8017 279.256 86.688 279.408 86.5289 279.57C86.3699 279.732 86.1582 279.869 85.894 279.983C85.6298 280.097 85.3074 280.153 84.9267 280.153ZM85.0801 279.25C85.4778 279.25 85.813 279.172 86.0858 279.016C86.3613 278.859 86.5687 278.658 86.7079 278.411C86.85 278.163 86.921 277.903 86.921 277.631V276.71C86.8784 276.761 86.7846 276.808 86.6397 276.851C86.4977 276.891 86.3329 276.926 86.1454 276.957C85.9608 276.986 85.7804 277.011 85.6042 277.034C85.4309 277.054 85.2903 277.071 85.1824 277.085C84.921 277.119 84.6767 277.175 84.4494 277.251C84.225 277.325 84.0431 277.437 83.9039 277.588C83.7676 277.736 83.6994 277.937 83.6994 278.193C83.6994 278.543 83.8287 278.807 84.0872 278.986C84.3485 279.162 84.6795 279.25 85.0801 279.25ZM94.3986 274.92L93.4952 275.176C93.4384 275.026 93.3546 274.879 93.2438 274.737C93.1358 274.592 92.9881 274.473 92.8006 274.379C92.6131 274.286 92.373 274.239 92.0804 274.239C91.6799 274.239 91.3461 274.331 91.079 274.516C90.8148 274.697 90.6827 274.929 90.6827 275.21C90.6827 275.46 90.7736 275.658 90.9554 275.803C91.1373 275.947 91.4213 276.068 91.8077 276.165L92.7793 276.403C93.3645 276.545 93.8006 276.763 94.0875 277.055C94.3745 277.345 94.5179 277.719 94.5179 278.176C94.5179 278.551 94.41 278.886 94.1941 279.182C93.981 279.477 93.6827 279.71 93.2992 279.881C92.9157 280.051 92.4696 280.136 91.9611 280.136C91.2935 280.136 90.7409 279.991 90.3034 279.702C89.8659 279.412 89.589 278.989 89.4725 278.432L90.427 278.193C90.5179 278.545 90.6898 278.81 90.9426 278.986C91.1983 279.162 91.5321 279.25 91.9441 279.25C92.4128 279.25 92.785 279.151 93.0605 278.952C93.339 278.75 93.4782 278.509 93.4782 278.227C93.4782 278 93.3986 277.81 93.2395 277.656C93.0804 277.5 92.8361 277.384 92.5066 277.307L91.4157 277.051C90.8162 276.909 90.3759 276.689 90.0946 276.391C89.8162 276.089 89.677 275.713 89.677 275.261C89.677 274.892 89.7807 274.565 89.9881 274.281C90.1983 273.997 90.4838 273.774 90.8446 273.612C91.2083 273.45 91.6202 273.369 92.0804 273.369C92.7282 273.369 93.2367 273.511 93.606 273.795C93.9782 274.08 94.2424 274.455 94.3986 274.92ZM96.0318 280V273.455H97.0034V274.477H97.0886C97.225 274.128 97.4451 273.857 97.7491 273.663C98.0531 273.467 98.4181 273.369 98.8443 273.369C99.2761 273.369 99.6355 273.467 99.9224 273.663C100.212 273.857 100.438 274.128 100.6 274.477H100.668C100.836 274.139 101.087 273.871 101.422 273.672C101.758 273.47 102.16 273.369 102.628 273.369C103.214 273.369 103.692 273.553 104.064 273.919C104.437 274.283 104.623 274.849 104.623 275.619V280H103.617V275.619C103.617 275.136 103.485 274.791 103.221 274.584C102.956 274.376 102.645 274.273 102.287 274.273C101.827 274.273 101.471 274.412 101.218 274.69C100.965 274.966 100.839 275.315 100.839 275.739V280H99.8159V275.517C99.8159 275.145 99.6951 274.845 99.4537 274.618C99.2122 274.388 98.9011 274.273 98.5204 274.273C98.2591 274.273 98.0147 274.342 97.7875 274.482C97.563 274.621 97.3812 274.814 97.242 275.061C97.1056 275.305 97.0375 275.588 97.0375 275.909V280H96.0318ZM110.331 271.273L112.922 278.619H113.024L115.615 271.273H116.723L113.518 280H112.427L109.223 271.273H110.331ZM118.082 271.273H119.344L122.309 278.517H122.412L125.378 271.273H126.639V280H125.65V273.369H125.565L122.838 280H121.883L119.156 273.369H119.071V280H118.082V271.273Z" fill="black"/>
<path d="M45.0795 348H44.0227C43.9602 347.696 43.8509 347.429 43.6946 347.199C43.5412 346.969 43.3537 346.776 43.1321 346.619C42.9134 346.46 42.6705 346.341 42.4034 346.261C42.1364 346.182 41.858 346.142 41.5682 346.142C41.0398 346.142 40.5611 346.276 40.1321 346.543C39.706 346.81 39.3665 347.203 39.1136 347.723C38.8636 348.243 38.7386 348.881 38.7386 349.636C38.7386 350.392 38.8636 351.03 39.1136 351.55C39.3665 352.07 39.706 352.463 40.1321 352.73C40.5611 352.997 41.0398 353.131 41.5682 353.131C41.858 353.131 42.1364 353.091 42.4034 353.011C42.6705 352.932 42.9134 352.814 43.1321 352.658C43.3537 352.499 43.5412 352.304 43.6946 352.074C43.8509 351.841 43.9602 351.574 44.0227 351.273H45.0795C45 351.719 44.8551 352.118 44.6449 352.47C44.4347 352.822 44.1733 353.122 43.8608 353.369C43.5483 353.614 43.1974 353.8 42.8082 353.928C42.4219 354.055 42.0085 354.119 41.5682 354.119C40.8239 354.119 40.1619 353.938 39.5824 353.574C39.0028 353.21 38.5469 352.693 38.2145 352.023C37.8821 351.352 37.7159 350.557 37.7159 349.636C37.7159 348.716 37.8821 347.92 38.2145 347.25C38.5469 346.58 39.0028 346.062 39.5824 345.699C40.1619 345.335 40.8239 345.153 41.5682 345.153C42.0085 345.153 42.4219 345.217 42.8082 345.345C43.1974 345.473 43.5483 345.661 43.8608 345.908C44.1733 346.152 44.4347 346.45 44.6449 346.803C44.8551 347.152 45 347.551 45.0795 348ZM53.1112 344.864L50.2987 355.312H49.3782L52.1907 344.864H53.1112ZM64.8374 348H63.7805C63.718 347.696 63.6087 347.429 63.4524 347.199C63.299 346.969 63.1115 346.776 62.8899 346.619C62.6712 346.46 62.4283 346.341 62.1612 346.261C61.8942 346.182 61.6158 346.142 61.326 346.142C60.7976 346.142 60.3189 346.276 59.8899 346.543C59.4638 346.81 59.1243 347.203 58.8714 347.723C58.6214 348.243 58.4964 348.881 58.4964 349.636C58.4964 350.392 58.6214 351.03 58.8714 351.55C59.1243 352.07 59.4638 352.463 59.8899 352.73C60.3189 352.997 60.7976 353.131 61.326 353.131C61.6158 353.131 61.8942 353.091 62.1612 353.011C62.4283 352.932 62.6712 352.814 62.8899 352.658C63.1115 352.499 63.299 352.304 63.4524 352.074C63.6087 351.841 63.718 351.574 63.7805 351.273H64.8374C64.7578 351.719 64.6129 352.118 64.4027 352.47C64.1925 352.822 63.9311 353.122 63.6186 353.369C63.3061 353.614 62.9553 353.8 62.5661 353.928C62.1797 354.055 61.7663 354.119 61.326 354.119C60.5817 354.119 59.9197 353.938 59.3402 353.574C58.7607 353.21 58.3047 352.693 57.9723 352.023C57.6399 351.352 57.4737 350.557 57.4737 349.636C57.4737 348.716 57.6399 347.92 57.9723 347.25C58.3047 346.58 58.7607 346.062 59.3402 345.699C59.9197 345.335 60.5817 345.153 61.326 345.153C61.7663 345.153 62.1797 345.217 62.5661 345.345C62.9553 345.473 63.3061 345.661 63.6186 345.908C63.9311 346.152 64.1925 346.45 64.4027 346.803C64.6129 347.152 64.7578 347.551 64.8374 348ZM68.9656 352.466V346.841H69.9201V352.466H68.9656ZM66.6303 350.131V349.176H72.2553V350.131H66.6303ZM76.8757 352.466V346.841H77.8303V352.466H76.8757ZM74.5405 350.131V349.176H80.1655V350.131H74.5405Z" fill="black"/>
<path d="M39 280L33.559 278.069L34.6072 283.747L39 280ZM39.2322 336.557C32.5795 333.069 25.2819 328.564 19.0056 323.59C12.7189 318.607 7.50305 313.19 4.95521 307.885C3.68447 305.239 3.08859 302.645 3.33251 300.158C3.57573 297.677 4.65786 295.261 6.81721 292.968C11.1592 288.358 19.8419 284.265 34.6639 281.309L34.4683 280.328C19.5992 283.294 10.6539 287.436 6.08924 292.282C3.79526 294.718 2.6044 297.336 2.33728 300.06C2.07087 302.777 2.72729 305.556 4.05379 308.318C6.70042 313.828 12.0588 319.36 18.3845 324.374C24.7206 329.395 32.0735 333.932 38.7678 337.443L39.2322 336.557Z" fill="black"/>
<rect x="37" y="48" width="124" height="192" fill="#E3A03B"/>
<rect x="37" y="180" width="124" height="60" fill="#E3A03B"/>
<path d="M74.176 215V206.273H77.1248C77.8066 206.273 78.3663 206.389 78.8038 206.622C79.2413 206.852 79.5652 207.169 79.7754 207.572C79.9856 207.976 80.0907 208.435 80.0907 208.949C80.0907 209.463 79.9856 209.919 79.7754 210.317C79.5652 210.714 79.2427 211.027 78.8081 211.254C78.3734 211.479 77.818 211.591 77.1419 211.591H74.7555V210.636H77.1078C77.5737 210.636 77.9487 210.568 78.2328 210.432C78.5197 210.295 78.7271 210.102 78.8549 209.852C78.9856 209.599 79.051 209.298 79.051 208.949C79.051 208.599 78.9856 208.294 78.8549 208.033C78.7243 207.771 78.5154 207.57 78.2285 207.428C77.9416 207.283 77.5623 207.21 77.0907 207.21H75.2328V215H74.176ZM78.2839 211.08L80.4316 215H79.2044L77.0907 211.08H78.2839ZM84.3894 215.136C83.7587 215.136 83.2147 214.997 82.7573 214.719C82.3027 214.438 81.9519 214.045 81.7047 213.543C81.4604 213.037 81.3382 212.449 81.3382 211.778C81.3382 211.108 81.4604 210.517 81.7047 210.006C81.9519 209.491 82.2956 209.091 82.736 208.804C83.1792 208.514 83.6962 208.369 84.2871 208.369C84.628 208.369 84.9647 208.426 85.2971 208.54C85.6294 208.653 85.932 208.838 86.2047 209.094C86.4775 209.347 86.6948 209.682 86.8567 210.099C87.0186 210.517 87.0996 211.031 87.0996 211.642V212.068H82.0542V211.199H86.0769C86.0769 210.83 86.003 210.5 85.8553 210.21C85.7104 209.92 85.503 209.692 85.2331 209.524C84.9661 209.357 84.6507 209.273 84.2871 209.273C83.8865 209.273 83.54 209.372 83.2473 209.571C82.9576 209.767 82.7346 210.023 82.5783 210.338C82.4221 210.653 82.3439 210.991 82.3439 211.352V211.932C82.3439 212.426 82.4292 212.845 82.5996 213.189C82.7729 213.53 83.013 213.79 83.3198 213.969C83.6266 214.145 83.9831 214.233 84.3894 214.233C84.6536 214.233 84.8922 214.196 85.1053 214.122C85.3212 214.045 85.5073 213.932 85.6635 213.781C85.8198 213.628 85.9405 213.437 86.0257 213.21L86.9973 213.483C86.8951 213.812 86.7232 214.102 86.4817 214.352C86.2402 214.599 85.9419 214.793 85.5868 214.932C85.2317 215.068 84.8326 215.136 84.3894 215.136ZM89.6351 211.062V215H88.6294V208.455H89.601V209.477H89.6863C89.8397 209.145 90.0726 208.878 90.3851 208.676C90.6976 208.472 91.101 208.369 91.5953 208.369C92.0385 208.369 92.4263 208.46 92.7587 208.642C93.0911 208.821 93.3496 209.094 93.5343 209.46C93.7189 209.824 93.8113 210.284 93.8113 210.841V215H92.8056V210.909C92.8056 210.395 92.6721 209.994 92.405 209.707C92.138 209.418 91.7715 209.273 91.3056 209.273C90.9846 209.273 90.6976 209.342 90.4448 209.482C90.1948 209.621 89.9973 209.824 89.8525 210.091C89.7076 210.358 89.6351 210.682 89.6351 211.062ZM98.1206 215.136C97.5751 215.136 97.0936 214.999 96.676 214.723C96.2583 214.445 95.9316 214.053 95.6958 213.547C95.46 213.038 95.3422 212.438 95.3422 211.744C95.3422 211.057 95.46 210.46 95.6958 209.955C95.9316 209.449 96.2598 209.058 96.6802 208.783C97.1007 208.507 97.5865 208.369 98.1376 208.369C98.5637 208.369 98.9004 208.44 99.1475 208.582C99.3975 208.722 99.5879 208.881 99.7186 209.06C99.8521 209.236 99.9558 209.381 100.03 209.494H100.115V206.273H101.121V215H100.149V213.994H100.03C99.9558 214.114 99.8507 214.264 99.7143 214.446C99.5779 214.625 99.3833 214.786 99.1305 214.928C98.8777 215.067 98.541 215.136 98.1206 215.136ZM98.2569 214.233C98.6603 214.233 99.0012 214.128 99.2797 213.918C99.5581 213.705 99.7697 213.411 99.9146 213.036C100.059 212.658 100.132 212.222 100.132 211.727C100.132 211.239 100.061 210.811 99.9189 210.445C99.7768 210.075 99.5666 209.788 99.2882 209.584C99.0098 209.376 98.666 209.273 98.2569 209.273C97.8308 209.273 97.4757 209.382 97.1916 209.601C96.9103 209.817 96.6987 210.111 96.5566 210.483C96.4174 210.852 96.3478 211.267 96.3478 211.727C96.3478 212.193 96.4189 212.616 96.5609 212.997C96.7058 213.375 96.9189 213.676 97.2001 213.901C97.4842 214.122 97.8365 214.233 98.2569 214.233ZM105.846 215.136C105.216 215.136 104.672 214.997 104.214 214.719C103.76 214.438 103.409 214.045 103.162 213.543C102.917 213.037 102.795 212.449 102.795 211.778C102.795 211.108 102.917 210.517 103.162 210.006C103.409 209.491 103.753 209.091 104.193 208.804C104.636 208.514 105.153 208.369 105.744 208.369C106.085 208.369 106.422 208.426 106.754 208.54C107.086 208.653 107.389 208.838 107.662 209.094C107.934 209.347 108.152 209.682 108.314 210.099C108.476 210.517 108.557 211.031 108.557 211.642V212.068H103.511V211.199H107.534C107.534 210.83 107.46 210.5 107.312 210.21C107.167 209.92 106.96 209.692 106.69 209.524C106.423 209.357 106.108 209.273 105.744 209.273C105.344 209.273 104.997 209.372 104.704 209.571C104.415 209.767 104.192 210.023 104.035 210.338C103.879 210.653 103.801 210.991 103.801 211.352V211.932C103.801 212.426 103.886 212.845 104.057 213.189C104.23 213.53 104.47 213.79 104.777 213.969C105.084 214.145 105.44 214.233 105.846 214.233C106.111 214.233 106.349 214.196 106.562 214.122C106.778 214.045 106.964 213.932 107.121 213.781C107.277 213.628 107.398 213.437 107.483 213.21L108.454 213.483C108.352 213.812 108.18 214.102 107.939 214.352C107.697 214.599 107.399 214.793 107.044 214.932C106.689 215.068 106.29 215.136 105.846 215.136ZM110.086 215V208.455H111.058V209.443H111.126C111.246 209.119 111.461 208.857 111.774 208.655C112.086 208.453 112.439 208.352 112.831 208.352C112.905 208.352 112.997 208.354 113.108 208.357C113.219 208.359 113.302 208.364 113.359 208.369V209.392C113.325 209.384 113.247 209.371 113.125 209.354C113.006 209.334 112.879 209.324 112.746 209.324C112.427 209.324 112.143 209.391 111.893 209.524C111.646 209.655 111.45 209.837 111.305 210.07C111.163 210.3 111.092 210.562 111.092 210.858V215H110.086ZM117.096 215.136C116.466 215.136 115.922 214.997 115.464 214.719C115.01 214.438 114.659 214.045 114.412 213.543C114.167 213.037 114.045 212.449 114.045 211.778C114.045 211.108 114.167 210.517 114.412 210.006C114.659 209.491 115.003 209.091 115.443 208.804C115.886 208.514 116.403 208.369 116.994 208.369C117.335 208.369 117.672 208.426 118.004 208.54C118.336 208.653 118.639 208.838 118.912 209.094C119.184 209.347 119.402 209.682 119.564 210.099C119.726 210.517 119.807 211.031 119.807 211.642V212.068H114.761V211.199H118.784C118.784 210.83 118.71 210.5 118.562 210.21C118.417 209.92 118.21 209.692 117.94 209.524C117.673 209.357 117.358 209.273 116.994 209.273C116.594 209.273 116.247 209.372 115.954 209.571C115.665 209.767 115.442 210.023 115.285 210.338C115.129 210.653 115.051 210.991 115.051 211.352V211.932C115.051 212.426 115.136 212.845 115.307 213.189C115.48 213.53 115.72 213.79 116.027 213.969C116.334 214.145 116.69 214.233 117.096 214.233C117.361 214.233 117.599 214.196 117.812 214.122C118.028 214.045 118.214 213.932 118.371 213.781C118.527 213.628 118.648 213.437 118.733 213.21L119.704 213.483C119.602 213.812 119.43 214.102 119.189 214.352C118.947 214.599 118.649 214.793 118.294 214.932C117.939 215.068 117.54 215.136 117.096 215.136ZM121.336 215V208.455H122.308V209.443H122.376C122.496 209.119 122.711 208.857 123.024 208.655C123.336 208.453 123.689 208.352 124.081 208.352C124.155 208.352 124.247 208.354 124.358 208.357C124.469 208.359 124.552 208.364 124.609 208.369V209.392C124.575 209.384 124.497 209.371 124.375 209.354C124.256 209.334 124.129 209.324 123.996 209.324C123.677 209.324 123.393 209.391 123.143 209.524C122.896 209.655 122.7 209.837 122.555 210.07C122.413 210.3 122.342 210.562 122.342 210.858V215H121.336Z" fill="black"/>
<rect x="37" y="114" width="124" height="60" fill="#E3A03B"/>
<path d="M72.6374 149H71.5295L74.734 140.273H75.8249L79.0295 149H77.9215L75.3136 141.653H75.2454L72.6374 149ZM73.0465 145.591H77.5124V146.528H73.0465V145.591ZM81.2582 145.062V149H80.2525V142.455H81.2241V143.477H81.3093C81.4627 143.145 81.6957 142.878 82.0082 142.676C82.3207 142.472 82.7241 142.369 83.2184 142.369C83.6616 142.369 84.0494 142.46 84.3817 142.642C84.7141 142.821 84.9727 143.094 85.1573 143.46C85.342 143.824 85.4343 144.284 85.4343 144.841V149H84.4286V144.909C84.4286 144.395 84.2951 143.994 84.0281 143.707C83.761 143.418 83.3945 143.273 82.9286 143.273C82.6076 143.273 82.3207 143.342 82.0678 143.482C81.8178 143.621 81.6204 143.824 81.4755 144.091C81.3306 144.358 81.2582 144.682 81.2582 145.062ZM87.272 149V142.455H88.2777V149H87.272ZM87.7834 141.364C87.5874 141.364 87.4183 141.297 87.2763 141.163C87.1371 141.03 87.0675 140.869 87.0675 140.682C87.0675 140.494 87.1371 140.334 87.2763 140.2C87.4183 140.067 87.5874 140 87.7834 140C87.9794 140 88.147 140.067 88.2862 140.2C88.4283 140.334 88.4993 140.494 88.4993 140.682C88.4993 140.869 88.4283 141.03 88.2862 141.163C88.147 141.297 87.9794 141.364 87.7834 141.364ZM90.1197 149V142.455H91.0913V143.477H91.1765C91.3129 143.128 91.533 142.857 91.837 142.663C92.141 142.467 92.506 142.369 92.9322 142.369C93.364 142.369 93.7234 142.467 94.0103 142.663C94.3001 142.857 94.5259 143.128 94.6879 143.477H94.756C94.9237 143.139 95.1751 142.871 95.5103 142.672C95.8455 142.47 96.2475 142.369 96.7163 142.369C97.3015 142.369 97.7802 142.553 98.1523 142.919C98.5245 143.283 98.7106 143.849 98.7106 144.619V149H97.7049V144.619C97.7049 144.136 97.5728 143.791 97.3086 143.584C97.0444 143.376 96.7333 143.273 96.3754 143.273C95.9151 143.273 95.5586 143.412 95.3058 143.69C95.0529 143.966 94.9265 144.315 94.9265 144.739V149H93.9038V144.517C93.9038 144.145 93.783 143.845 93.5415 143.618C93.3001 143.388 92.989 143.273 92.6083 143.273C92.3469 143.273 92.1026 143.342 91.8754 143.482C91.6509 143.621 91.4691 143.814 91.3299 144.061C91.1935 144.305 91.1254 144.588 91.1254 144.909V149H90.1197ZM102.475 149.153C102.061 149.153 101.684 149.075 101.346 148.919C101.008 148.76 100.74 148.531 100.541 148.233C100.342 147.932 100.243 147.568 100.243 147.142C100.243 146.767 100.316 146.463 100.464 146.23C100.612 145.994 100.809 145.81 101.056 145.676C101.304 145.543 101.576 145.443 101.875 145.378C102.176 145.31 102.478 145.256 102.782 145.216C103.18 145.165 103.502 145.126 103.75 145.101C104 145.072 104.181 145.026 104.295 144.96C104.412 144.895 104.47 144.781 104.47 144.619V144.585C104.47 144.165 104.355 143.838 104.125 143.605C103.897 143.372 103.552 143.256 103.089 143.256C102.609 143.256 102.233 143.361 101.96 143.571C101.687 143.781 101.495 144.006 101.385 144.244L100.43 143.903C100.6 143.506 100.828 143.196 101.112 142.974C101.399 142.75 101.711 142.594 102.049 142.506C102.39 142.415 102.725 142.369 103.055 142.369C103.265 142.369 103.507 142.395 103.779 142.446C104.055 142.494 104.321 142.595 104.576 142.749C104.835 142.902 105.049 143.134 105.22 143.443C105.39 143.753 105.475 144.168 105.475 144.688V149H104.47V148.114H104.419C104.35 148.256 104.237 148.408 104.078 148.57C103.919 148.732 103.707 148.869 103.443 148.983C103.179 149.097 102.856 149.153 102.475 149.153ZM102.629 148.25C103.027 148.25 103.362 148.172 103.635 148.016C103.91 147.859 104.118 147.658 104.257 147.411C104.399 147.163 104.47 146.903 104.47 146.631V145.71C104.427 145.761 104.333 145.808 104.189 145.851C104.047 145.891 103.882 145.926 103.694 145.957C103.51 145.986 103.329 146.011 103.153 146.034C102.98 146.054 102.839 146.071 102.731 146.085C102.47 146.119 102.225 146.175 101.998 146.251C101.774 146.325 101.592 146.437 101.453 146.588C101.316 146.736 101.248 146.937 101.248 147.193C101.248 147.543 101.377 147.807 101.636 147.986C101.897 148.162 102.228 148.25 102.629 148.25ZM110.158 142.455V143.307H106.766V142.455H110.158ZM107.754 140.886H108.76V147.125C108.76 147.409 108.801 147.622 108.884 147.764C108.969 147.903 109.077 147.997 109.207 148.045C109.341 148.091 109.482 148.114 109.629 148.114C109.74 148.114 109.831 148.108 109.902 148.097C109.973 148.082 110.03 148.071 110.072 148.062L110.277 148.966C110.209 148.991 110.114 149.017 109.991 149.043C109.869 149.071 109.714 149.085 109.527 149.085C109.243 149.085 108.964 149.024 108.692 148.902C108.422 148.78 108.197 148.594 108.018 148.344C107.842 148.094 107.754 147.778 107.754 147.398V140.886ZM111.67 149V142.455H112.676V149H111.67ZM112.182 141.364C111.986 141.364 111.817 141.297 111.675 141.163C111.536 141.03 111.466 140.869 111.466 140.682C111.466 140.494 111.536 140.334 111.675 140.2C111.817 140.067 111.986 140 112.182 140C112.378 140 112.545 140.067 112.685 140.2C112.827 140.334 112.898 140.494 112.898 140.682C112.898 140.869 112.827 141.03 112.685 141.163C112.545 141.297 112.378 141.364 112.182 141.364ZM117.177 149.136C116.586 149.136 116.068 148.996 115.622 148.714C115.179 148.433 114.832 148.04 114.582 147.534C114.335 147.028 114.211 146.437 114.211 145.761C114.211 145.08 114.335 144.484 114.582 143.976C114.832 143.467 115.179 143.072 115.622 142.791C116.068 142.51 116.586 142.369 117.177 142.369C117.768 142.369 118.285 142.51 118.728 142.791C119.174 143.072 119.521 143.467 119.768 143.976C120.018 144.484 120.143 145.08 120.143 145.761C120.143 146.437 120.018 147.028 119.768 147.534C119.521 148.04 119.174 148.433 118.728 148.714C118.285 148.996 117.768 149.136 117.177 149.136ZM117.177 148.233C117.626 148.233 117.995 148.118 118.285 147.888C118.575 147.658 118.789 147.355 118.929 146.98C119.068 146.605 119.137 146.199 119.137 145.761C119.137 145.324 119.068 144.916 118.929 144.538C118.789 144.161 118.575 143.855 118.285 143.622C117.995 143.389 117.626 143.273 117.177 143.273C116.728 143.273 116.359 143.389 116.069 143.622C115.779 143.855 115.565 144.161 115.426 144.538C115.287 144.916 115.217 145.324 115.217 145.761C115.217 146.199 115.287 146.605 115.426 146.98C115.565 147.355 115.779 147.658 116.069 147.888C116.359 148.118 116.728 148.233 117.177 148.233ZM122.684 145.062V149H121.678V142.455H122.65V143.477H122.735C122.888 143.145 123.121 142.878 123.434 142.676C123.746 142.472 124.15 142.369 124.644 142.369C125.087 142.369 125.475 142.46 125.808 142.642C126.14 142.821 126.398 143.094 126.583 143.46C126.768 143.824 126.86 144.284 126.86 144.841V149H125.854V144.909C125.854 144.395 125.721 143.994 125.454 143.707C125.187 143.418 124.82 143.273 124.354 143.273C124.033 143.273 123.746 143.342 123.494 143.482C123.244 143.621 123.046 143.824 122.901 144.091C122.756 144.358 122.684 144.682 122.684 145.062Z" fill="black"/>
<rect x="37" y="48" width="124" height="60" fill="#E3A03B"/>
<path d="M53.9545 68.4545C53.9034 68.0227 53.696 67.6875 53.3324 67.4489C52.9688 67.2102 52.5227 67.0909 51.9943 67.0909C51.608 67.0909 51.2699 67.1534 50.9801 67.2784C50.6932 67.4034 50.4688 67.5753 50.3068 67.794C50.1477 68.0128 50.0682 68.2614 50.0682 68.5398C50.0682 68.7727 50.1236 68.973 50.2344 69.1406C50.348 69.3054 50.4929 69.4432 50.669 69.554C50.8452 69.6619 51.0298 69.7514 51.223 69.8224C51.4162 69.8906 51.5938 69.946 51.7557 69.9886L52.642 70.2273C52.8693 70.2869 53.1222 70.3693 53.4006 70.4744C53.6818 70.5795 53.9503 70.723 54.206 70.9048C54.4645 71.0838 54.6776 71.3139 54.8452 71.5952C55.0128 71.8764 55.0966 72.2216 55.0966 72.6307C55.0966 73.1023 54.973 73.5284 54.7259 73.9091C54.4815 74.2898 54.1236 74.5923 53.652 74.8168C53.1832 75.0412 52.6136 75.1534 51.9432 75.1534C51.3182 75.1534 50.777 75.0526 50.3196 74.8509C49.8651 74.6491 49.5071 74.3679 49.2457 74.0071C48.9872 73.6463 48.8409 73.2273 48.8068 72.75H49.8977C49.9261 73.0795 50.0369 73.3523 50.2301 73.5682C50.4261 73.7812 50.6733 73.9403 50.9716 74.0455C51.2727 74.1477 51.5966 74.1989 51.9432 74.1989C52.3466 74.1989 52.7088 74.1335 53.0298 74.0028C53.3509 73.8693 53.6051 73.6847 53.7926 73.4489C53.9801 73.2102 54.0739 72.9318 54.0739 72.6136C54.0739 72.3239 53.9929 72.0881 53.831 71.9062C53.669 71.7244 53.456 71.5767 53.1918 71.4631C52.9276 71.3494 52.642 71.25 52.3352 71.1648L51.2614 70.858C50.5795 70.6619 50.0398 70.3821 49.642 70.0185C49.2443 69.6548 49.0455 69.179 49.0455 68.5909C49.0455 68.1023 49.1776 67.6761 49.4418 67.3125C49.7088 66.946 50.0668 66.6619 50.5156 66.4602C50.9673 66.2557 51.4716 66.1534 52.0284 66.1534C52.5909 66.1534 53.0909 66.2543 53.5284 66.456C53.9659 66.6548 54.3125 66.9276 54.5682 67.2741C54.8267 67.6207 54.9631 68.0142 54.9773 68.4545H53.9545ZM59.3569 75.1364C58.7433 75.1364 58.2148 74.9915 57.7717 74.7017C57.3285 74.4119 56.9876 74.0128 56.7489 73.5043C56.5103 72.9957 56.391 72.4148 56.391 71.7614C56.391 71.0966 56.5131 70.5099 56.7575 70.0014C57.0046 69.4901 57.3484 69.0909 57.7887 68.804C58.2319 68.5142 58.7489 68.3693 59.3398 68.3693C59.8001 68.3693 60.2148 68.4545 60.5842 68.625C60.9535 68.7955 61.256 69.0341 61.4918 69.3409C61.7276 69.6477 61.8739 70.0057 61.9308 70.4148H60.9251C60.8484 70.1165 60.6779 69.8523 60.4137 69.6222C60.1523 69.3892 59.8001 69.2727 59.3569 69.2727C58.9648 69.2727 58.6211 69.375 58.3256 69.5795C58.033 69.7812 57.8043 70.0668 57.6396 70.4361C57.4776 70.8026 57.3967 71.233 57.3967 71.7273C57.3967 72.233 57.4762 72.6733 57.6353 73.0483C57.7972 73.4233 58.0245 73.7145 58.3171 73.9219C58.6126 74.1293 58.9592 74.233 59.3569 74.233C59.6183 74.233 59.8555 74.1875 60.0685 74.0966C60.2816 74.0057 60.462 73.875 60.6097 73.7045C60.7575 73.5341 60.8626 73.3295 60.9251 73.0909H61.9308C61.8739 73.4773 61.7333 73.8253 61.5089 74.1349C61.2873 74.4418 60.9933 74.6861 60.6268 74.8679C60.2631 75.0469 59.8398 75.1364 59.3569 75.1364ZM66.1452 75.1364C65.5146 75.1364 64.9705 74.9972 64.5131 74.7188C64.0586 74.4375 63.7077 74.0455 63.4606 73.5426C63.2163 73.0369 63.0941 72.4489 63.0941 71.7784C63.0941 71.108 63.2163 70.517 63.4606 70.0057C63.7077 69.4915 64.0515 69.0909 64.4918 68.804C64.935 68.5142 65.4521 68.3693 66.043 68.3693C66.3839 68.3693 66.7205 68.4261 67.0529 68.5398C67.3853 68.6534 67.6879 68.8381 67.9606 69.0938C68.2333 69.3466 68.4506 69.6818 68.6126 70.0994C68.7745 70.517 68.8555 71.0312 68.8555 71.642V72.0682H63.81V71.1989H67.8327C67.8327 70.8295 67.7589 70.5 67.6112 70.2102C67.4663 69.9205 67.2589 69.6918 66.989 69.5241C66.7219 69.3565 66.4066 69.2727 66.043 69.2727C65.6424 69.2727 65.2958 69.3722 65.0032 69.571C64.7134 69.767 64.4904 70.0227 64.3342 70.3381C64.1779 70.6534 64.0998 70.9915 64.0998 71.3523V71.9318C64.0998 72.4261 64.185 72.8452 64.3555 73.1889C64.5288 73.5298 64.7688 73.7898 65.0756 73.9688C65.3825 74.1449 65.739 74.233 66.1452 74.233C66.4094 74.233 66.6481 74.196 66.8612 74.1222C67.0771 74.0455 67.2631 73.9318 67.4194 73.7812C67.5756 73.6278 67.6964 73.4375 67.7816 73.2102L68.7532 73.483C68.6509 73.8125 68.479 74.1023 68.2376 74.3523C67.9961 74.5994 67.6978 74.7926 67.3427 74.9318C66.9876 75.0682 66.5884 75.1364 66.1452 75.1364ZM71.391 71.0625V75H70.3853V68.4545H71.3569V69.4773H71.4421C71.5955 69.1449 71.8285 68.8778 72.141 68.6761C72.4535 68.4716 72.8569 68.3693 73.3512 68.3693C73.7944 68.3693 74.1822 68.4602 74.5146 68.642C74.8469 68.821 75.1055 69.0938 75.2901 69.4602C75.4748 69.8239 75.5671 70.2841 75.5671 70.8409V75H74.5614V70.9091C74.5614 70.3949 74.4279 69.9943 74.1609 69.7074C73.8938 69.4176 73.5273 69.2727 73.0614 69.2727C72.7404 69.2727 72.4535 69.3423 72.2006 69.4815C71.9506 69.6207 71.7532 69.8239 71.6083 70.0909C71.4634 70.358 71.391 70.6818 71.391 71.0625ZM80.1491 75.1364C79.5185 75.1364 78.9744 74.9972 78.517 74.7188C78.0625 74.4375 77.7116 74.0455 77.4645 73.5426C77.2202 73.0369 77.098 72.4489 77.098 71.7784C77.098 71.108 77.2202 70.517 77.4645 70.0057C77.7116 69.4915 78.0554 69.0909 78.4957 68.804C78.9389 68.5142 79.456 68.3693 80.0469 68.3693C80.3878 68.3693 80.7244 68.4261 81.0568 68.5398C81.3892 68.6534 81.6918 68.8381 81.9645 69.0938C82.2372 69.3466 82.4545 69.6818 82.6165 70.0994C82.7784 70.517 82.8594 71.0312 82.8594 71.642V72.0682H77.8139V71.1989H81.8366C81.8366 70.8295 81.7628 70.5 81.6151 70.2102C81.4702 69.9205 81.2628 69.6918 80.9929 69.5241C80.7259 69.3565 80.4105 69.2727 80.0469 69.2727C79.6463 69.2727 79.2997 69.3722 79.0071 69.571C78.7173 69.767 78.4943 70.0227 78.3381 70.3381C78.1818 70.6534 78.1037 70.9915 78.1037 71.3523V71.9318C78.1037 72.4261 78.1889 72.8452 78.3594 73.1889C78.5327 73.5298 78.7727 73.7898 79.0795 73.9688C79.3864 74.1449 79.7429 74.233 80.1491 74.233C80.4134 74.233 80.652 74.196 80.8651 74.1222C81.081 74.0455 81.267 73.9318 81.4233 73.7812C81.5795 73.6278 81.7003 73.4375 81.7855 73.2102L82.7571 73.483C82.6548 73.8125 82.483 74.1023 82.2415 74.3523C82 74.5994 81.7017 74.7926 81.3466 74.9318C80.9915 75.0682 80.5923 75.1364 80.1491 75.1364ZM90.2358 75.1193C89.6619 75.1193 89.1676 75.0142 88.7528 74.804C88.3381 74.5937 88.0185 74.3054 87.794 73.9389C87.5696 73.5724 87.4574 73.1534 87.4574 72.6818C87.4574 72.3182 87.5341 71.9957 87.6875 71.7145C87.8438 71.4304 88.0582 71.1676 88.331 70.9261C88.6065 70.6818 88.9233 70.4375 89.2812 70.1932L90.5426 69.2557C90.7898 69.0937 90.9872 68.9205 91.1349 68.7358C91.2855 68.5511 91.3608 68.3097 91.3608 68.0114C91.3608 67.7898 91.2628 67.5753 91.0668 67.3679C90.8736 67.1605 90.6193 67.0568 90.304 67.0568C90.0824 67.0568 89.8864 67.1136 89.7159 67.2273C89.5483 67.3381 89.4162 67.4801 89.3196 67.6534C89.2259 67.8239 89.179 68 89.179 68.1818C89.179 68.3864 89.2344 68.5938 89.3452 68.804C89.4588 69.0114 89.6023 69.2244 89.7756 69.4432C89.9517 69.6591 90.1335 69.8807 90.321 70.108L94.3267 75H93.1165L89.8097 71.0114C89.5028 70.642 89.2244 70.3068 88.9744 70.0057C88.7244 69.7045 88.5256 69.4077 88.3778 69.1151C88.2301 68.8224 88.1562 68.5057 88.1562 68.1648C88.1562 67.7727 88.2429 67.429 88.4162 67.1335C88.5923 66.8352 88.8381 66.6037 89.1534 66.4389C89.4716 66.2713 89.8438 66.1875 90.2699 66.1875C90.7074 66.1875 91.0838 66.2727 91.3991 66.4432C91.7145 66.6108 91.9574 66.8338 92.1278 67.1122C92.2983 67.3878 92.3835 67.6875 92.3835 68.0114C92.3835 68.429 92.2798 68.7912 92.0724 69.098C91.8651 69.4048 91.5824 69.6903 91.2244 69.9545L89.4858 71.25C89.0938 71.5398 88.8281 71.821 88.6889 72.0938C88.5497 72.3665 88.4801 72.5625 88.4801 72.6818C88.4801 72.9545 88.5511 73.2088 88.6932 73.4446C88.8352 73.6804 89.0355 73.8707 89.294 74.0156C89.5526 74.1605 89.8551 74.233 90.2017 74.233C90.5313 74.233 90.8523 74.1634 91.1648 74.0241C91.4773 73.8821 91.7599 73.6776 92.0128 73.4105C92.2685 73.1435 92.4702 72.8224 92.6179 72.4474C92.7685 72.0724 92.8438 71.6506 92.8438 71.1818H93.8153C93.8153 71.7614 93.7486 72.2344 93.6151 72.6009C93.4815 72.9673 93.331 73.2543 93.1634 73.4616C92.9957 73.669 92.8608 73.8239 92.7585 73.9261C92.7244 73.9687 92.6932 74.0114 92.6648 74.054C92.6364 74.0966 92.6051 74.1392 92.571 74.1818C92.2898 74.4972 91.9347 74.733 91.5057 74.8892C91.0767 75.0426 90.6534 75.1193 90.2358 75.1193ZM98.815 75V68.4545H99.7866V69.4432H99.8548C99.9741 69.1193 100.19 68.8565 100.502 68.6548C100.815 68.4531 101.167 68.3523 101.559 68.3523C101.633 68.3523 101.725 68.3537 101.836 68.3565C101.947 68.3594 102.031 68.3636 102.088 68.3693V69.392C102.054 69.3835 101.975 69.3707 101.853 69.3537C101.734 69.3338 101.608 69.3239 101.474 69.3239C101.156 69.3239 100.872 69.3906 100.622 69.5241C100.375 69.6548 100.179 69.8366 100.034 70.0696C99.8917 70.2997 99.8207 70.5625 99.8207 70.858V75H98.815ZM105.825 75.1364C105.194 75.1364 104.65 74.9972 104.193 74.7188C103.738 74.4375 103.387 74.0455 103.14 73.5426C102.896 73.0369 102.774 72.4489 102.774 71.7784C102.774 71.108 102.896 70.517 103.14 70.0057C103.387 69.4915 103.731 69.0909 104.172 68.804C104.615 68.5142 105.132 68.3693 105.723 68.3693C106.064 68.3693 106.4 68.4261 106.733 68.5398C107.065 68.6534 107.368 68.8381 107.64 69.0938C107.913 69.3466 108.13 69.6818 108.292 70.0994C108.454 70.517 108.535 71.0312 108.535 71.642V72.0682H103.49V71.1989H107.512C107.512 70.8295 107.439 70.5 107.291 70.2102C107.146 69.9205 106.939 69.6918 106.669 69.5241C106.402 69.3565 106.086 69.2727 105.723 69.2727C105.322 69.2727 104.975 69.3722 104.683 69.571C104.393 69.767 104.17 70.0227 104.014 70.3381C103.858 70.6534 103.779 70.9915 103.779 71.3523V71.9318C103.779 72.4261 103.865 72.8452 104.035 73.1889C104.208 73.5298 104.449 73.7898 104.755 73.9688C105.062 74.1449 105.419 74.233 105.825 74.233C106.089 74.233 106.328 74.196 106.541 74.1222C106.757 74.0455 106.943 73.9318 107.099 73.7812C107.255 73.6278 107.376 73.4375 107.461 73.2102L108.433 73.483C108.331 73.8125 108.159 74.1023 107.917 74.3523C107.676 74.5994 107.377 74.7926 107.022 74.9318C106.667 75.0682 106.268 75.1364 105.825 75.1364ZM114.701 69.9205L113.798 70.1761C113.741 70.0256 113.657 69.8793 113.547 69.7372C113.439 69.5923 113.291 69.473 113.103 69.3793C112.916 69.2855 112.676 69.2386 112.383 69.2386C111.983 69.2386 111.649 69.331 111.382 69.5156C111.118 69.6974 110.985 69.929 110.985 70.2102C110.985 70.4602 111.076 70.6577 111.258 70.8026C111.44 70.9474 111.724 71.0682 112.11 71.1648L113.082 71.4034C113.667 71.5455 114.103 71.7628 114.39 72.0554C114.677 72.3452 114.821 72.7187 114.821 73.1761C114.821 73.5511 114.713 73.8864 114.497 74.1818C114.284 74.4773 113.985 74.7102 113.602 74.8807C113.218 75.0511 112.772 75.1364 112.264 75.1364C111.596 75.1364 111.044 74.9915 110.606 74.7017C110.169 74.4119 109.892 73.9886 109.775 73.4318L110.73 73.1932C110.821 73.5455 110.993 73.8097 111.245 73.9858C111.501 74.1619 111.835 74.25 112.247 74.25C112.716 74.25 113.088 74.1506 113.363 73.9517C113.642 73.75 113.781 73.5085 113.781 73.2273C113.781 73 113.701 72.8097 113.542 72.6562C113.383 72.5 113.139 72.3835 112.809 72.3068L111.718 72.0511C111.119 71.9091 110.679 71.6889 110.397 71.3906C110.119 71.0895 109.98 70.7131 109.98 70.2614C109.98 69.892 110.083 69.5653 110.291 69.2812C110.501 68.9972 110.787 68.7741 111.147 68.6122C111.511 68.4503 111.923 68.3693 112.383 68.3693C113.031 68.3693 113.539 68.5114 113.909 68.7955C114.281 69.0795 114.545 69.4545 114.701 69.9205ZM118.994 75.1364C118.403 75.1364 117.884 74.9957 117.438 74.7145C116.995 74.4332 116.648 74.0398 116.398 73.5341C116.151 73.0284 116.028 72.4375 116.028 71.7614C116.028 71.0795 116.151 70.4844 116.398 69.9759C116.648 69.4673 116.995 69.0724 117.438 68.7912C117.884 68.5099 118.403 68.3693 118.994 68.3693C119.585 68.3693 120.102 68.5099 120.545 68.7912C120.991 69.0724 121.337 69.4673 121.585 69.9759C121.835 70.4844 121.96 71.0795 121.96 71.7614C121.96 72.4375 121.835 73.0284 121.585 73.5341C121.337 74.0398 120.991 74.4332 120.545 74.7145C120.102 74.9957 119.585 75.1364 118.994 75.1364ZM118.994 74.233C119.442 74.233 119.812 74.1179 120.102 73.8878C120.391 73.6577 120.606 73.3551 120.745 72.9801C120.884 72.6051 120.954 72.1989 120.954 71.7614C120.954 71.3239 120.884 70.9162 120.745 70.5384C120.606 70.1605 120.391 69.8551 120.102 69.6222C119.812 69.3892 119.442 69.2727 118.994 69.2727C118.545 69.2727 118.175 69.3892 117.886 69.6222C117.596 69.8551 117.381 70.1605 117.242 70.5384C117.103 70.9162 117.033 71.3239 117.033 71.7614C117.033 72.1989 117.103 72.6051 117.242 72.9801C117.381 73.3551 117.596 73.6577 117.886 73.8878C118.175 74.1179 118.545 74.233 118.994 74.233ZM127.62 72.3239V68.4545H128.625V75H127.62V73.892H127.551C127.398 74.2244 127.159 74.5071 126.836 74.7401C126.512 74.9702 126.103 75.0852 125.608 75.0852C125.199 75.0852 124.836 74.9957 124.517 74.8168C124.199 74.6349 123.949 74.3622 123.767 73.9986C123.586 73.6321 123.495 73.1705 123.495 72.6136V68.4545H124.5V72.5455C124.5 73.0227 124.634 73.4034 124.901 73.6875C125.171 73.9716 125.515 74.1136 125.932 74.1136C126.182 74.1136 126.436 74.0497 126.695 73.9219C126.956 73.794 127.175 73.598 127.351 73.3338C127.53 73.0696 127.62 72.733 127.62 72.3239ZM130.467 75V68.4545H131.439V69.4432H131.507C131.626 69.1193 131.842 68.8565 132.155 68.6548C132.467 68.4531 132.82 68.3523 133.212 68.3523C133.286 68.3523 133.378 68.3537 133.489 68.3565C133.599 68.3594 133.683 68.3636 133.74 68.3693V69.392C133.706 69.3835 133.628 69.3707 133.506 69.3537C133.386 69.3338 133.26 69.3239 133.126 69.3239C132.808 69.3239 132.524 69.3906 132.274 69.5241C132.027 69.6548 131.831 69.8366 131.686 70.0696C131.544 70.2997 131.473 70.5625 131.473 70.858V75H130.467ZM137.392 75.1364C136.778 75.1364 136.25 74.9915 135.807 74.7017C135.364 74.4119 135.023 74.0128 134.784 73.5043C134.545 72.9957 134.426 72.4148 134.426 71.7614C134.426 71.0966 134.548 70.5099 134.793 70.0014C135.04 69.4901 135.384 69.0909 135.824 68.804C136.267 68.5142 136.784 68.3693 137.375 68.3693C137.835 68.3693 138.25 68.4545 138.619 68.625C138.989 68.7955 139.291 69.0341 139.527 69.3409C139.763 69.6477 139.909 70.0057 139.966 70.4148H138.96C138.884 70.1165 138.713 69.8523 138.449 69.6222C138.188 69.3892 137.835 69.2727 137.392 69.2727C137 69.2727 136.656 69.375 136.361 69.5795C136.068 69.7812 135.839 70.0668 135.675 70.4361C135.513 70.8026 135.432 71.233 135.432 71.7273C135.432 72.233 135.511 72.6733 135.67 73.0483C135.832 73.4233 136.06 73.7145 136.352 73.9219C136.648 74.1293 136.994 74.233 137.392 74.233C137.653 74.233 137.891 74.1875 138.104 74.0966C138.317 74.0057 138.497 73.875 138.645 73.7045C138.793 73.5341 138.898 73.3295 138.96 73.0909H139.966C139.909 73.4773 139.768 73.8253 139.544 74.1349C139.322 74.4418 139.028 74.6861 138.662 74.8679C138.298 75.0469 137.875 75.1364 137.392 75.1364ZM144.18 75.1364C143.55 75.1364 143.006 74.9972 142.548 74.7188C142.094 74.4375 141.743 74.0455 141.496 73.5426C141.251 73.0369 141.129 72.4489 141.129 71.7784C141.129 71.108 141.251 70.517 141.496 70.0057C141.743 69.4915 142.087 69.0909 142.527 68.804C142.97 68.5142 143.487 68.3693 144.078 68.3693C144.419 68.3693 144.756 68.4261 145.088 68.5398C145.42 68.6534 145.723 68.8381 145.996 69.0938C146.268 69.3466 146.486 69.6818 146.648 70.0994C146.81 70.517 146.891 71.0312 146.891 71.642V72.0682H141.845V71.1989H145.868C145.868 70.8295 145.794 70.5 145.646 70.2102C145.501 69.9205 145.294 69.6918 145.024 69.5241C144.757 69.3565 144.442 69.2727 144.078 69.2727C143.678 69.2727 143.331 69.3722 143.038 69.571C142.749 69.767 142.526 70.0227 142.369 70.3381C142.213 70.6534 142.135 70.9915 142.135 71.3523V71.9318C142.135 72.4261 142.22 72.8452 142.391 73.1889C142.564 73.5298 142.804 73.7898 143.111 73.9688C143.418 74.1449 143.774 74.233 144.18 74.233C144.445 74.233 144.683 74.196 144.896 74.1222C145.112 74.0455 145.298 73.9318 145.455 73.7812C145.611 73.6278 145.732 73.4375 145.817 73.2102L146.788 73.483C146.686 73.8125 146.514 74.1023 146.273 74.3523C146.031 74.5994 145.733 74.7926 145.378 74.9318C145.023 75.0682 144.624 75.1364 144.18 75.1364ZM63.3892 90V83.4545H64.3608V84.4773H64.446C64.5824 84.1278 64.8026 83.8565 65.1065 83.6634C65.4105 83.4673 65.7756 83.3693 66.2017 83.3693C66.6335 83.3693 66.9929 83.4673 67.2798 83.6634C67.5696 83.8565 67.7955 84.1278 67.9574 84.4773H68.0256C68.1932 84.1392 68.4446 83.8707 68.7798 83.6719C69.1151 83.4702 69.517 83.3693 69.9858 83.3693C70.571 83.3693 71.0497 83.5526 71.4219 83.919C71.794 84.2827 71.9801 84.8494 71.9801 85.6193V90H70.9744V85.6193C70.9744 85.1364 70.8423 84.7912 70.5781 84.5838C70.3139 84.3764 70.0028 84.2727 69.6449 84.2727C69.1847 84.2727 68.8281 84.4119 68.5753 84.6903C68.3224 84.9659 68.196 85.3153 68.196 85.7386V90H67.1733V85.517C67.1733 85.1449 67.0526 84.8452 66.8111 84.6179C66.5696 84.3878 66.2585 84.2727 65.8778 84.2727C65.6165 84.2727 65.3722 84.3423 65.1449 84.4815C64.9205 84.6207 64.7386 84.8139 64.5994 85.0611C64.4631 85.3054 64.3949 85.5881 64.3949 85.9091V90H63.3892ZM75.745 90.1534C75.3303 90.1534 74.9538 90.0753 74.6158 89.919C74.2777 89.7599 74.0092 89.5312 73.8104 89.233C73.6115 88.9318 73.5121 88.5682 73.5121 88.142C73.5121 87.767 73.5859 87.4631 73.7337 87.2301C73.8814 86.9943 74.0788 86.8097 74.326 86.6761C74.5732 86.5426 74.8459 86.4432 75.1442 86.3778C75.4453 86.3097 75.7479 86.2557 76.0518 86.2159C76.4496 86.1648 76.772 86.1264 77.0192 86.1009C77.2692 86.0724 77.451 86.0256 77.5646 85.9602C77.6811 85.8949 77.7393 85.7812 77.7393 85.6193V85.5852C77.7393 85.1648 77.6243 84.8381 77.3942 84.6051C77.1669 84.3722 76.8217 84.2557 76.3587 84.2557C75.8786 84.2557 75.5021 84.3608 75.2294 84.571C74.9567 84.7812 74.7649 85.0057 74.6541 85.2443L73.6996 84.9034C73.87 84.5057 74.0973 84.196 74.3814 83.9744C74.6683 83.75 74.9808 83.5937 75.3189 83.5057C75.6598 83.4148 75.995 83.3693 76.3246 83.3693C76.5348 83.3693 76.7763 83.3949 77.049 83.446C77.3246 83.4943 77.5902 83.5952 77.8459 83.7486C78.1044 83.902 78.3189 84.1335 78.4893 84.4432C78.6598 84.7528 78.745 85.1676 78.745 85.6875V90H77.7393V89.1136H77.6882C77.62 89.2557 77.5064 89.4077 77.3473 89.5696C77.1882 89.7315 76.9766 89.8693 76.7124 89.983C76.4482 90.0966 76.1257 90.1534 75.745 90.1534ZM75.8984 89.25C76.2962 89.25 76.6314 89.1719 76.9041 89.0156C77.1797 88.8594 77.3871 88.6577 77.5263 88.4105C77.6683 88.1634 77.7393 87.9034 77.7393 87.6307V86.7102C77.6967 86.7614 77.603 86.8082 77.4581 86.8509C77.3161 86.8906 77.1513 86.9261 76.9638 86.9574C76.7791 86.9858 76.5987 87.0114 76.4226 87.0341C76.2493 87.054 76.1087 87.071 76.0007 87.0852C75.7393 87.1193 75.495 87.1747 75.2678 87.2514C75.0433 87.3253 74.8615 87.4375 74.7223 87.5881C74.5859 87.7358 74.5178 87.9375 74.5178 88.1932C74.5178 88.5426 74.647 88.8068 74.9055 88.9858C75.1669 89.1619 75.4979 89.25 75.8984 89.25ZM81.5863 86.0625V90H80.5806V83.4545H81.5522V84.4773H81.6374C81.7908 84.1449 82.0238 83.8778 82.3363 83.6761C82.6488 83.4716 83.0522 83.3693 83.5465 83.3693C83.9897 83.3693 84.3775 83.4602 84.7099 83.642C85.0423 83.821 85.3008 84.0938 85.4854 84.4602C85.6701 84.8239 85.7624 85.2841 85.7624 85.8409V90H84.7567V85.9091C84.7567 85.3949 84.6232 84.9943 84.3562 84.7074C84.0891 84.4176 83.7227 84.2727 83.2567 84.2727C82.9357 84.2727 82.6488 84.3423 82.396 84.4815C82.146 84.6207 81.9485 84.8239 81.8036 85.0909C81.6587 85.358 81.5863 85.6818 81.5863 86.0625ZM89.5263 90.1534C89.1115 90.1534 88.7351 90.0753 88.397 89.919C88.0589 89.7599 87.7905 89.5312 87.5916 89.233C87.3928 88.9318 87.2933 88.5682 87.2933 88.142C87.2933 87.767 87.3672 87.4631 87.5149 87.2301C87.6626 86.9943 87.8601 86.8097 88.1072 86.6761C88.3544 86.5426 88.6271 86.4432 88.9254 86.3778C89.2266 86.3097 89.5291 86.2557 89.8331 86.2159C90.2308 86.1648 90.5533 86.1264 90.8004 86.1009C91.0504 86.0724 91.2322 86.0256 91.3459 85.9602C91.4624 85.8949 91.5206 85.7812 91.5206 85.6193V85.5852C91.5206 85.1648 91.4055 84.8381 91.1754 84.6051C90.9482 84.3722 90.603 84.2557 90.1399 84.2557C89.6598 84.2557 89.2834 84.3608 89.0107 84.571C88.7379 84.7812 88.5462 85.0057 88.4354 85.2443L87.4808 84.9034C87.6513 84.5057 87.8786 84.196 88.1626 83.9744C88.4496 83.75 88.7621 83.5937 89.1001 83.5057C89.4411 83.4148 89.7763 83.3693 90.1058 83.3693C90.3161 83.3693 90.5575 83.3949 90.8303 83.446C91.1058 83.4943 91.3714 83.5952 91.6271 83.7486C91.8857 83.902 92.1001 84.1335 92.2706 84.4432C92.4411 84.7528 92.5263 85.1676 92.5263 85.6875V90H91.5206V89.1136H91.4695C91.4013 89.2557 91.2876 89.4077 91.1286 89.5696C90.9695 89.7315 90.7578 89.8693 90.4936 89.983C90.2294 90.0966 89.907 90.1534 89.5263 90.1534ZM89.6797 89.25C90.0774 89.25 90.4126 89.1719 90.6854 89.0156C90.9609 88.8594 91.1683 88.6577 91.3075 88.4105C91.4496 88.1634 91.5206 87.9034 91.5206 87.6307V86.7102C91.478 86.7614 91.3842 86.8082 91.2393 86.8509C91.0973 86.8906 90.9325 86.9261 90.745 86.9574C90.5604 86.9858 90.38 87.0114 90.2038 87.0341C90.0305 87.054 89.8899 87.071 89.782 87.0852C89.5206 87.1193 89.2763 87.1747 89.049 87.2514C88.8246 87.3253 88.6428 87.4375 88.5036 87.5881C88.3672 87.7358 88.299 87.9375 88.299 88.1932C88.299 88.5426 88.4283 88.8068 88.6868 88.9858C88.9482 89.1619 89.2791 89.25 89.6797 89.25ZM97.0039 92.5909C96.5181 92.5909 96.1005 92.5284 95.7511 92.4034C95.4016 92.2812 95.1104 92.1193 94.8775 91.9176C94.6474 91.7188 94.4641 91.5057 94.3278 91.2784L95.1289 90.7159C95.2198 90.8352 95.3349 90.9716 95.4741 91.125C95.6133 91.2812 95.8036 91.4162 96.0451 91.5298C96.2894 91.6463 96.609 91.7045 97.0039 91.7045C97.5323 91.7045 97.9684 91.5767 98.3121 91.321C98.6559 91.0653 98.8278 90.6648 98.8278 90.1193V88.7898H98.7425C98.6687 88.9091 98.5636 89.0568 98.4272 89.233C98.2937 89.4062 98.1005 89.5611 97.8477 89.6974C97.5977 89.831 97.2596 89.8977 96.8335 89.8977C96.305 89.8977 95.8306 89.7727 95.4102 89.5227C94.9925 89.2727 94.6616 88.9091 94.4173 88.4318C94.1758 87.9545 94.055 87.375 94.055 86.6932C94.055 86.0227 94.1729 85.4389 94.4087 84.9418C94.6445 84.4418 94.9727 84.0554 95.3931 83.7827C95.8136 83.5071 96.2994 83.3693 96.8505 83.3693C97.2766 83.3693 97.6147 83.4403 97.8647 83.5824C98.1175 83.7216 98.3107 83.8807 98.4442 84.0597C98.5806 84.2358 98.6857 84.3807 98.7596 84.4943H98.8619V83.4545H99.8335V90.1875C99.8335 90.75 99.7056 91.2074 99.4499 91.5597C99.1971 91.9148 98.8562 92.1747 98.4272 92.3395C98.0011 92.5071 97.5266 92.5909 97.0039 92.5909ZM96.9698 88.9943C97.3732 88.9943 97.7141 88.902 97.9925 88.7173C98.271 88.5327 98.4826 88.267 98.6275 87.9205C98.7724 87.5739 98.8448 87.1591 98.8448 86.6761C98.8448 86.2045 98.7738 85.7884 98.6317 85.4276C98.4897 85.0668 98.2795 84.7841 98.0011 84.5795C97.7227 84.375 97.3789 84.2727 96.9698 84.2727C96.5437 84.2727 96.1886 84.3807 95.9045 84.5966C95.6232 84.8125 95.4116 85.1023 95.2695 85.4659C95.1303 85.8295 95.0607 86.233 95.0607 86.6761C95.0607 87.1307 95.1317 87.5327 95.2738 87.8821C95.4187 88.2287 95.6317 88.5014 95.913 88.7003C96.1971 88.8963 96.5494 88.9943 96.9698 88.9943ZM104.419 90.1364C103.788 90.1364 103.244 89.9972 102.787 89.7188C102.332 89.4375 101.981 89.0455 101.734 88.5426C101.49 88.0369 101.368 87.4489 101.368 86.7784C101.368 86.108 101.49 85.517 101.734 85.0057C101.981 84.4915 102.325 84.0909 102.765 83.804C103.208 83.5142 103.725 83.3693 104.316 83.3693C104.657 83.3693 104.994 83.4261 105.326 83.5398C105.659 83.6534 105.961 83.8381 106.234 84.0938C106.507 84.3466 106.724 84.6818 106.886 85.0994C107.048 85.517 107.129 86.0312 107.129 86.642V87.0682H102.083V86.1989H106.106C106.106 85.8295 106.032 85.5 105.885 85.2102C105.74 84.9205 105.532 84.6918 105.262 84.5241C104.995 84.3565 104.68 84.2727 104.316 84.2727C103.916 84.2727 103.569 84.3722 103.277 84.571C102.987 84.767 102.764 85.0227 102.608 85.3381C102.451 85.6534 102.373 85.9915 102.373 86.3523V86.9318C102.373 87.4261 102.458 87.8452 102.629 88.1889C102.802 88.5298 103.042 88.7898 103.349 88.9688C103.656 89.1449 104.012 89.233 104.419 89.233C104.683 89.233 104.922 89.196 105.135 89.1222C105.35 89.0455 105.537 88.9318 105.693 88.7812C105.849 88.6278 105.97 88.4375 106.055 88.2102L107.027 88.483C106.924 88.8125 106.752 89.1023 106.511 89.3523C106.27 89.5994 105.971 89.7926 105.616 89.9318C105.261 90.0682 104.862 90.1364 104.419 90.1364ZM108.659 90V83.4545H109.63V84.4773H109.716C109.852 84.1278 110.072 83.8565 110.376 83.6634C110.68 83.4673 111.045 83.3693 111.471 83.3693C111.903 83.3693 112.262 83.4673 112.549 83.6634C112.839 83.8565 113.065 84.1278 113.227 84.4773H113.295C113.463 84.1392 113.714 83.8707 114.049 83.6719C114.385 83.4702 114.787 83.3693 115.255 83.3693C115.841 83.3693 116.319 83.5526 116.691 83.919C117.064 84.2827 117.25 84.8494 117.25 85.6193V90H116.244V85.6193C116.244 85.1364 116.112 84.7912 115.848 84.5838C115.583 84.3764 115.272 84.2727 114.914 84.2727C114.454 84.2727 114.098 84.4119 113.845 84.6903C113.592 84.9659 113.466 85.3153 113.466 85.7386V90H112.443V85.517C112.443 85.1449 112.322 84.8452 112.081 84.6179C111.839 84.3878 111.528 84.2727 111.147 84.2727C110.886 84.2727 110.642 84.3423 110.414 84.4815C110.19 84.6207 110.008 84.8139 109.869 85.0611C109.733 85.3054 109.664 85.5881 109.664 85.9091V90H108.659ZM121.833 90.1364C121.202 90.1364 120.658 89.9972 120.201 89.7188C119.746 89.4375 119.395 89.0455 119.148 88.5426C118.904 88.0369 118.782 87.4489 118.782 86.7784C118.782 86.108 118.904 85.517 119.148 85.0057C119.395 84.4915 119.739 84.0909 120.179 83.804C120.623 83.5142 121.14 83.3693 121.73 83.3693C122.071 83.3693 122.408 83.4261 122.74 83.5398C123.073 83.6534 123.375 83.8381 123.648 84.0938C123.921 84.3466 124.138 84.6818 124.3 85.0994C124.462 85.517 124.543 86.0312 124.543 86.642V87.0682H119.498V86.1989H123.52C123.52 85.8295 123.446 85.5 123.299 85.2102C123.154 84.9205 122.946 84.6918 122.676 84.5241C122.409 84.3565 122.094 84.2727 121.73 84.2727C121.33 84.2727 120.983 84.3722 120.691 84.571C120.401 84.767 120.178 85.0227 120.022 85.3381C119.865 85.6534 119.787 85.9915 119.787 86.3523V86.9318C119.787 87.4261 119.873 87.8452 120.043 88.1889C120.216 88.5298 120.456 88.7898 120.763 88.9688C121.07 89.1449 121.426 89.233 121.833 89.233C122.097 89.233 122.336 89.196 122.549 89.1222C122.765 89.0455 122.951 88.9318 123.107 88.7812C123.263 88.6278 123.384 88.4375 123.469 88.2102L124.441 88.483C124.338 88.8125 124.167 89.1023 123.925 89.3523C123.684 89.5994 123.385 89.7926 123.03 89.9318C122.675 90.0682 122.276 90.1364 121.833 90.1364ZM127.078 86.0625V90H126.073V83.4545H127.044V84.4773H127.13C127.283 84.1449 127.516 83.8778 127.828 83.6761C128.141 83.4716 128.544 83.3693 129.039 83.3693C129.482 83.3693 129.87 83.4602 130.202 83.642C130.534 83.821 130.793 84.0938 130.978 84.4602C131.162 84.8239 131.255 85.2841 131.255 85.8409V90H130.249V85.9091C130.249 85.3949 130.115 84.9943 129.848 84.7074C129.581 84.4176 129.215 84.2727 128.749 84.2727C128.428 84.2727 128.141 84.3423 127.888 84.4815C127.638 84.6207 127.441 84.8239 127.296 85.0909C127.151 85.358 127.078 85.6818 127.078 86.0625ZM135.939 83.4545V84.3068H132.547V83.4545H135.939ZM133.536 81.8864H134.541V88.125C134.541 88.4091 134.582 88.6222 134.665 88.7642C134.75 88.9034 134.858 88.9972 134.989 89.0455C135.122 89.0909 135.263 89.1136 135.411 89.1136C135.521 89.1136 135.612 89.108 135.683 89.0966C135.754 89.0824 135.811 89.071 135.854 89.0625L136.058 89.9659C135.99 89.9915 135.895 90.017 135.773 90.0426C135.651 90.071 135.496 90.0852 135.308 90.0852C135.024 90.0852 134.746 90.0241 134.473 89.902C134.203 89.7798 133.979 89.5938 133.8 89.3438C133.624 89.0938 133.536 88.7784 133.536 88.3977V81.8864Z" fill="black"/>
<path d="M37.9573 51.4982C38.2324 51.5218 38.4746 51.3178 38.4982 51.0427L38.8825 46.5591C38.9061 46.284 38.7021 46.0418 38.427 46.0183C38.1519 45.9947 37.9097 46.1986 37.8861 46.4737L37.5445 50.4591L33.5592 50.1175C33.284 50.0939 33.0419 50.2979 33.0183 50.573C32.9947 50.8481 33.1986 51.0903 33.4737 51.1139L37.9573 51.4982ZM46.7693 18.5564C36.6523 23.8172 32.9328 30.3698 32.5012 36.4898C32.0728 42.5659 34.8954 48.0896 37.6176 51.3221L38.3825 50.6779C35.7712 47.5771 33.0939 42.3008 33.4988 36.5602C33.9005 30.8635 37.3477 24.5828 47.2307 19.4436L46.7693 18.5564Z" fill="black"/>
<path d="M38.0568 12V3.27273H41.0057C41.6875 3.27273 42.2472 3.3892 42.6847 3.62216C43.1222 3.85227 43.446 4.16903 43.6562 4.57244C43.8665 4.97585 43.9716 5.43466 43.9716 5.94886C43.9716 6.46307 43.8665 6.91903 43.6562 7.31676C43.446 7.71449 43.1236 8.02699 42.6889 8.25426C42.2543 8.47869 41.6989 8.59091 41.0227 8.59091H38.6364V7.63636H40.9886C41.4545 7.63636 41.8295 7.56818 42.1136 7.43182C42.4006 7.29545 42.608 7.10227 42.7358 6.85227C42.8665 6.59943 42.9318 6.2983 42.9318 5.94886C42.9318 5.59943 42.8665 5.29403 42.7358 5.03267C42.6051 4.77131 42.3963 4.5696 42.1094 4.42756C41.8224 4.28267 41.4432 4.21023 40.9716 4.21023H39.1136V12H38.0568ZM42.1648 8.07955L44.3125 12H43.0852L40.9716 8.07955H42.1648ZM49.7212 9.32386V5.45455H50.7269V12H49.7212V10.892H49.6531C49.4996 11.2244 49.261 11.5071 48.9371 11.7401C48.6133 11.9702 48.2042 12.0852 47.7099 12.0852C47.3008 12.0852 46.9371 11.9957 46.619 11.8168C46.3008 11.6349 46.0508 11.3622 45.869 10.9986C45.6871 10.6321 45.5962 10.1705 45.5962 9.61364V5.45455H46.6019V9.54545C46.6019 10.0227 46.7354 10.4034 47.0025 10.6875C47.2724 10.9716 47.6161 11.1136 48.0337 11.1136C48.2837 11.1136 48.538 11.0497 48.7965 10.9219C49.0579 10.794 49.2766 10.598 49.4528 10.3338C49.6317 10.0696 49.7212 9.73295 49.7212 9.32386ZM57.2053 6.92045L56.3018 7.17614C56.245 7.02557 56.1612 6.87926 56.0504 6.73722C55.9425 6.59233 55.7947 6.47301 55.6072 6.37926C55.4197 6.28551 55.1797 6.23864 54.8871 6.23864C54.4865 6.23864 54.1527 6.33097 53.8857 6.51562C53.6214 6.69744 53.4893 6.92898 53.4893 7.21023C53.4893 7.46023 53.5803 7.65767 53.7621 7.80256C53.9439 7.94744 54.228 8.06818 54.6143 8.16477L55.5859 8.40341C56.1712 8.54545 56.6072 8.76278 56.8942 9.0554C57.1811 9.34517 57.3246 9.71875 57.3246 10.1761C57.3246 10.5511 57.2166 10.8864 57.0007 11.1818C56.7876 11.4773 56.4893 11.7102 56.1058 11.8807C55.7223 12.0511 55.2763 12.1364 54.7678 12.1364C54.1001 12.1364 53.5476 11.9915 53.1101 11.7017C52.6726 11.4119 52.3956 10.9886 52.2791 10.4318L53.2337 10.1932C53.3246 10.5455 53.4964 10.8097 53.7493 10.9858C54.005 11.1619 54.3388 11.25 54.7507 11.25C55.2195 11.25 55.5916 11.1506 55.8672 10.9517C56.1456 10.75 56.2848 10.5085 56.2848 10.2273C56.2848 10 56.2053 9.80966 56.0462 9.65625C55.8871 9.5 55.6428 9.38352 55.3132 9.30682L54.2223 9.05114C53.6229 8.90909 53.1825 8.68892 52.9013 8.39062C52.6229 8.08949 52.4837 7.71307 52.4837 7.26136C52.4837 6.89205 52.5874 6.56534 52.7947 6.28125C53.005 5.99716 53.2905 5.77415 53.6513 5.61222C54.0149 5.45028 54.4268 5.36932 54.8871 5.36932C55.5348 5.36932 56.0433 5.51136 56.4126 5.79545C56.7848 6.07955 57.049 6.45455 57.2053 6.92045ZM61.685 5.45455V6.30682H58.293V5.45455H61.685ZM59.2816 3.88636H60.2873V10.125C60.2873 10.4091 60.3285 10.6222 60.4109 10.7642C60.4961 10.9034 60.604 10.9972 60.7347 11.0455C60.8683 11.0909 61.0089 11.1136 61.1566 11.1136C61.2674 11.1136 61.3583 11.108 61.4293 11.0966C61.5004 11.0824 61.5572 11.071 61.5998 11.0625L61.8043 11.9659C61.7362 11.9915 61.641 12.017 61.5188 12.0426C61.3967 12.071 61.2418 12.0852 61.0543 12.0852C60.7702 12.0852 60.4918 12.0241 60.2191 11.902C59.9492 11.7798 59.7248 11.5938 59.5458 11.3438C59.3697 11.0938 59.2816 10.7784 59.2816 10.3977V3.88636Z" fill="black"/>
<rect x="169" y="48" width="124" height="192" fill="#509FCB"/>
<path d="M186.254 153V144.273H189.203C189.888 144.273 190.447 144.396 190.882 144.643C191.319 144.888 191.643 145.219 191.854 145.636C192.064 146.054 192.169 146.52 192.169 147.034C192.169 147.548 192.064 148.016 191.854 148.436C191.646 148.857 191.325 149.192 190.89 149.442C190.456 149.689 189.899 149.812 189.22 149.812H187.106V148.875H189.186C189.655 148.875 190.031 148.794 190.315 148.632C190.599 148.47 190.805 148.251 190.933 147.976C191.064 147.697 191.129 147.384 191.129 147.034C191.129 146.685 191.064 146.372 190.933 146.097C190.805 145.821 190.598 145.605 190.311 145.449C190.024 145.29 189.643 145.21 189.169 145.21H187.311V153H186.254ZM193.735 153V146.455H194.706V147.443H194.775C194.894 147.119 195.11 146.857 195.422 146.655C195.735 146.453 196.087 146.352 196.479 146.352C196.553 146.352 196.645 146.354 196.756 146.357C196.867 146.359 196.951 146.364 197.008 146.369V147.392C196.974 147.384 196.895 147.371 196.773 147.354C196.654 147.334 196.528 147.324 196.394 147.324C196.076 147.324 195.792 147.391 195.542 147.524C195.295 147.655 195.099 147.837 194.954 148.07C194.812 148.3 194.741 148.562 194.741 148.858V153H193.735ZM198.2 153V146.455H199.205V153H198.2ZM198.711 145.364C198.515 145.364 198.346 145.297 198.204 145.163C198.065 145.03 197.995 144.869 197.995 144.682C197.995 144.494 198.065 144.334 198.204 144.2C198.346 144.067 198.515 144 198.711 144C198.907 144 199.075 144.067 199.214 144.2C199.356 144.334 199.427 144.494 199.427 144.682C199.427 144.869 199.356 145.03 199.214 145.163C199.075 145.297 198.907 145.364 198.711 145.364ZM201.047 153V146.455H202.019V147.477H202.104C202.241 147.128 202.461 146.857 202.765 146.663C203.069 146.467 203.434 146.369 203.86 146.369C204.292 146.369 204.651 146.467 204.938 146.663C205.228 146.857 205.454 147.128 205.616 147.477H205.684C205.851 147.139 206.103 146.871 206.438 146.672C206.773 146.47 207.175 146.369 207.644 146.369C208.229 146.369 208.708 146.553 209.08 146.919C209.452 147.283 209.638 147.849 209.638 148.619V153H208.633V148.619C208.633 148.136 208.501 147.791 208.236 147.584C207.972 147.376 207.661 147.273 207.303 147.273C206.843 147.273 206.486 147.412 206.233 147.69C205.981 147.966 205.854 148.315 205.854 148.739V153H204.831V148.517C204.831 148.145 204.711 147.845 204.469 147.618C204.228 147.388 203.917 147.273 203.536 147.273C203.275 147.273 203.03 147.342 202.803 147.482C202.579 147.621 202.397 147.814 202.258 148.061C202.121 148.305 202.053 148.588 202.053 148.909V153H201.047ZM214.221 153.136C213.591 153.136 213.047 152.997 212.589 152.719C212.135 152.438 211.784 152.045 211.537 151.543C211.292 151.037 211.17 150.449 211.17 149.778C211.17 149.108 211.292 148.517 211.537 148.006C211.784 147.491 212.128 147.091 212.568 146.804C213.011 146.514 213.528 146.369 214.119 146.369C214.46 146.369 214.797 146.426 215.129 146.54C215.461 146.653 215.764 146.838 216.037 147.094C216.309 147.347 216.527 147.682 216.689 148.099C216.851 148.517 216.932 149.031 216.932 149.642V150.068H211.886V149.199H215.909C215.909 148.83 215.835 148.5 215.687 148.21C215.542 147.92 215.335 147.692 215.065 147.524C214.798 147.357 214.483 147.273 214.119 147.273C213.719 147.273 213.372 147.372 213.079 147.571C212.79 147.767 212.567 148.023 212.41 148.338C212.254 148.653 212.176 148.991 212.176 149.352V149.932C212.176 150.426 212.261 150.845 212.432 151.189C212.605 151.53 212.845 151.79 213.152 151.969C213.459 152.145 213.815 152.233 214.221 152.233C214.486 152.233 214.724 152.196 214.937 152.122C215.153 152.045 215.339 151.932 215.496 151.781C215.652 151.628 215.773 151.437 215.858 151.21L216.829 151.483C216.727 151.812 216.555 152.102 216.314 152.352C216.072 152.599 215.774 152.793 215.419 152.932C215.064 153.068 214.665 153.136 214.221 153.136ZM227.189 146.455L224.768 153H223.746L221.325 146.455H222.416L224.223 151.67H224.291L226.098 146.455H227.189ZM228.516 153V146.455H229.522V153H228.516ZM229.028 145.364C228.831 145.364 228.662 145.297 228.52 145.163C228.381 145.03 228.312 144.869 228.312 144.682C228.312 144.494 228.381 144.334 228.52 144.2C228.662 144.067 228.831 144 229.028 144C229.224 144 229.391 144.067 229.53 144.2C229.672 144.334 229.743 144.494 229.743 144.682C229.743 144.869 229.672 145.03 229.53 145.163C229.391 145.297 229.224 145.364 229.028 145.364ZM233.835 153.136C233.29 153.136 232.808 152.999 232.391 152.723C231.973 152.445 231.646 152.053 231.411 151.547C231.175 151.038 231.057 150.438 231.057 149.744C231.057 149.057 231.175 148.46 231.411 147.955C231.646 147.449 231.975 147.058 232.395 146.783C232.816 146.507 233.301 146.369 233.852 146.369C234.279 146.369 234.615 146.44 234.862 146.582C235.112 146.722 235.303 146.881 235.433 147.06C235.567 147.236 235.671 147.381 235.744 147.494H235.83V144.273H236.835V153H235.864V151.994H235.744C235.671 152.114 235.566 152.264 235.429 152.446C235.293 152.625 235.098 152.786 234.845 152.928C234.593 153.067 234.256 153.136 233.835 153.136ZM233.972 152.233C234.375 152.233 234.716 152.128 234.994 151.918C235.273 151.705 235.485 151.411 235.629 151.036C235.774 150.658 235.847 150.222 235.847 149.727C235.847 149.239 235.776 148.811 235.634 148.445C235.492 148.075 235.281 147.788 235.003 147.584C234.725 147.376 234.381 147.273 233.972 147.273C233.546 147.273 233.191 147.382 232.906 147.601C232.625 147.817 232.414 148.111 232.271 148.483C232.132 148.852 232.063 149.267 232.063 149.727C232.063 150.193 232.134 150.616 232.276 150.997C232.421 151.375 232.634 151.676 232.915 151.901C233.199 152.122 233.551 152.233 233.972 152.233ZM241.561 153.136C240.931 153.136 240.387 152.997 239.929 152.719C239.475 152.438 239.124 152.045 238.877 151.543C238.632 151.037 238.51 150.449 238.51 149.778C238.51 149.108 238.632 148.517 238.877 148.006C239.124 147.491 239.468 147.091 239.908 146.804C240.351 146.514 240.868 146.369 241.459 146.369C241.8 146.369 242.137 146.426 242.469 146.54C242.801 146.653 243.104 146.838 243.377 147.094C243.649 147.347 243.867 147.682 244.029 148.099C244.191 148.517 244.271 149.031 244.271 149.642V150.068H239.226V149.199H243.249C243.249 148.83 243.175 148.5 243.027 148.21C242.882 147.92 242.675 147.692 242.405 147.524C242.138 147.357 241.823 147.273 241.459 147.273C241.058 147.273 240.712 147.372 240.419 147.571C240.129 147.767 239.906 148.023 239.75 148.338C239.594 148.653 239.516 148.991 239.516 149.352V149.932C239.516 150.426 239.601 150.845 239.771 151.189C239.945 151.53 240.185 151.79 240.492 151.969C240.798 152.145 241.155 152.233 241.561 152.233C241.825 152.233 242.064 152.196 242.277 152.122C242.493 152.045 242.679 151.932 242.835 151.781C242.992 151.628 243.112 151.437 243.198 151.21L244.169 151.483C244.067 151.812 243.895 152.102 243.654 152.352C243.412 152.599 243.114 152.793 242.759 152.932C242.404 153.068 242.004 153.136 241.561 153.136ZM248.46 153.136C247.869 153.136 247.351 152.996 246.905 152.714C246.462 152.433 246.115 152.04 245.865 151.534C245.618 151.028 245.494 150.437 245.494 149.761C245.494 149.08 245.618 148.484 245.865 147.976C246.115 147.467 246.462 147.072 246.905 146.791C247.351 146.51 247.869 146.369 248.46 146.369C249.051 146.369 249.568 146.51 250.012 146.791C250.458 147.072 250.804 147.467 251.051 147.976C251.301 148.484 251.426 149.08 251.426 149.761C251.426 150.437 251.301 151.028 251.051 151.534C250.804 152.04 250.458 152.433 250.012 152.714C249.568 152.996 249.051 153.136 248.46 153.136ZM248.46 152.233C248.909 152.233 249.279 152.118 249.568 151.888C249.858 151.658 250.073 151.355 250.212 150.98C250.351 150.605 250.421 150.199 250.421 149.761C250.421 149.324 250.351 148.916 250.212 148.538C250.073 148.161 249.858 147.855 249.568 147.622C249.279 147.389 248.909 147.273 248.46 147.273C248.012 147.273 247.642 147.389 247.352 147.622C247.063 147.855 246.848 148.161 246.709 148.538C246.57 148.916 246.5 149.324 246.5 149.761C246.5 150.199 246.57 150.605 246.709 150.98C246.848 151.355 247.063 151.658 247.352 151.888C247.642 152.118 248.012 152.233 248.46 152.233ZM258.263 153.153C257.848 153.153 257.471 153.075 257.133 152.919C256.795 152.76 256.527 152.531 256.328 152.233C256.129 151.932 256.03 151.568 256.03 151.142C256.03 150.767 256.104 150.463 256.251 150.23C256.399 149.994 256.596 149.81 256.844 149.676C257.091 149.543 257.363 149.443 257.662 149.378C257.963 149.31 258.265 149.256 258.569 149.216C258.967 149.165 259.29 149.126 259.537 149.101C259.787 149.072 259.969 149.026 260.082 148.96C260.199 148.895 260.257 148.781 260.257 148.619V148.585C260.257 148.165 260.142 147.838 259.912 147.605C259.684 147.372 259.339 147.256 258.876 147.256C258.396 147.256 258.02 147.361 257.747 147.571C257.474 147.781 257.282 148.006 257.172 148.244L256.217 147.903C256.388 147.506 256.615 147.196 256.899 146.974C257.186 146.75 257.498 146.594 257.836 146.506C258.177 146.415 258.513 146.369 258.842 146.369C259.052 146.369 259.294 146.395 259.567 146.446C259.842 146.494 260.108 146.595 260.363 146.749C260.622 146.902 260.836 147.134 261.007 147.443C261.177 147.753 261.263 148.168 261.263 148.688V153H260.257V152.114H260.206C260.138 152.256 260.024 152.408 259.865 152.57C259.706 152.732 259.494 152.869 259.23 152.983C258.966 153.097 258.643 153.153 258.263 153.153ZM258.416 152.25C258.814 152.25 259.149 152.172 259.422 152.016C259.697 151.859 259.905 151.658 260.044 151.411C260.186 151.163 260.257 150.903 260.257 150.631V149.71C260.214 149.761 260.121 149.808 259.976 149.851C259.834 149.891 259.669 149.926 259.481 149.957C259.297 149.986 259.116 150.011 258.94 150.034C258.767 150.054 258.626 150.071 258.518 150.085C258.257 150.119 258.013 150.175 257.785 150.251C257.561 150.325 257.379 150.437 257.24 150.588C257.104 150.736 257.035 150.937 257.035 151.193C257.035 151.543 257.165 151.807 257.423 151.986C257.684 152.162 258.015 152.25 258.416 152.25ZM263.098 155.455V146.455H264.07V147.494H264.189C264.263 147.381 264.365 147.236 264.496 147.06C264.629 146.881 264.82 146.722 265.067 146.582C265.317 146.44 265.655 146.369 266.081 146.369C266.632 146.369 267.118 146.507 267.539 146.783C267.959 147.058 268.287 147.449 268.523 147.955C268.759 148.46 268.877 149.057 268.877 149.744C268.877 150.438 268.759 151.038 268.523 151.547C268.287 152.053 267.96 152.445 267.543 152.723C267.125 152.999 266.644 153.136 266.098 153.136C265.678 153.136 265.341 153.067 265.088 152.928C264.835 152.786 264.641 152.625 264.504 152.446C264.368 152.264 264.263 152.114 264.189 151.994H264.104V155.455H263.098ZM264.087 149.727C264.087 150.222 264.159 150.658 264.304 151.036C264.449 151.411 264.661 151.705 264.939 151.918C265.218 152.128 265.558 152.233 265.962 152.233C266.382 152.233 266.733 152.122 267.014 151.901C267.298 151.676 267.512 151.375 267.654 150.997C267.798 150.616 267.871 150.193 267.871 149.727C267.871 149.267 267.8 148.852 267.658 148.483C267.519 148.111 267.307 147.817 267.023 147.601C266.742 147.382 266.388 147.273 265.962 147.273C265.553 147.273 265.209 147.376 264.931 147.584C264.652 147.788 264.442 148.075 264.3 148.445C264.158 148.811 264.087 149.239 264.087 149.727ZM270.411 155.455V146.455H271.382V147.494H271.502C271.575 147.381 271.678 147.236 271.808 147.06C271.942 146.881 272.132 146.722 272.379 146.582C272.629 146.44 272.968 146.369 273.394 146.369C273.945 146.369 274.431 146.507 274.851 146.783C275.271 147.058 275.6 147.449 275.835 147.955C276.071 148.46 276.189 149.057 276.189 149.744C276.189 150.438 276.071 151.038 275.835 151.547C275.6 152.053 275.273 152.445 274.855 152.723C274.438 152.999 273.956 153.136 273.411 153.136C272.99 153.136 272.654 153.067 272.401 152.928C272.148 152.786 271.953 152.625 271.817 152.446C271.681 152.264 271.575 152.114 271.502 151.994H271.416V155.455H270.411ZM271.399 149.727C271.399 150.222 271.472 150.658 271.617 151.036C271.762 151.411 271.973 151.705 272.252 151.918C272.53 152.128 272.871 152.233 273.274 152.233C273.695 152.233 274.046 152.122 274.327 151.901C274.611 151.676 274.824 151.375 274.966 150.997C275.111 150.616 275.183 150.193 275.183 149.727C275.183 149.267 275.112 148.852 274.97 148.483C274.831 148.111 274.619 147.817 274.335 147.601C274.054 147.382 273.7 147.273 273.274 147.273C272.865 147.273 272.521 147.376 272.243 147.584C271.965 147.788 271.754 148.075 271.612 148.445C271.47 148.811 271.399 149.239 271.399 149.727Z" fill="black"/>
<path d="M282 62L287.641 63.2302L285.886 57.7299L282 62ZM281.854 18.4782C287.676 20.2573 294.058 22.7276 299.549 25.695C305.057 28.6713 309.599 32.1113 311.826 35.8001C312.933 37.6331 313.456 39.5081 313.265 41.4145C313.074 43.3214 312.162 45.317 310.294 47.3803C306.541 51.5262 299.003 55.8626 286.124 60.1592L286.441 61.1078C299.356 56.799 307.102 52.3965 311.036 48.0514C313.011 45.8692 314.043 43.6813 314.26 41.5142C314.478 39.3467 313.874 37.2574 312.682 35.2833C310.313 31.3581 305.573 27.8132 300.025 24.8152C294.461 21.8082 288.014 19.3147 282.146 17.5218L281.854 18.4782Z" fill="black"/>
<path d="M237.398 3.27273H238.455V9.51136C238.455 10.0682 238.352 10.5412 238.148 10.9304C237.943 11.3196 237.655 11.6151 237.283 11.8168C236.911 12.0185 236.472 12.1193 235.966 12.1193C235.489 12.1193 235.064 12.0327 234.692 11.8594C234.32 11.6832 234.027 11.4332 233.814 11.1094C233.601 10.7855 233.494 10.4006 233.494 9.95455H234.534C234.534 10.2017 234.595 10.4176 234.717 10.6023C234.842 10.7841 235.013 10.9261 235.229 11.0284C235.445 11.1307 235.69 11.1818 235.966 11.1818C236.27 11.1818 236.528 11.1179 236.741 10.9901C236.955 10.8622 237.116 10.6747 237.227 10.4276C237.341 10.1776 237.398 9.87216 237.398 9.51136V3.27273ZM242.362 12.1534C241.947 12.1534 241.571 12.0753 241.233 11.919C240.895 11.7599 240.626 11.5312 240.428 11.233C240.229 10.9318 240.129 10.5682 240.129 10.142C240.129 9.76705 240.203 9.46307 240.351 9.23011C240.499 8.99432 240.696 8.80966 240.943 8.67614C241.19 8.54261 241.463 8.44318 241.761 8.37784C242.063 8.30966 242.365 8.25568 242.669 8.21591C243.067 8.16477 243.389 8.12642 243.636 8.10085C243.886 8.07244 244.068 8.02557 244.182 7.96023C244.298 7.89489 244.357 7.78125 244.357 7.61932V7.58523C244.357 7.16477 244.241 6.83807 244.011 6.60511C243.784 6.37216 243.439 6.25568 242.976 6.25568C242.496 6.25568 242.119 6.3608 241.847 6.57102C241.574 6.78125 241.382 7.00568 241.271 7.24432L240.317 6.90341C240.487 6.50568 240.714 6.19602 240.999 5.97443C241.286 5.75 241.598 5.59375 241.936 5.50568C242.277 5.41477 242.612 5.36932 242.942 5.36932C243.152 5.36932 243.393 5.39489 243.666 5.44602C243.942 5.49432 244.207 5.59517 244.463 5.74858C244.722 5.90199 244.936 6.13352 245.107 6.44318C245.277 6.75284 245.362 7.16761 245.362 7.6875V12H244.357V11.1136H244.305C244.237 11.2557 244.124 11.4077 243.964 11.5696C243.805 11.7315 243.594 11.8693 243.33 11.983C243.065 12.0966 242.743 12.1534 242.362 12.1534ZM242.516 11.25C242.913 11.25 243.249 11.1719 243.521 11.0156C243.797 10.8594 244.004 10.6577 244.143 10.4105C244.286 10.1634 244.357 9.90341 244.357 9.63068V8.71023C244.314 8.76136 244.22 8.80824 244.075 8.85085C243.933 8.89062 243.768 8.92614 243.581 8.95739C243.396 8.9858 243.216 9.01136 243.04 9.03409C242.866 9.05398 242.726 9.07102 242.618 9.08523C242.357 9.11932 242.112 9.17472 241.885 9.25142C241.661 9.32528 241.479 9.4375 241.339 9.58807C241.203 9.7358 241.135 9.9375 241.135 10.1932C241.135 10.5426 241.264 10.8068 241.523 10.9858C241.784 11.1619 242.115 11.25 242.516 11.25ZM252.316 5.45455L249.895 12H248.873L246.452 5.45455H247.543L249.35 10.6705H249.418L251.225 5.45455H252.316ZM255.37 12.1534C254.955 12.1534 254.579 12.0753 254.241 11.919C253.903 11.7599 253.634 11.5312 253.435 11.233C253.237 10.9318 253.137 10.5682 253.137 10.142C253.137 9.76705 253.211 9.46307 253.359 9.23011C253.506 8.99432 253.704 8.80966 253.951 8.67614C254.198 8.54261 254.471 8.44318 254.769 8.37784C255.07 8.30966 255.373 8.25568 255.677 8.21591C256.075 8.16477 256.397 8.12642 256.644 8.10085C256.894 8.07244 257.076 8.02557 257.19 7.96023C257.306 7.89489 257.364 7.78125 257.364 7.61932V7.58523C257.364 7.16477 257.249 6.83807 257.019 6.60511C256.792 6.37216 256.447 6.25568 255.984 6.25568C255.504 6.25568 255.127 6.3608 254.854 6.57102C254.582 6.78125 254.39 7.00568 254.279 7.24432L253.325 6.90341C253.495 6.50568 253.722 6.19602 254.006 5.97443C254.293 5.75 254.606 5.59375 254.944 5.50568C255.285 5.41477 255.62 5.36932 255.95 5.36932C256.16 5.36932 256.401 5.39489 256.674 5.44602C256.95 5.49432 257.215 5.59517 257.471 5.74858C257.729 5.90199 257.944 6.13352 258.114 6.44318C258.285 6.75284 258.37 7.16761 258.37 7.6875V12H257.364V11.1136H257.313C257.245 11.2557 257.131 11.4077 256.972 11.5696C256.813 11.7315 256.602 11.8693 256.337 11.983C256.073 12.0966 255.751 12.1534 255.37 12.1534ZM255.523 11.25C255.921 11.25 256.256 11.1719 256.529 11.0156C256.805 10.8594 257.012 10.6577 257.151 10.4105C257.293 10.1634 257.364 9.90341 257.364 9.63068V8.71023C257.322 8.76136 257.228 8.80824 257.083 8.85085C256.941 8.89062 256.776 8.92614 256.589 8.95739C256.404 8.9858 256.224 9.01136 256.048 9.03409C255.874 9.05398 255.734 9.07102 255.626 9.08523C255.364 9.11932 255.12 9.17472 254.893 9.25142C254.668 9.32528 254.487 9.4375 254.347 9.58807C254.211 9.7358 254.143 9.9375 254.143 10.1932C254.143 10.5426 254.272 10.8068 254.531 10.9858C254.792 11.1619 255.123 11.25 255.523 11.25ZM265.115 5.45455C265.064 5.02273 264.856 4.6875 264.493 4.44886C264.129 4.21023 263.683 4.09091 263.154 4.09091C262.768 4.09091 262.43 4.15341 262.14 4.27841C261.853 4.40341 261.629 4.57528 261.467 4.79403C261.308 5.01278 261.228 5.26136 261.228 5.53977C261.228 5.77273 261.284 5.97301 261.395 6.14062C261.508 6.3054 261.653 6.44318 261.829 6.55398C262.005 6.66193 262.19 6.75142 262.383 6.82244C262.576 6.89062 262.754 6.94602 262.916 6.98864L263.802 7.22727C264.029 7.28693 264.282 7.36932 264.561 7.47443C264.842 7.57955 265.11 7.72301 265.366 7.90483C265.625 8.08381 265.838 8.31392 266.005 8.59517C266.173 8.87642 266.257 9.22159 266.257 9.63068C266.257 10.1023 266.133 10.5284 265.886 10.9091C265.642 11.2898 265.284 11.5923 264.812 11.8168C264.343 12.0412 263.774 12.1534 263.103 12.1534C262.478 12.1534 261.937 12.0526 261.48 11.8509C261.025 11.6491 260.667 11.3679 260.406 11.0071C260.147 10.6463 260.001 10.2273 259.967 9.75H261.058C261.086 10.0795 261.197 10.3523 261.39 10.5682C261.586 10.7812 261.833 10.9403 262.132 11.0455C262.433 11.1477 262.757 11.1989 263.103 11.1989C263.507 11.1989 263.869 11.1335 264.19 11.0028C264.511 10.8693 264.765 10.6847 264.953 10.4489C265.14 10.2102 265.234 9.93182 265.234 9.61364C265.234 9.32386 265.153 9.08807 264.991 8.90625C264.829 8.72443 264.616 8.5767 264.352 8.46307C264.088 8.34943 263.802 8.25 263.495 8.16477L262.422 7.85795C261.74 7.66193 261.2 7.3821 260.802 7.01847C260.404 6.65483 260.206 6.17898 260.206 5.59091C260.206 5.10227 260.338 4.67614 260.602 4.3125C260.869 3.94602 261.227 3.66193 261.676 3.46023C262.127 3.25568 262.632 3.15341 263.189 3.15341C263.751 3.15341 264.251 3.25426 264.689 3.45597C265.126 3.65483 265.473 3.92756 265.728 4.27415C265.987 4.62074 266.123 5.0142 266.137 5.45455H265.115ZM270.517 12.1364C269.903 12.1364 269.375 11.9915 268.932 11.7017C268.489 11.4119 268.148 11.0128 267.909 10.5043C267.67 9.99574 267.551 9.41477 267.551 8.76136C267.551 8.09659 267.673 7.50994 267.918 7.00142C268.165 6.49006 268.509 6.09091 268.949 5.80398C269.392 5.5142 269.909 5.36932 270.5 5.36932C270.96 5.36932 271.375 5.45455 271.744 5.625C272.114 5.79545 272.416 6.03409 272.652 6.34091C272.888 6.64773 273.034 7.00568 273.091 7.41477H272.085C272.009 7.11648 271.838 6.85227 271.574 6.62216C271.313 6.3892 270.96 6.27273 270.517 6.27273C270.125 6.27273 269.781 6.375 269.486 6.57955C269.193 6.78125 268.964 7.06676 268.8 7.43608C268.638 7.80256 268.557 8.23295 268.557 8.72727C268.557 9.23295 268.636 9.6733 268.795 10.0483C268.957 10.4233 269.185 10.7145 269.477 10.9219C269.773 11.1293 270.119 11.233 270.517 11.233C270.778 11.233 271.016 11.1875 271.229 11.0966C271.442 11.0057 271.622 10.875 271.77 10.7045C271.918 10.5341 272.023 10.3295 272.085 10.0909H273.091C273.034 10.4773 272.893 10.8253 272.669 11.1349C272.447 11.4418 272.153 11.6861 271.787 11.8679C271.423 12.0469 271 12.1364 270.517 12.1364ZM274.561 12V5.45455H275.533V6.44318H275.601C275.72 6.11932 275.936 5.85653 276.249 5.65483C276.561 5.45312 276.913 5.35227 277.305 5.35227C277.379 5.35227 277.472 5.35369 277.582 5.35653C277.693 5.35937 277.777 5.36364 277.834 5.36932V6.39205C277.8 6.38352 277.722 6.37074 277.599 6.35369C277.48 6.33381 277.354 6.32386 277.22 6.32386C276.902 6.32386 276.618 6.39062 276.368 6.52415C276.121 6.65483 275.925 6.83665 275.78 7.0696C275.638 7.29972 275.567 7.5625 275.567 7.85795V12H274.561ZM279.026 12V5.45455H280.032V12H279.026ZM279.537 4.36364C279.341 4.36364 279.172 4.29688 279.03 4.16335C278.891 4.02983 278.821 3.86932 278.821 3.68182C278.821 3.49432 278.891 3.33381 279.03 3.20028C279.172 3.06676 279.341 3 279.537 3C279.733 3 279.901 3.06676 280.04 3.20028C280.182 3.33381 280.253 3.49432 280.253 3.68182C280.253 3.86932 280.182 4.02983 280.04 4.16335C279.901 4.29688 279.733 4.36364 279.537 4.36364ZM281.874 14.4545V5.45455H282.845V6.49432H282.964C283.038 6.38068 283.141 6.2358 283.271 6.05966C283.405 5.88068 283.595 5.72159 283.842 5.58239C284.092 5.44034 284.43 5.36932 284.857 5.36932C285.408 5.36932 285.893 5.5071 286.314 5.78267C286.734 6.05824 287.063 6.44886 287.298 6.95455C287.534 7.46023 287.652 8.05682 287.652 8.74432C287.652 9.4375 287.534 10.0384 287.298 10.5469C287.063 11.0526 286.736 11.4446 286.318 11.723C285.901 11.9986 285.419 12.1364 284.874 12.1364C284.453 12.1364 284.116 12.0668 283.864 11.9276C283.611 11.7855 283.416 11.625 283.28 11.446C283.143 11.2642 283.038 11.1136 282.964 10.9943H282.879V14.4545H281.874ZM282.862 8.72727C282.862 9.22159 282.935 9.65767 283.08 10.0355C283.224 10.4105 283.436 10.7045 283.714 10.9176C283.993 11.1278 284.334 11.233 284.737 11.233C285.158 11.233 285.509 11.1222 285.79 10.9006C286.074 10.6761 286.287 10.375 286.429 9.99716C286.574 9.61648 286.646 9.19318 286.646 8.72727C286.646 8.26705 286.575 7.85227 286.433 7.48295C286.294 7.1108 286.082 6.81676 285.798 6.60085C285.517 6.3821 285.163 6.27273 284.737 6.27273C284.328 6.27273 283.984 6.37642 283.706 6.58381C283.428 6.78835 283.217 7.07528 283.075 7.4446C282.933 7.81108 282.862 8.23864 282.862 8.72727ZM292.033 5.45455V6.30682H288.641V5.45455H292.033ZM289.629 3.88636H290.635V10.125C290.635 10.4091 290.676 10.6222 290.759 10.7642C290.844 10.9034 290.952 10.9972 291.082 11.0455C291.216 11.0909 291.357 11.1136 291.504 11.1136C291.615 11.1136 291.706 11.108 291.777 11.0966C291.848 11.0824 291.905 11.071 291.947 11.0625L292.152 11.9659C292.084 11.9915 291.989 12.017 291.866 12.0426C291.744 12.071 291.589 12.0852 291.402 12.0852C291.118 12.0852 290.839 12.0241 290.567 11.902C290.297 11.7798 290.072 11.5938 289.893 11.3438C289.717 11.0938 289.629 10.7784 289.629 10.3977V3.88636Z" fill="black"/>
</svg>
