<svg version="1.1" viewBox="0.0 0.0 960.0 720.0" fill="none" stroke="none" stroke-linecap="square" stroke-miterlimit="10" xmlns:xlink="http://www.w3.org/1999/xlink" xmlns="http://www.w3.org/2000/svg"><clipPath id="p.0"><path d="m0 0l960.0 0l0 720.0l-960.0 0l0 -720.0z" clip-rule="nonzero"/></clipPath><g clip-path="url(#p.0)"><path fill="#000000" fill-opacity="0.0" d="m0 0l960.0 0l0 720.0l-960.0 0z" fill-rule="evenodd"/><path fill="#eeeeee" d="m104.149605 78.86614l126.803154 0l0 52.062996l-126.803154 0z" fill-rule="evenodd"/><path stroke="#cccccc" stroke-width="1.0" stroke-linejoin="round" stroke-linecap="butt" d="m104.149605 78.86614l126.803154 0l0 52.062996l-126.803154 0z" fill-rule="evenodd"/><path fill="#000000" d="m154.48868 107.07014l1.4375 -0.125q0.09375 0.859375 0.46875 1.421875q0.375 0.546875 1.15625 0.890625q0.78125 0.328125 1.75 0.328125q0.875 0 1.53125 -0.25q0.671875 -0.265625 0.984375 -0.703125q0.328125 -0.453125 0.328125 -0.984375q0 -0.546875 -0.3125 -0.9375q-0.3125 -0.40625 -1.03125 -0.6875q-0.453125 -0.171875 -2.03125 -0.546875q-1.578125 -0.390625 -2.21875 -0.71875q-0.8125 -0.4375 -1.21875 -1.0625q-0.40625 -0.640625 -0.40625 -1.4375q0 -0.859375 0.484375 -1.609375q0.5 -0.765625 1.4375 -1.15625q0.953125 -0.390625 2.109375 -0.390625q1.28125 0 2.25 0.421875q0.96875 0.40625 1.484375 1.203125q0.53125 0.796875 0.578125 1.796875l-1.453125 0.109375q-0.125 -1.078125 -0.796875 -1.625q-0.671875 -0.5625 -2.0 -0.5625q-1.375 0 -2.0 0.5q-0.625 0.5 -0.625 1.21875q0 0.609375 0.4375 1.015625q0.4375 0.390625 2.28125 0.8125q1.859375 0.421875 2.546875 0.734375q1.0 0.453125 1.46875 1.171875q0.484375 0.703125 0.484375 1.625q0 0.90625 -0.53125 1.71875q-0.515625 0.8125 -1.5 1.265625q-0.984375 0.453125 -2.203125 0.453125q-1.5625 0 -2.609375 -0.453125q-1.046875 -0.46875 -1.65625 -1.375q-0.59375 -0.90625 -0.625 -2.0625zm10.734375 -1.890625q0 -2.859375 1.53125 -4.46875q1.53125 -1.609375 3.953125 -1.609375q1.578125 0 2.84375 0.765625q1.28125 0.75 1.953125 2.109375q0.671875 1.34375 0.671875 3.0625q0 1.75 -0.703125 3.125q-0.703125 1.375 -2.0 2.09375q-1.28125 0.703125 -2.78125 0.703125q-1.609375 0 -2.890625 -0.78125q-1.265625 -0.796875 -1.921875 -2.140625q-0.65625 -1.359375 -0.65625 -2.859375zm1.5625 0.015625q0 2.078125 1.109375 3.265625q1.109375 1.1875 2.796875 1.1875q1.703125 0 2.8125 -1.203125q1.109375 -1.203125 1.109375 -3.40625q0 -1.40625 -0.484375 -2.4375q-0.46875 -1.046875 -1.375 -1.625q-0.90625 -0.578125 -2.046875 -0.578125q-1.609375 0 -2.765625 1.109375q-1.15625 1.109375 -1.15625 3.6875zm11.6015625 5.5625l0 -11.453125l1.515625 0l0 11.453125l-1.515625 0z" fill-rule="nonzero"/><path fill="#eeeeee" d="m104.149605 130.92914l126.803154 0l0 52.06299l-126.803154 0z" fill-rule="evenodd"/><path stroke="#cccccc" stroke-width="1.0" stroke-linejoin="round" stroke-linecap="butt" d="m104.149605 130.92914l126.803154 0l0 52.06299l-126.803154 0z" fill-rule="evenodd"/><path fill="#000000" d="m147.0629 162.82063l4.40625 -11.453125l1.640625 0l4.6875 11.453125l-1.734375 0l-1.328125 -3.46875l-4.796875 0l-1.25 3.46875l-1.625 0zm3.3125 -4.703125l3.890625 0l-1.203125 -3.171875q-0.546875 -1.453125 -0.8125 -2.375q-0.21875 1.09375 -0.609375 2.1875l-1.265625 3.359375zm8.625 4.703125l0 -11.453125l4.328125 0q1.140625 0 1.734375 0.109375q0.84375 0.140625 1.40625 0.53125q0.578125 0.390625 0.921875 1.109375q0.359375 0.703125 0.359375 1.5625q0 1.453125 -0.9375 2.46875q-0.921875 1.015625 -3.359375 1.015625l-2.9375 0l0 4.65625l-1.515625 0zm1.515625 -6.015625l2.96875 0q1.46875 0 2.078125 -0.546875q0.625 -0.546875 0.625 -1.53125q0 -0.71875 -0.375 -1.234375q-0.359375 -0.515625 -0.953125 -0.671875q-0.375 -0.109375 -1.40625 -0.109375l-2.9375 0l0 4.09375zm9.15625 6.015625l0 -11.453125l4.328125 0q1.140625 0 1.734375 0.109375q0.84375 0.140625 1.40625 0.53125q0.578125 0.390625 0.921875 1.109375q0.359375 0.703125 0.359375 1.5625q0 1.453125 -0.9375 2.46875q-0.921875 1.015625 -3.359375 1.015625l-2.9375 0l0 4.65625l-1.515625 0zm1.515625 -6.015625l2.96875 0q1.46875 0 2.078125 -0.546875q0.625 -0.546875 0.625 -1.53125q0 -0.71875 -0.375 -1.234375q-0.359375 -0.515625 -0.953125 -0.671875q-0.375 -0.109375 -1.40625 -0.109375l-2.9375 0l0 4.09375zm8.59375 0.359375q0 -2.03125 0.40625 -3.265625q0.421875 -1.234375 1.25 -1.90625q0.828125 -0.671875 2.078125 -0.671875q0.921875 0 1.609375 0.375q0.703125 0.359375 1.15625 1.0625q0.453125 0.703125 0.703125 1.703125q0.265625 1.0 0.265625 2.703125q0 2.015625 -0.421875 3.265625q-0.40625 1.234375 -1.234375 1.921875q-0.828125 0.671875 -2.078125 0.671875q-1.65625 0 -2.609375 -1.203125q-1.125 -1.421875 -1.125 -4.65625zm1.4375 0q0 2.828125 0.65625 3.765625q0.671875 0.921875 1.640625 0.921875q0.96875 0 1.625 -0.9375q0.65625 -0.9375 0.65625 -3.75q0 -2.828125 -0.65625 -3.75q-0.65625 -0.9375 -1.640625 -0.9375q-0.96875 0 -1.546875 0.828125q-0.734375 1.046875 -0.734375 3.859375z" fill-rule="nonzero"/><path fill="#eeeeee" d="m104.149605 182.99213l126.803154 0l0 52.06299l-126.803154 0z" fill-rule="evenodd"/><path stroke="#cccccc" stroke-width="1.0" stroke-linejoin="round" stroke-linecap="butt" d="m104.149605 182.99213l126.803154 0l0 52.06299l-126.803154 0z" fill-rule="evenodd"/><path fill="#000000" d="m147.0629 214.88362l4.40625 -11.453125l1.640625 0l4.6875 11.453125l-1.734375 0l-1.328125 -3.46875l-4.796875 0l-1.25 3.46875l-1.625 0zm3.3125 -4.703125l3.890625 0l-1.203125 -3.171875q-0.546875 -1.453125 -0.8125 -2.375q-0.21875 1.09375 -0.609375 2.1875l-1.265625 3.359375zm8.625 4.703125l0 -11.453125l4.328125 0q1.140625 0 1.734375 0.109375q0.84375 0.140625 1.40625 0.53125q0.578125 0.390625 0.921875 1.109375q0.359375 0.703125 0.359375 1.5625q0 1.453125 -0.9375 2.46875q-0.921875 1.015625 -3.359375 1.015625l-2.9375 0l0 4.65625l-1.515625 0zm1.515625 -6.015625l2.96875 0q1.46875 0 2.078125 -0.546875q0.625 -0.546875 0.625 -1.53125q0 -0.71875 -0.375 -1.234375q-0.359375 -0.515625 -0.953125 -0.671875q-0.375 -0.109375 -1.40625 -0.109375l-2.9375 0l0 4.09375zm9.15625 6.015625l0 -11.453125l4.328125 0q1.140625 0 1.734375 0.109375q0.84375 0.140625 1.40625 0.53125q0.578125 0.390625 0.921875 1.109375q0.359375 0.703125 0.359375 1.5625q0 1.453125 -0.9375 2.46875q-0.921875 1.015625 -3.359375 1.015625l-2.9375 0l0 4.65625l-1.515625 0zm1.515625 -6.015625l2.96875 0q1.46875 0 2.078125 -0.546875q0.625 -0.546875 0.625 -1.53125q0 -0.71875 -0.375 -1.234375q-0.359375 -0.515625 -0.953125 -0.671875q-0.375 -0.109375 -1.40625 -0.109375l-2.9375 0l0 4.09375zm13.890625 6.015625l-1.40625 0l0 -8.96875q-0.515625 0.484375 -1.34375 0.96875q-0.8125 0.484375 -1.46875 0.734375l0 -1.359375q1.171875 -0.5625 2.046875 -1.34375q0.890625 -0.796875 1.265625 -1.53125l0.90625 0l0 11.5z" fill-rule="nonzero"/><path fill="#eeeeee" d="m104.149605 287.1181l126.803154 0l0 40.094482l-126.803154 0z" fill-rule="evenodd"/><path stroke="#cccccc" stroke-width="1.0" stroke-linejoin="round" stroke-linecap="butt" d="m104.149605 287.1181l126.803154 0l0 40.094482l-126.803154 0z" fill-rule="evenodd"/><path fill="#000000" d="m154.48868 309.33786l1.4375 -0.125q0.09375 0.859375 0.46875 1.421875q0.375 0.546875 1.15625 0.890625q0.78125 0.328125 1.75 0.328125q0.875 0 1.53125 -0.25q0.671875 -0.265625 0.984375 -0.703125q0.328125 -0.453125 0.328125 -0.984375q0 -0.546875 -0.3125 -0.9375q-0.3125 -0.40625 -1.03125 -0.6875q-0.453125 -0.171875 -2.03125 -0.546875q-1.578125 -0.390625 -2.21875 -0.71875q-0.8125 -0.4375 -1.21875 -1.0625q-0.40625 -0.640625 -0.40625 -1.4375q0 -0.859375 0.484375 -1.609375q0.5 -0.765625 1.4375 -1.15625q0.953125 -0.390625 2.109375 -0.390625q1.28125 0 2.25 0.421875q0.96875 0.40625 1.484375 1.203125q0.53125 0.796875 0.578125 1.796875l-1.453125 0.109375q-0.125 -1.078125 -0.796875 -1.625q-0.671875 -0.5625 -2.0 -0.5625q-1.375 0 -2.0 0.5q-0.625 0.5 -0.625 1.21875q0 0.609375 0.4375 1.015625q0.4375 0.390625 2.28125 0.8125q1.859375 0.421875 2.546875 0.734375q1.0 0.453125 1.46875 1.171875q0.484375 0.703125 0.484375 1.625q0 0.90625 -0.53125 1.71875q-0.515625 0.8125 -1.5 1.265625q-0.984375 0.453125 -2.203125 0.453125q-1.5625 0 -2.609375 -0.453125q-1.046875 -0.46875 -1.65625 -1.375q-0.59375 -0.90625 -0.625 -2.0625zm10.734375 -1.890625q0 -2.859375 1.53125 -4.46875q1.53125 -1.609375 3.953125 -1.609375q1.578125 0 2.84375 0.765625q1.28125 0.75 1.953125 2.109375q0.671875 1.34375 0.671875 3.0625q0 1.75 -0.703125 3.125q-0.703125 1.375 -2.0 2.09375q-1.28125 0.703125 -2.78125 0.703125q-1.609375 0 -2.890625 -0.78125q-1.265625 -0.796875 -1.921875 -2.140625q-0.65625 -1.359375 -0.65625 -2.859375zm1.5625 0.015625q0 2.078125 1.109375 3.265625q1.109375 1.1875 2.796875 1.1875q1.703125 0 2.8125 -1.203125q1.109375 -1.203125 1.109375 -3.40625q0 -1.40625 -0.484375 -2.4375q-0.46875 -1.046875 -1.375 -1.625q-0.90625 -0.578125 -2.046875 -0.578125q-1.609375 0 -2.765625 1.109375q-1.15625 1.109375 -1.15625 3.6875zm11.6015625 5.5625l0 -11.453125l1.515625 0l0 11.453125l-1.515625 0z" fill-rule="nonzero"/><path fill="#eeeeee" d="m104.149605 409.07086l126.803154 0l0 52.06299l-126.803154 0z" fill-rule="evenodd"/><path stroke="#cccccc" stroke-width="1.0" stroke-linejoin="round" stroke-linecap="butt" d="m104.149605 409.07086l126.803154 0l0 52.06299l-126.803154 0z" fill-rule="evenodd"/><path fill="#000000" d="m155.03555 440.96237l0 -11.453125l8.28125 0l0 1.34375l-6.765625 0l0 3.515625l6.34375 0l0 1.34375l-6.34375 0l0 3.890625l7.03125 0l0 1.359375l-8.546875 0zm10.1875 -5.578125q0 -2.859375 1.53125 -4.46875q1.53125 -1.609375 3.953125 -1.609375q1.578125 0 2.84375 0.765625q1.28125 0.75 1.953125 2.109375q0.671875 1.34375 0.671875 3.0625q0 1.75 -0.703125 3.125q-0.703125 1.375 -2.0 2.09375q-1.28125 0.703125 -2.78125 0.703125q-1.609375 0 -2.890625 -0.78125q-1.265625 -0.796875 -1.921875 -2.140625q-0.65625 -1.359375 -0.65625 -2.859375zm1.5625 0.015625q0 2.078125 1.109375 3.265625q1.109375 1.1875 2.796875 1.1875q1.703125 0 2.8125 -1.203125q1.109375 -1.203125 1.109375 -3.40625q0 -1.40625 -0.484375 -2.4375q-0.46875 -1.046875 -1.375 -1.625q-0.90625 -0.578125 -2.046875 -0.578125q-1.609375 0 -2.765625 1.109375q-1.15625 1.109375 -1.15625 3.6875zm11.6015625 5.5625l0 -11.453125l1.515625 0l0 11.453125l-1.515625 0z" fill-rule="nonzero"/><path fill="#000000" fill-opacity="0.0" d="m101.88714 281.13385l0 -40.094482l118.86614 0l0 40.094482z" fill-rule="evenodd"/><path fill="#ffffff" d="m167.27147 267.01093q-0.609375 0 -0.921875 -0.265625q-0.3125 -0.28125 -0.3125 -0.796875q0 -0.53125 0.3125 -0.828125q0.3125 -0.296875 0.921875 -0.296875q0.59375 0 0.921875 0.296875q0.3125 0.296875 0.3125 0.828125q0 0.453125 -0.28125 0.765625q-0.296875 0.296875 -0.953125 0.296875zm0 -5.0q-0.609375 0 -0.921875 -0.265625q-0.3125 -0.28125 -0.3125 -0.796875q0 -0.53125 0.3125 -0.828125q0.3125 -0.296875 0.921875 -0.296875q0.59375 0 0.921875 0.296875q0.3125 0.296875 0.3125 0.828125q0 0.453125 -0.28125 0.765625q-0.296875 0.296875 -0.953125 0.296875zm0 -5.0q-0.609375 0 -0.921875 -0.265625q-0.3125 -0.28125 -0.3125 -0.79689026q0 -0.53125 0.3125 -0.828125q0.3125 -0.296875 0.921875 -0.296875q0.59375 0 0.921875 0.296875q0.3125 0.296875 0.3125 0.828125q0 0.45314026 -0.28125 0.76564026q-0.296875 0.296875 -0.953125 0.296875z" fill-rule="nonzero"/><path fill="#eeeeee" d="m104.149605 327.2126l126.803154 0l0 81.85828l-126.803154 0z" fill-rule="evenodd"/><path stroke="#cccccc" stroke-width="1.0" stroke-linejoin="round" stroke-linecap="butt" d="m104.149605 327.2126l126.803154 0l0 81.85828l-126.803154 0z" fill-rule="evenodd"/><path fill="#000000" d="m131.60587 360.4861l1.515625 0.375q-0.46875 1.875 -1.71875 2.859375q-1.234375 0.984375 -3.015625 0.984375q-1.859375 0 -3.015625 -0.75q-1.15625 -0.765625 -1.765625 -2.1875q-0.609375 -1.4375 -0.609375 -3.078125q0 -1.796875 0.6875 -3.125q0.6875 -1.328125 1.9375 -2.015625q1.265625 -0.703125 2.78125 -0.703125q1.71875 0 2.890625 0.875q1.171875 0.875 1.640625 2.46875l-1.5 0.34375q-0.390625 -1.25 -1.15625 -1.8125q-0.75 -0.578125 -1.90625 -0.578125q-1.3125 0 -2.203125 0.640625q-0.890625 0.625 -1.25 1.703125q-0.359375 1.0625 -0.359375 2.1875q0 1.46875 0.421875 2.5625q0.4375 1.078125 1.328125 1.625q0.90625 0.53125 1.953125 0.53125q1.265625 0 2.140625 -0.734375q0.890625 -0.734375 1.203125 -2.171875zm2.6796875 -0.140625q0 -2.296875 1.28125 -3.40625q1.078125 -0.921875 2.609375 -0.921875q1.71875 0 2.796875 1.125q1.09375 1.109375 1.09375 3.09375q0 1.59375 -0.484375 2.515625q-0.484375 0.921875 -1.40625 1.4375q-0.90625 0.5 -2.0 0.5q-1.734375 0 -2.8125 -1.109375q-1.078125 -1.125 -1.078125 -3.234375zm1.453125 0q0 1.59375 0.6875 2.390625q0.703125 0.796875 1.75 0.796875q1.046875 0 1.734375 -0.796875q0.703125 -0.796875 0.703125 -2.4375q0 -1.53125 -0.703125 -2.328125q-0.6875 -0.796875 -1.734375 -0.796875q-1.046875 0 -1.75 0.796875q-0.6875 0.78125 -0.6875 2.375zm7.9765625 4.15625l0 -8.296875l1.25 0l0 1.15625q0.390625 -0.609375 1.03125 -0.96875q0.65625 -0.375 1.484375 -0.375q0.921875 0 1.515625 0.390625q0.59375 0.375 0.828125 1.0625q0.984375 -1.453125 2.5625 -1.453125q1.234375 0 1.890625 0.6875q0.671875 0.671875 0.671875 2.09375l0 5.703125l-1.390625 0l0 -5.234375q0 -0.84375 -0.140625 -1.203125q-0.140625 -0.375 -0.5 -0.59375q-0.359375 -0.234375 -0.84375 -0.234375q-0.875 0 -1.453125 0.578125q-0.578125 0.578125 -0.578125 1.859375l0 4.828125l-1.40625 0l0 -5.390625q0 -0.9375 -0.34375 -1.40625q-0.34375 -0.46875 -1.125 -0.46875q-0.59375 0 -1.09375 0.3125q-0.5 0.3125 -0.734375 0.921875q-0.21875 0.59375 -0.21875 1.71875l0 4.3125l-1.40625 0zm13.328125 3.1875l0 -11.484375l1.28125 0l0 1.078125q0.453125 -0.640625 1.015625 -0.953125q0.578125 -0.3125 1.390625 -0.3125q1.0625 0 1.875 0.546875q0.8125 0.546875 1.21875 1.546875q0.421875 0.984375 0.421875 2.171875q0 1.28125 -0.46875 2.296875q-0.453125 1.015625 -1.328125 1.5625q-0.859375 0.546875 -1.828125 0.546875q-0.703125 0 -1.265625 -0.296875q-0.546875 -0.296875 -0.90625 -0.75l0 4.046875l-1.40625 0zm1.265625 -7.296875q0 1.609375 0.640625 2.375q0.65625 0.765625 1.578125 0.765625q0.9375 0 1.609375 -0.796875q0.671875 -0.796875 0.671875 -2.453125q0 -1.59375 -0.65625 -2.375q-0.65625 -0.796875 -1.5625 -0.796875q-0.890625 0 -1.59375 0.84375q-0.6875 0.84375 -0.6875 2.4375zm7.6171875 4.109375l0 -8.296875l1.265625 0l0 1.25q0.484375 -0.875 0.890625 -1.15625q0.40625 -0.28125 0.90625 -0.28125q0.703125 0 1.4375 0.453125l-0.484375 1.296875q-0.515625 -0.296875 -1.03125 -0.296875q-0.453125 0 -0.828125 0.28125q-0.359375 0.265625 -0.515625 0.765625q-0.234375 0.75 -0.234375 1.640625l0 4.34375l-1.40625 0zm11.015625 -2.671875l1.453125 0.171875q-0.34375 1.28125 -1.28125 1.984375q-0.921875 0.703125 -2.359375 0.703125q-1.828125 0 -2.890625 -1.125q-1.0625 -1.125 -1.0625 -3.140625q0 -2.09375 1.078125 -3.25q1.078125 -1.15625 2.796875 -1.15625q1.65625 0 2.703125 1.140625q1.0625 1.125 1.0625 3.171875q0 0.125 0 0.375l-6.1875 0q0.078125 1.375 0.765625 2.109375q0.703125 0.71875 1.734375 0.71875q0.78125 0 1.328125 -0.40625q0.546875 -0.40625 0.859375 -1.296875zm-4.609375 -2.28125l4.625 0q-0.09375 -1.046875 -0.53125 -1.5625q-0.671875 -0.8125 -1.734375 -0.8125q-0.96875 0 -1.640625 0.65625q-0.65625 0.640625 -0.71875 1.71875zm7.2734375 2.46875l1.390625 -0.21875q0.109375 0.84375 0.640625 1.296875q0.546875 0.4375 1.5 0.4375q0.96875 0 1.4375 -0.390625q0.46875 -0.40625 0.46875 -0.9375q0 -0.46875 -0.40625 -0.75q-0.296875 -0.1875 -1.4375 -0.46875q-1.546875 -0.390625 -2.15625 -0.671875q-0.59375 -0.296875 -0.90625 -0.796875q-0.296875 -0.5 -0.296875 -1.109375q0 -0.5625 0.25 -1.03125q0.25 -0.46875 0.6875 -0.78125q0.328125 -0.25 0.890625 -0.40625q0.578125 -0.171875 1.21875 -0.171875q0.984375 0 1.71875 0.28125q0.734375 0.28125 1.078125 0.765625q0.359375 0.46875 0.5 1.28125l-1.375 0.1875q-0.09375 -0.640625 -0.546875 -1.0q-0.453125 -0.359375 -1.265625 -0.359375q-0.96875 0 -1.390625 0.328125q-0.40625 0.3125 -0.40625 0.734375q0 0.28125 0.171875 0.5q0.171875 0.21875 0.53125 0.375q0.21875 0.078125 1.25 0.359375q1.484375 0.390625 2.078125 0.65625q0.59375 0.25 0.921875 0.734375q0.34375 0.484375 0.34375 1.203125q0 0.703125 -0.421875 1.328125q-0.40625 0.609375 -1.1875 0.953125q-0.765625 0.34375 -1.734375 0.34375q-1.625 0 -2.46875 -0.671875q-0.84375 -0.671875 -1.078125 -2.0zm8.0 0l1.390625 -0.21875q0.109375 0.84375 0.640625 1.296875q0.546875 0.4375 1.5 0.4375q0.96875 0 1.4375 -0.390625q0.46875 -0.40625 0.46875 -0.9375q0 -0.46875 -0.40625 -0.75q-0.296875 -0.1875 -1.4375 -0.46875q-1.546875 -0.390625 -2.15625 -0.671875q-0.59375 -0.296875 -0.90625 -0.796875q-0.296875 -0.5 -0.296875 -1.109375q0 -0.5625 0.25 -1.03125q0.25 -0.46875 0.6875 -0.78125q0.328125 -0.25 0.890625 -0.40625q0.578125 -0.171875 1.21875 -0.171875q0.984375 0 1.71875 0.28125q0.734375 0.28125 1.078125 0.765625q0.359375 0.46875 0.5 1.28125l-1.375 0.1875q-0.09375 -0.640625 -0.546875 -1.0q-0.453125 -0.359375 -1.265625 -0.359375q-0.96875 0 -1.390625 0.328125q-0.40625 0.3125 -0.40625 0.734375q0 0.28125 0.171875 0.5q0.171875 0.21875 0.53125 0.375q0.21875 0.078125 1.25 0.359375q1.484375 0.390625 2.078125 0.65625q0.59375 0.25 0.921875 0.734375q0.34375 0.484375 0.34375 1.203125q0 0.703125 -0.421875 1.328125q-0.40625 0.609375 -1.1875 0.953125q-0.765625 0.34375 -1.734375 0.34375q-1.625 0 -2.46875 -0.671875q-0.84375 -0.671875 -1.078125 -2.0zm14.234375 -0.1875l1.453125 0.171875q-0.34375 1.28125 -1.28125 1.984375q-0.921875 0.703125 -2.359375 0.703125q-1.828125 0 -2.890625 -1.125q-1.0625 -1.125 -1.0625 -3.140625q0 -2.09375 1.078125 -3.25q1.078125 -1.15625 2.796875 -1.15625q1.65625 0 2.703125 1.140625q1.0625 1.125 1.0625 3.171875q0 0.125 0 0.375l-6.1875 0q0.078125 1.375 0.765625 2.109375q0.703125 0.71875 1.734375 0.71875q0.78125 0 1.328125 -0.40625q0.546875 -0.40625 0.859375 -1.296875zm-4.609375 -2.28125l4.625 0q-0.09375 -1.046875 -0.53125 -1.5625q-0.671875 -0.8125 -1.734375 -0.8125q-0.96875 0 -1.640625 0.65625q-0.65625 0.640625 -0.71875 1.71875zm13.2109375 4.953125l0 -1.046875q-0.78125 1.234375 -2.3125 1.234375q-1.0 0 -1.828125 -0.546875q-0.828125 -0.546875 -1.296875 -1.53125q-0.453125 -0.984375 -0.453125 -2.25q0 -1.25 0.40625 -2.25q0.421875 -1.015625 1.25 -1.546875q0.828125 -0.546875 1.859375 -0.546875q0.75 0 1.328125 0.3125q0.59375 0.3125 0.953125 0.828125l0 -4.109375l1.40625 0l0 11.453125l-1.3125 0zm-4.4375 -4.140625q0 1.59375 0.671875 2.390625q0.671875 0.78125 1.578125 0.78125q0.921875 0 1.5625 -0.75q0.65625 -0.765625 0.65625 -2.3125q0 -1.703125 -0.65625 -2.5q-0.65625 -0.796875 -1.625 -0.796875q-0.9375 0 -1.5625 0.765625q-0.625 0.765625 -0.625 2.421875z" fill-rule="nonzero"/><path fill="#000000" d="m129.03165 373.658l0 -1.609375l1.40625 0l0 1.609375l-1.40625 0zm0 9.84375l0 -8.296875l1.40625 0l0 8.296875l-1.40625 0zm3.5546875 0l0 -8.296875l1.25 0l0 1.15625q0.390625 -0.609375 1.03125 -0.96875q0.65625 -0.375 1.484375 -0.375q0.921875 0 1.515625 0.390625q0.59375 0.375 0.828125 1.0625q0.984375 -1.453125 2.5625 -1.453125q1.234375 0 1.890625 0.6875q0.671875 0.671875 0.671875 2.09375l0 5.703125l-1.390625 0l0 -5.234375q0 -0.84375 -0.140625 -1.203125q-0.140625 -0.375 -0.5 -0.59375q-0.359375 -0.234375 -0.84375 -0.234375q-0.875 0 -1.453125 0.578125q-0.578125 0.578125 -0.578125 1.859375l0 4.828125l-1.40625 0l0 -5.390625q0 -0.9375 -0.34375 -1.40625q-0.34375 -0.46875 -1.125 -0.46875q-0.59375 0 -1.09375 0.3125q-0.5 0.3125 -0.734375 0.921875q-0.21875 0.59375 -0.21875 1.71875l0 4.3125l-1.40625 0zm18.734375 -1.03125q-0.78125 0.671875 -1.5 0.953125q-0.71875 0.265625 -1.546875 0.265625q-1.375 0 -2.109375 -0.671875q-0.734375 -0.671875 -0.734375 -1.703125q0 -0.609375 0.28125 -1.109375q0.28125 -0.515625 0.71875 -0.8125q0.453125 -0.3125 1.015625 -0.46875q0.421875 -0.109375 1.25 -0.203125q1.703125 -0.203125 2.515625 -0.484375q0 -0.296875 0 -0.375q0 -0.859375 -0.390625 -1.203125q-0.546875 -0.484375 -1.609375 -0.484375q-0.984375 0 -1.46875 0.359375q-0.46875 0.34375 -0.6875 1.21875l-1.375 -0.1875q0.1875 -0.875 0.609375 -1.421875q0.4375 -0.546875 1.25 -0.828125q0.8125 -0.296875 1.875 -0.296875q1.0625 0 1.71875 0.25q0.671875 0.25 0.984375 0.625q0.3125 0.375 0.4375 0.953125q0.078125 0.359375 0.078125 1.296875l0 1.875q0 1.96875 0.078125 2.484375q0.09375 0.515625 0.359375 1.0l-1.46875 0q-0.21875 -0.4375 -0.28125 -1.03125zm-0.109375 -3.140625q-0.765625 0.3125 -2.296875 0.53125q-0.875 0.125 -1.234375 0.28125q-0.359375 0.15625 -0.5625 0.46875q-0.1875 0.296875 -0.1875 0.65625q0 0.5625 0.421875 0.9375q0.4375 0.375 1.25 0.375q0.8125 0 1.4375 -0.34375q0.640625 -0.359375 0.9375 -0.984375q0.234375 -0.46875 0.234375 -1.40625l0 -0.515625zm3.3359375 4.859375l1.375 0.203125q0.078125 0.640625 0.46875 0.921875q0.53125 0.390625 1.4375 0.390625q0.96875 0 1.5 -0.390625q0.53125 -0.390625 0.71875 -1.09375q0.109375 -0.421875 0.109375 -1.8125q-0.921875 1.09375 -2.296875 1.09375q-1.71875 0 -2.65625 -1.234375q-0.9375 -1.234375 -0.9375 -2.96875q0 -1.1875 0.421875 -2.1875q0.4375 -1.0 1.25 -1.546875q0.828125 -0.546875 1.921875 -0.546875q1.46875 0 2.421875 1.1875l0 -1.0l1.296875 0l0 7.171875q0 1.9375 -0.390625 2.75q-0.390625 0.8125 -1.25 1.28125q-0.859375 0.46875 -2.109375 0.46875q-1.484375 0 -2.40625 -0.671875q-0.90625 -0.671875 -0.875 -2.015625zm1.171875 -4.984375q0 1.625 0.640625 2.375q0.65625 0.75 1.625 0.75q0.96875 0 1.625 -0.734375q0.65625 -0.75 0.65625 -2.34375q0 -1.53125 -0.671875 -2.296875q-0.671875 -0.78125 -1.625 -0.78125q-0.9375 0 -1.59375 0.765625q-0.65625 0.765625 -0.65625 2.265625zm13.6640625 1.625l1.453125 0.171875q-0.34375 1.28125 -1.28125 1.984375q-0.921875 0.703125 -2.359375 0.703125q-1.828125 0 -2.890625 -1.125q-1.0625 -1.125 -1.0625 -3.140625q0 -2.09375 1.078125 -3.25q1.078125 -1.15625 2.796875 -1.15625q1.65625 0 2.703125 1.140625q1.0625 1.125 1.0625 3.171875q0 0.125 0 0.375l-6.1875 0q0.078125 1.375 0.765625 2.109375q0.703125 0.71875 1.734375 0.71875q0.78125 0 1.328125 -0.40625q0.546875 -0.40625 0.859375 -1.296875zm-4.609375 -2.28125l4.625 0q-0.09375 -1.046875 -0.53125 -1.5625q-0.671875 -0.8125 -1.734375 -0.8125q-0.96875 0 -1.640625 0.65625q-0.65625 0.640625 -0.71875 1.71875zm17.65625 4.953125l0 -1.046875q-0.78125 1.234375 -2.3125 1.234375q-1.0 0 -1.828125 -0.546875q-0.828125 -0.546875 -1.296875 -1.53125q-0.453125 -0.984375 -0.453125 -2.25q0 -1.25 0.40625 -2.25q0.421875 -1.015625 1.25 -1.546875q0.828125 -0.546875 1.859375 -0.546875q0.75 0 1.328125 0.3125q0.59375 0.3125 0.953125 0.828125l0 -4.109375l1.40625 0l0 11.453125l-1.3125 0zm-4.4375 -4.140625q0 1.59375 0.671875 2.390625q0.671875 0.78125 1.578125 0.78125q0.921875 0 1.5625 -0.75q0.65625 -0.765625 0.65625 -2.3125q0 -1.703125 -0.65625 -2.5q-0.65625 -0.796875 -1.625 -0.796875q-0.9375 0 -1.5625 0.765625q-0.625 0.765625 -0.625 2.421875zm13.3671875 3.109375q-0.78125 0.671875 -1.5 0.953125q-0.71875 0.265625 -1.546875 0.265625q-1.375 0 -2.109375 -0.671875q-0.734375 -0.671875 -0.734375 -1.703125q0 -0.609375 0.28125 -1.109375q0.28125 -0.515625 0.71875 -0.8125q0.453125 -0.3125 1.015625 -0.46875q0.421875 -0.109375 1.25 -0.203125q1.703125 -0.203125 2.515625 -0.484375q0 -0.296875 0 -0.375q0 -0.859375 -0.390625 -1.203125q-0.546875 -0.484375 -1.609375 -0.484375q-0.984375 0 -1.46875 0.359375q-0.46875 0.34375 -0.6875 1.21875l-1.375 -0.1875q0.1875 -0.875 0.609375 -1.421875q0.4375 -0.546875 1.25 -0.828125q0.8125 -0.296875 1.875 -0.296875q1.0625 0 1.71875 0.25q0.671875 0.25 0.984375 0.625q0.3125 0.375 0.4375 0.953125q0.078125 0.359375 0.078125 1.296875l0 1.875q0 1.96875 0.078125 2.484375q0.09375 0.515625 0.359375 1.0l-1.46875 0q-0.21875 -0.4375 -0.28125 -1.03125zm-0.109375 -3.140625q-0.765625 0.3125 -2.296875 0.53125q-0.875 0.125 -1.234375 0.28125q-0.359375 0.15625 -0.5625 0.46875q-0.1875 0.296875 -0.1875 0.65625q0 0.5625 0.421875 0.9375q0.4375 0.375 1.25 0.375q0.8125 0 1.4375 -0.34375q0.640625 -0.359375 0.9375 -0.984375q0.234375 -0.46875 0.234375 -1.40625l0 -0.515625zm6.6640625 2.90625l0.203125 1.25q-0.59375 0.125 -1.0625 0.125q-0.765625 0 -1.1875 -0.234375q-0.421875 -0.25 -0.59375 -0.640625q-0.171875 -0.40625 -0.171875 -1.671875l0 -4.765625l-1.03125 0l0 -1.09375l1.03125 0l0 -2.0625l1.40625 -0.84375l0 2.90625l1.40625 0l0 1.09375l-1.40625 0l0 4.84375q0 0.609375 0.0625 0.78125q0.078125 0.171875 0.25 0.28125q0.171875 0.09375 0.484375 0.09375q0.234375 0 0.609375 -0.0625zm6.7890625 0.234375q-0.78125 0.671875 -1.5 0.953125q-0.71875 0.265625 -1.546875 0.265625q-1.375 0 -2.109375 -0.671875q-0.734375 -0.671875 -0.734375 -1.703125q0 -0.609375 0.28125 -1.109375q0.28125 -0.515625 0.71875 -0.8125q0.453125 -0.3125 1.015625 -0.46875q0.421875 -0.109375 1.25 -0.203125q1.703125 -0.203125 2.515625 -0.484375q0 -0.296875 0 -0.375q0 -0.859375 -0.390625 -1.203125q-0.546875 -0.484375 -1.609375 -0.484375q-0.984375 0 -1.46875 0.359375q-0.46875 0.34375 -0.6875 1.21875l-1.375 -0.1875q0.1875 -0.875 0.609375 -1.421875q0.4375 -0.546875 1.25 -0.828125q0.8125 -0.296875 1.875 -0.296875q1.0625 0 1.71875 0.25q0.671875 0.25 0.984375 0.625q0.3125 0.375 0.4375 0.953125q0.078125 0.359375 0.078125 1.296875l0 1.875q0 1.96875 0.078125 2.484375q0.09375 0.515625 0.359375 1.0l-1.46875 0q-0.21875 -0.4375 -0.28125 -1.03125zm-0.109375 -3.140625q-0.765625 0.3125 -2.296875 0.53125q-0.875 0.125 -1.234375 0.28125q-0.359375 0.15625 -0.5625 0.46875q-0.1875 0.296875 -0.1875 0.65625q0 0.5625 0.421875 0.9375q0.4375 0.375 1.25 0.375q0.8125 0 1.4375 -0.34375q0.640625 -0.359375 0.9375 -0.984375q0.234375 -0.46875 0.234375 -1.40625l0 -0.515625z" fill-rule="nonzero"/><path fill="#000000" fill-opacity="0.0" d="m127.92913 462.81104l79.2441 0l0 52.06299l-79.2441 0z" fill-rule="evenodd"/><path fill="#f3f3f3" d="m147.35536 499.2625q-0.859375 0 -1.34375 -0.234375l0 -1.328125q0.640625 0.1875 1.34375 0.1875q0.90625 0 1.375 -0.546875q0.46875 -0.546875 0.46875 -1.578125l0 -13.3125l1.546875 0l0 13.1875q0 1.734375 -0.875 2.671875q-0.875 0.953125 -2.515625 0.953125zm15.37352 -12.9375q0 2.015625 -1.390625 3.109375q-1.375 1.09375 -3.9375 1.09375l-1.578125 0l0 5.234375l-1.546875 0l0 -13.3125l3.453125 0q5.0 0 5.0 3.875zm-6.90625 2.875l1.390625 0q2.0625 0 2.984375 -0.65625q0.921875 -0.671875 0.921875 -2.140625q0 -1.328125 -0.875 -1.96875q-0.859375 -0.65625 -2.6875 -0.65625l-1.734375 0l0 5.421875zm17.10701 6.5625l-7.421875 0l0 -13.3125l7.421875 0l0 1.375l-5.875 0l0 4.28125l5.53125 0l0 1.375l-5.53125 0l0 4.890625l5.875 0l0 1.390625zm8.813217 -6.984375l4.53125 0l0 6.484375q-1.0625 0.34375 -2.15625 0.515625q-1.09375 0.171875 -2.53125 0.171875q-3.015625 0 -4.703125 -1.796875q-1.6875 -1.8125 -1.6875 -5.046875q0 -2.078125 0.828125 -3.640625q0.84375 -1.5625 2.40625 -2.390625q1.5625 -0.828125 3.671875 -0.828125q2.125 0 3.96875 0.796875l-0.59375 1.359375q-1.8125 -0.765625 -3.484375 -0.765625q-2.421875 0 -3.796875 1.453125q-1.359375 1.4375 -1.359375 4.015625q0 2.6875 1.3125 4.09375q1.3125 1.390625 3.875 1.390625q1.375 0 2.703125 -0.328125l0 -4.09375l-2.984375 0l0 -1.390625z" fill-rule="nonzero"/><path fill="#eeeeee" d="m330.71652 78.86614l126.80316 0l0 26.047241l-126.80316 0z" fill-rule="evenodd"/><path stroke="#cccccc" stroke-width="1.0" stroke-linejoin="round" stroke-linecap="butt" d="m330.71652 78.86614l126.80316 0l0 26.047241l-126.80316 0z" fill-rule="evenodd"/><path fill="#000000" d="m369.16107 97.74976l0 -11.453125l1.515625 0l0 4.703125l5.953125 0l0 -4.703125l1.515625 0l0 11.453125l-1.515625 0l0 -5.40625l-5.953125 0l0 5.40625l-1.515625 0zm17.007812 -2.671875l1.453125 0.171875q-0.34375 1.28125 -1.28125 1.984375q-0.921875 0.703125 -2.359375 0.703125q-1.828125 0 -2.890625 -1.125q-1.0625 -1.125 -1.0625 -3.140625q0 -2.09375 1.078125 -3.25q1.078125 -1.15625 2.796875 -1.15625q1.65625 0 2.703125 1.140625q1.0625 1.125 1.0625 3.171875q0 0.125 0 0.375l-6.1875 0q0.078125 1.375 0.765625 2.109375q0.703125 0.71875 1.734375 0.71875q0.78125 0 1.328125 -0.40625q0.546875 -0.40625 0.859375 -1.296875zm-4.609375 -2.28125l4.625 0q-0.09375 -1.046875 -0.53125 -1.5625q-0.671875 -0.8125 -1.734375 -0.8125q-0.96875 0 -1.640625 0.65625q-0.65625 0.640625 -0.71875 1.71875zm13.2421875 3.921875q-0.78125 0.671875 -1.5 0.953125q-0.71875 0.265625 -1.546875 0.265625q-1.375 0 -2.109375 -0.671875q-0.734375 -0.671875 -0.734375 -1.703125q0 -0.609375 0.28125 -1.109375q0.28125 -0.515625 0.71875 -0.8125q0.453125 -0.3125 1.015625 -0.46875q0.421875 -0.109375 1.25 -0.203125q1.703125 -0.203125 2.515625 -0.484375q0 -0.296875 0 -0.375q0 -0.859375 -0.390625 -1.203125q-0.546875 -0.484375 -1.609375 -0.484375q-0.984375 0 -1.46875 0.359375q-0.46875 0.34375 -0.6875 1.21875l-1.375 -0.1875q0.1875 -0.875 0.609375 -1.421875q0.4375 -0.546875 1.25 -0.828125q0.8125 -0.296875 1.875 -0.296875q1.0625 0 1.71875 0.25q0.671875 0.25 0.984375 0.625q0.3125 0.375 0.4375 0.953125q0.078125 0.359375 0.078125 1.296875l0 1.875q0 1.96875 0.078125 2.484375q0.09375 0.515625 0.359375 1.0l-1.46875 0q-0.21875 -0.4375 -0.28125 -1.03125zm-0.109375 -3.140625q-0.765625 0.3125 -2.296875 0.53125q-0.875 0.125 -1.234375 0.28125q-0.359375 0.15625 -0.5625 0.46875q-0.1875 0.296875 -0.1875 0.65625q0 0.5625 0.421875 0.9375q0.4375 0.375 1.25 0.375q0.8125 0 1.4375 -0.34375q0.640625 -0.359375 0.9375 -0.984375q0.234375 -0.46875 0.234375 -1.40625l0 -0.515625zm8.9765625 4.171875l0 -1.046875q-0.78125 1.234375 -2.3125 1.234375q-1.0 0 -1.828125 -0.546875q-0.828125 -0.546875 -1.296875 -1.53125q-0.453125 -0.984375 -0.453125 -2.25q0 -1.25 0.40625 -2.25q0.421875 -1.015625 1.25 -1.546875q0.828125 -0.546875 1.859375 -0.546875q0.75 0 1.328125 0.3125q0.59375 0.3125 0.953125 0.828125l0 -4.109375l1.40625 0l0 11.453125l-1.3125 0zm-4.4375 -4.140625q0 1.59375 0.671875 2.390625q0.671875 0.78125 1.578125 0.78125q0.921875 0 1.5625 -0.75q0.65625 -0.765625 0.65625 -2.3125q0 -1.703125 -0.65625 -2.5q-0.65625 -0.796875 -1.625 -0.796875q-0.9375 0 -1.5625 0.765625q-0.625 0.765625 -0.625 2.421875zm13.6328125 1.46875l1.453125 0.171875q-0.34375 1.28125 -1.28125 1.984375q-0.921875 0.703125 -2.359375 0.703125q-1.828125 0 -2.890625 -1.125q-1.0625 -1.125 -1.0625 -3.140625q0 -2.09375 1.078125 -3.25q1.078125 -1.15625 2.796875 -1.15625q1.65625 0 2.703125 1.140625q1.0625 1.125 1.0625 3.171875q0 0.125 0 0.375l-6.1875 0q0.078125 1.375 0.765625 2.109375q0.703125 0.71875 1.734375 0.71875q0.78125 0 1.328125 -0.40625q0.546875 -0.40625 0.859375 -1.296875zm-4.609375 -2.28125l4.625 0q-0.09375 -1.046875 -0.53125 -1.5625q-0.671875 -0.8125 -1.734375 -0.8125q-0.96875 0 -1.640625 0.65625q-0.65625 0.640625 -0.71875 1.71875zm7.8203125 4.953125l0 -8.296875l1.265625 0l0 1.25q0.484375 -0.875 0.890625 -1.15625q0.40625 -0.28125 0.90625 -0.28125q0.703125 0 1.4375 0.453125l-0.484375 1.296875q-0.515625 -0.296875 -1.03125 -0.296875q-0.453125 0 -0.828125 0.28125q-0.359375 0.265625 -0.515625 0.765625q-0.234375 0.75 -0.234375 1.640625l0 4.34375l-1.40625 0z" fill-rule="nonzero"/><path fill="#eeeeee" d="m330.71652 104.91338l126.80316 0l0 68.314964l-126.80316 0z" fill-rule="evenodd"/><path stroke="#cccccc" stroke-width="1.0" stroke-linejoin="round" stroke-linecap="butt" d="m330.71652 104.91338l126.80316 0l0 68.314964l-126.80316 0z" fill-rule="evenodd"/><path fill="#000000" d="m368.5595 139.27461q0 -2.03125 0.40625 -3.265625q0.421875 -1.234375 1.25 -1.90625q0.828125 -0.671875 2.078125 -0.671875q0.921875 0 1.609375 0.375q0.703125 0.359375 1.15625 1.0625q0.453125 0.703125 0.703125 1.703125q0.265625 1.0 0.265625 2.703125q0 2.015625 -0.421875 3.265625q-0.40625 1.234375 -1.234375 1.921875q-0.828125 0.671875 -2.078125 0.671875q-1.65625 0 -2.609375 -1.203125q-1.125 -1.421875 -1.125 -4.65625zm1.4375 0q0 2.828125 0.65625 3.765625q0.671875 0.921875 1.640625 0.921875q0.96875 0 1.625 -0.9375q0.65625 -0.9375 0.65625 -3.75q0 -2.828125 -0.65625 -3.75q-0.65625 -0.9375 -1.640625 -0.9375q-0.96875 0 -1.546875 0.828125q-0.734375 1.046875 -0.734375 3.859375zm10.9140625 4.390625l0.203125 1.25q-0.59375 0.125 -1.0625 0.125q-0.765625 0 -1.1875 -0.234375q-0.421875 -0.25 -0.59375 -0.640625q-0.171875 -0.40625 -0.171875 -1.671875l0 -4.765625l-1.03125 0l0 -1.09375l1.03125 0l0 -2.0625l1.40625 -0.84375l0 2.90625l1.40625 0l0 1.09375l-1.40625 0l0 4.84375q0 0.609375 0.0625 0.78125q0.078125 0.171875 0.25 0.28125q0.171875 0.09375 0.484375 0.09375q0.234375 0 0.609375 -0.0625zm1.3828125 1.265625l0 -11.453125l1.40625 0l0 4.109375q0.984375 -1.140625 2.484375 -1.140625q0.921875 0 1.59375 0.359375q0.6875 0.359375 0.96875 1.0q0.296875 0.640625 0.296875 1.859375l0 5.265625l-1.40625 0l0 -5.265625q0 -1.046875 -0.453125 -1.53125q-0.453125 -0.484375 -1.296875 -0.484375q-0.625 0 -1.171875 0.328125q-0.546875 0.328125 -0.78125 0.890625q-0.234375 0.546875 -0.234375 1.515625l0 4.546875l-1.40625 0zm13.78125 0l0 -11.453125l1.515625 0l0 11.453125l-1.515625 0zm4.2578125 0l0 -11.453125l7.734375 0l0 1.34375l-6.21875 0l0 3.546875l5.375 0l0 1.359375l-5.375 0l0 5.203125l-1.515625 0zm9.6953125 0l0 -11.453125l3.953125 0q1.328125 0 2.03125 0.15625q0.984375 0.234375 1.6875 0.828125q0.90625 0.765625 1.34375 1.953125q0.453125 1.1875 0.453125 2.71875q0 1.3125 -0.3125 2.328125q-0.296875 1.0 -0.78125 1.65625q-0.46875 0.65625 -1.03125 1.046875q-0.5625 0.375 -1.375 0.578125q-0.796875 0.1875 -1.828125 0.1875l-4.140625 0zm1.515625 -1.359375l2.453125 0q1.125 0 1.765625 -0.203125q0.65625 -0.21875 1.03125 -0.59375q0.546875 -0.546875 0.84375 -1.453125q0.296875 -0.90625 0.296875 -2.203125q0 -1.796875 -0.59375 -2.765625q-0.578125 -0.96875 -1.421875 -1.296875q-0.609375 -0.234375 -1.96875 -0.234375l-2.40625 0l0 8.75z" fill-rule="nonzero"/><path fill="#eeeeee" d="m330.71652 201.14961l126.80316 0l0 52.06299l-126.80316 0z" fill-rule="evenodd"/><path stroke="#cccccc" stroke-width="1.0" stroke-linejoin="round" stroke-linecap="butt" d="m330.71652 201.14961l126.80316 0l0 52.06299l-126.80316 0z" fill-rule="evenodd"/><path fill="#000000" d="m362.4931 233.0411l0 -11.453125l8.28125 0l0 1.34375l-6.765625 0l0 3.515625l6.34375 0l0 1.34375l-6.34375 0l0 3.890625l7.03125 0l0 1.359375l-8.546875 0zm9.484375 0l4.421875 -5.96875l-3.90625 -5.484375l1.8125 0l2.078125 2.9375q0.640625 0.90625 0.921875 1.40625q0.375 -0.625 0.90625 -1.3125l2.296875 -3.03125l1.65625 0l-4.03125 5.390625l4.34375 6.0625l-1.875 0l-2.890625 -4.09375q-0.234375 -0.34375 -0.5 -0.765625q-0.375 0.625 -0.546875 0.859375l-2.875 4.0l-1.8125 0zm12.09375 0l0 -11.453125l1.515625 0l0 11.453125l-1.515625 0zm4.2578125 0l0 -11.453125l7.734375 0l0 1.34375l-6.21875 0l0 3.546875l5.375 0l0 1.359375l-5.375 0l0 5.203125l-1.515625 0zm14.40625 0l0 -11.453125l1.515625 0l0 11.453125l-1.515625 0zm4.2578125 0l0 -11.453125l7.734375 0l0 1.34375l-6.21875 0l0 3.546875l5.375 0l0 1.359375l-5.375 0l0 5.203125l-1.515625 0zm9.6953125 0l0 -11.453125l3.953125 0q1.328125 0 2.03125 0.15625q0.984375 0.234375 1.6875 0.828125q0.90625 0.765625 1.34375 1.953125q0.453125 1.1875 0.453125 2.71875q0 1.3125 -0.3125 2.328125q-0.296875 1.0 -0.78125 1.65625q-0.46875 0.65625 -1.03125 1.046875q-0.5625 0.375 -1.375 0.578125q-0.796875 0.1875 -1.828125 0.1875l-4.140625 0zm1.515625 -1.359375l2.453125 0q1.125 0 1.765625 -0.203125q0.65625 -0.21875 1.03125 -0.59375q0.546875 -0.546875 0.84375 -1.453125q0.296875 -0.90625 0.296875 -2.203125q0 -1.796875 -0.59375 -2.765625q-0.578125 -0.96875 -1.421875 -1.296875q-0.609375 -0.234375 -1.96875 -0.234375l-2.40625 0l0 8.75z" fill-rule="nonzero"/><path fill="#eeeeee" d="m330.71652 173.22835l126.80316 0l0 34.740158l-126.80316 0z" fill-rule="evenodd"/><path stroke="#cccccc" stroke-width="1.0" stroke-linejoin="round" stroke-linecap="butt" d="m330.71652 173.22835l126.80316 0l0 34.740158l-126.80316 0z" fill-rule="evenodd"/><path fill="#000000" d="m378.76654 196.45842l-4.4375 -11.453125l1.640625 0l2.96875 8.3125q0.359375 1.0 0.609375 1.875q0.265625 -0.9375 0.609375 -1.875l3.09375 -8.3125l1.546875 0l-4.484375 11.453125l-1.546875 0zm11.4375 -1.03125q-0.78125 0.671875 -1.5 0.953125q-0.71875 0.265625 -1.546875 0.265625q-1.375 0 -2.109375 -0.671875q-0.734375 -0.671875 -0.734375 -1.703125q0 -0.609375 0.28125 -1.109375q0.28125 -0.515625 0.71875 -0.8125q0.453125 -0.3125 1.015625 -0.46875q0.421875 -0.109375 1.25 -0.203125q1.703125 -0.203125 2.515625 -0.484375q0 -0.296875 0 -0.375q0 -0.859375 -0.390625 -1.203125q-0.546875 -0.484375 -1.609375 -0.484375q-0.984375 0 -1.46875 0.359375q-0.46875 0.34375 -0.6875 1.21875l-1.375 -0.1875q0.1875 -0.875 0.609375 -1.421875q0.4375 -0.546875 1.25 -0.828125q0.8125 -0.296875 1.875 -0.296875q1.0625 0 1.71875 0.25q0.671875 0.25 0.984375 0.625q0.3125 0.375 0.4375 0.953125q0.078125 0.359375 0.078125 1.296875l0 1.875q0 1.96875 0.078125 2.484375q0.09375 0.515625 0.359375 1.0l-1.46875 0q-0.21875 -0.4375 -0.28125 -1.03125zm-0.109375 -3.140625q-0.765625 0.3125 -2.296875 0.53125q-0.875 0.125 -1.234375 0.28125q-0.359375 0.15625 -0.5625 0.46875q-0.1875 0.296875 -0.1875 0.65625q0 0.5625 0.421875 0.9375q0.4375 0.375 1.25 0.375q0.8125 0 1.4375 -0.34375q0.640625 -0.359375 0.9375 -0.984375q0.234375 -0.46875 0.234375 -1.40625l0 -0.515625zm3.5703125 4.171875l0 -11.453125l1.40625 0l0 11.453125l-1.40625 0zm9.0234375 0l0 -1.21875q-0.96875 1.40625 -2.640625 1.40625q-0.734375 0 -1.375 -0.28125q-0.625 -0.28125 -0.9375 -0.703125q-0.3125 -0.4375 -0.4375 -1.046875q-0.078125 -0.421875 -0.078125 -1.3125l0 -5.140625l1.40625 0l0 4.59375q0 1.109375 0.078125 1.484375q0.140625 0.5625 0.5625 0.875q0.4375 0.3125 1.0625 0.3125q0.640625 0 1.1875 -0.3125q0.5625 -0.328125 0.78125 -0.890625q0.234375 -0.5625 0.234375 -1.625l0 -4.4375l1.40625 0l0 8.296875l-1.25 0zm9.1328125 -2.671875l1.453125 0.171875q-0.34375 1.28125 -1.28125 1.984375q-0.921875 0.703125 -2.359375 0.703125q-1.828125 0 -2.890625 -1.125q-1.0625 -1.125 -1.0625 -3.140625q0 -2.09375 1.078125 -3.25q1.078125 -1.15625 2.796875 -1.15625q1.65625 0 2.703125 1.140625q1.0625 1.125 1.0625 3.171875q0 0.125 0 0.375l-6.1875 0q0.078125 1.375 0.765625 2.109375q0.703125 0.71875 1.734375 0.71875q0.78125 0 1.328125 -0.40625q0.546875 -0.40625 0.859375 -1.296875zm-4.609375 -2.28125l4.625 0q-0.09375 -1.046875 -0.53125 -1.5625q-0.671875 -0.8125 -1.734375 -0.8125q-0.96875 0 -1.640625 0.65625q-0.65625 0.640625 -0.71875 1.71875z" fill-rule="nonzero"/><path fill="#eeeeee" d="m330.71652 253.2126l126.80316 0l0 40.094498l-126.80316 0z" fill-rule="evenodd"/><path stroke="#cccccc" stroke-width="1.0" stroke-linejoin="round" stroke-linecap="butt" d="m330.71652 253.2126l126.80316 0l0 40.094498l-126.80316 0z" fill-rule="evenodd"/><path fill="#000000" d="m378.76654 279.11984l-4.4375 -11.453125l1.640625 0l2.96875 8.3125q0.359375 1.0 0.609375 1.875q0.265625 -0.9375 0.609375 -1.875l3.09375 -8.3125l1.546875 0l-4.484375 11.453125l-1.546875 0zm11.4375 -1.03125q-0.78125 0.671875 -1.5 0.953125q-0.71875 0.265625 -1.546875 0.265625q-1.375 0 -2.109375 -0.671875q-0.734375 -0.671875 -0.734375 -1.703125q0 -0.609375 0.28125 -1.109375q0.28125 -0.515625 0.71875 -0.8125q0.453125 -0.3125 1.015625 -0.46875q0.421875 -0.109375 1.25 -0.203125q1.703125 -0.203125 2.515625 -0.484375q0 -0.296875 0 -0.375q0 -0.859375 -0.390625 -1.203125q-0.546875 -0.484375 -1.609375 -0.484375q-0.984375 0 -1.46875 0.359375q-0.46875 0.34375 -0.6875 1.21875l-1.375 -0.1875q0.1875 -0.875 0.609375 -1.421875q0.4375 -0.546875 1.25 -0.828125q0.8125 -0.296875 1.875 -0.296875q1.0625 0 1.71875 0.25q0.671875 0.25 0.984375 0.625q0.3125 0.375 0.4375 0.953125q0.078125 0.359375 0.078125 1.296875l0 1.875q0 1.96875 0.078125 2.484375q0.09375 0.515625 0.359375 1.0l-1.46875 0q-0.21875 -0.4375 -0.28125 -1.03125zm-0.109375 -3.140625q-0.765625 0.3125 -2.296875 0.53125q-0.875 0.125 -1.234375 0.28125q-0.359375 0.15625 -0.5625 0.46875q-0.1875 0.296875 -0.1875 0.65625q0 0.5625 0.421875 0.9375q0.4375 0.375 1.25 0.375q0.8125 0 1.4375 -0.34375q0.640625 -0.359375 0.9375 -0.984375q0.234375 -0.46875 0.234375 -1.40625l0 -0.515625zm3.5703125 4.171875l0 -11.453125l1.40625 0l0 11.453125l-1.40625 0zm9.0234375 0l0 -1.21875q-0.96875 1.40625 -2.640625 1.40625q-0.734375 0 -1.375 -0.28125q-0.625 -0.28125 -0.9375 -0.703125q-0.3125 -0.4375 -0.4375 -1.046875q-0.078125 -0.421875 -0.078125 -1.3125l0 -5.140625l1.40625 0l0 4.59375q0 1.109375 0.078125 1.484375q0.140625 0.5625 0.5625 0.875q0.4375 0.3125 1.0625 0.3125q0.640625 0 1.1875 -0.3125q0.5625 -0.328125 0.78125 -0.890625q0.234375 -0.5625 0.234375 -1.625l0 -4.4375l1.40625 0l0 8.296875l-1.25 0zm9.1328125 -2.671875l1.453125 0.171875q-0.34375 1.28125 -1.28125 1.984375q-0.921875 0.703125 -2.359375 0.703125q-1.828125 0 -2.890625 -1.125q-1.0625 -1.125 -1.0625 -3.140625q0 -2.09375 1.078125 -3.25q1.078125 -1.15625 2.796875 -1.15625q1.65625 0 2.703125 1.140625q1.0625 1.125 1.0625 3.171875q0 0.125 0 0.375l-6.1875 0q0.078125 1.375 0.765625 2.109375q0.703125 0.71875 1.734375 0.71875q0.78125 0 1.328125 -0.40625q0.546875 -0.40625 0.859375 -1.296875zm-4.609375 -2.28125l4.625 0q-0.09375 -1.046875 -0.53125 -1.5625q-0.671875 -0.8125 -1.734375 -0.8125q-0.96875 0 -1.640625 0.65625q-0.65625 0.640625 -0.71875 1.71875z" fill-rule="nonzero"/><path fill="#eeeeee" d="m330.71652 293.3071l126.80316 0l0 52.06299l-126.80316 0z" fill-rule="evenodd"/><path stroke="#cccccc" stroke-width="1.0" stroke-linejoin="round" stroke-linecap="butt" d="m330.71652 293.3071l126.80316 0l0 52.06299l-126.80316 0z" fill-rule="evenodd"/><path fill="#000000" d="m368.70795 320.69858l0 -1.34375l4.859375 0l0 4.25q-1.125 0.890625 -2.3125 1.34375q-1.1875 0.453125 -2.4375 0.453125q-1.6875 0 -3.0625 -0.71875q-1.375 -0.734375 -2.078125 -2.09375q-0.703125 -1.375 -0.703125 -3.0625q0 -1.671875 0.6875 -3.125q0.703125 -1.453125 2.015625 -2.15625q1.3125 -0.703125 3.03125 -0.703125q1.234375 0 2.234375 0.40625q1.015625 0.40625 1.578125 1.125q0.578125 0.71875 0.875 1.875l-1.375 0.375q-0.25 -0.875 -0.640625 -1.375q-0.375 -0.5 -1.09375 -0.796875q-0.703125 -0.3125 -1.578125 -0.3125q-1.03125 0 -1.796875 0.328125q-0.75 0.3125 -1.21875 0.828125q-0.46875 0.515625 -0.71875 1.125q-0.4375 1.0625 -0.4375 2.3125q0 1.53125 0.515625 2.5625q0.53125 1.03125 1.53125 1.53125q1.015625 0.5 2.15625 0.5q0.984375 0 1.921875 -0.375q0.9375 -0.390625 1.421875 -0.8125l0 -2.140625l-3.375 0zm7.0859375 4.5l0 -11.453125l4.328125 0q1.140625 0 1.734375 0.109375q0.84375 0.140625 1.40625 0.53125q0.578125 0.390625 0.921875 1.109375q0.359375 0.703125 0.359375 1.5625q0 1.453125 -0.9375 2.46875q-0.921875 1.015625 -3.359375 1.015625l-2.9375 0l0 4.65625l-1.515625 0zm1.515625 -6.015625l2.96875 0q1.46875 0 2.078125 -0.546875q0.625 -0.546875 0.625 -1.53125q0 -0.71875 -0.375 -1.234375q-0.359375 -0.515625 -0.953125 -0.671875q-0.375 -0.109375 -1.40625 -0.109375l-2.9375 0l0 4.09375zm8.640625 2.328125l1.4375 -0.125q0.09375 0.859375 0.46875 1.421875q0.375 0.546875 1.15625 0.890625q0.78125 0.328125 1.75 0.328125q0.875 0 1.53125 -0.25q0.671875 -0.265625 0.984375 -0.703125q0.328125 -0.453125 0.328125 -0.984375q0 -0.546875 -0.3125 -0.9375q-0.3125 -0.40625 -1.03125 -0.6875q-0.453125 -0.171875 -2.03125 -0.546875q-1.578125 -0.390625 -2.21875 -0.71875q-0.8125 -0.4375 -1.21875 -1.0625q-0.40625 -0.640625 -0.40625 -1.4375q0 -0.859375 0.484375 -1.609375q0.5 -0.765625 1.4375 -1.15625q0.953125 -0.390625 2.109375 -0.390625q1.28125 0 2.25 0.421875q0.96875 0.40625 1.484375 1.203125q0.53125 0.796875 0.578125 1.796875l-1.453125 0.109375q-0.125 -1.078125 -0.796875 -1.625q-0.671875 -0.5625 -2.0 -0.5625q-1.375 0 -2.0 0.5q-0.625 0.5 -0.625 1.21875q0 0.609375 0.4375 1.015625q0.4375 0.390625 2.28125 0.8125q1.859375 0.421875 2.546875 0.734375q1.0 0.453125 1.46875 1.171875q0.484375 0.703125 0.484375 1.625q0 0.90625 -0.53125 1.71875q-0.515625 0.8125 -1.5 1.265625q-0.984375 0.453125 -2.203125 0.453125q-1.5625 0 -2.609375 -0.453125q-1.046875 -0.46875 -1.65625 -1.375q-0.59375 -0.90625 -0.625 -2.0625zm15.8984375 3.6875l0 -11.453125l1.515625 0l0 11.453125l-1.515625 0zm4.2578125 0l0 -11.453125l7.734375 0l0 1.34375l-6.21875 0l0 3.546875l5.375 0l0 1.359375l-5.375 0l0 5.203125l-1.515625 0zm9.6953125 0l0 -11.453125l3.953125 0q1.328125 0 2.03125 0.15625q0.984375 0.234375 1.6875 0.828125q0.90625 0.765625 1.34375 1.953125q0.453125 1.1875 0.453125 2.71875q0 1.3125 -0.3125 2.328125q-0.296875 1.0 -0.78125 1.65625q-0.46875 0.65625 -1.03125 1.046875q-0.5625 0.375 -1.375 0.578125q-0.796875 0.1875 -1.828125 0.1875l-4.140625 0zm1.515625 -1.359375l2.453125 0q1.125 0 1.765625 -0.203125q0.65625 -0.21875 1.03125 -0.59375q0.546875 -0.546875 0.84375 -1.453125q0.296875 -0.90625 0.296875 -2.203125q0 -1.796875 -0.59375 -2.765625q-0.578125 -0.96875 -1.421875 -1.296875q-0.609375 -0.234375 -1.96875 -0.234375l-2.40625 0l0 8.75z" fill-rule="nonzero"/><path fill="#eeeeee" d="m330.71652 338.55118l126.80316 0l0 52.06299l-126.80316 0z" fill-rule="evenodd"/><path stroke="#cccccc" stroke-width="1.0" stroke-linejoin="round" stroke-linecap="butt" d="m330.71652 338.55118l126.80316 0l0 52.06299l-126.80316 0z" fill-rule="evenodd"/><path fill="#000000" d="m378.76654 370.4427l-4.4375 -11.453125l1.640625 0l2.96875 8.3125q0.359375 1.0 0.609375 1.875q0.265625 -0.9375 0.609375 -1.875l3.09375 -8.3125l1.546875 0l-4.484375 11.453125l-1.546875 0zm11.4375 -1.03125q-0.78125 0.671875 -1.5 0.953125q-0.71875 0.265625 -1.546875 0.265625q-1.375 0 -2.109375 -0.671875q-0.734375 -0.671875 -0.734375 -1.703125q0 -0.609375 0.28125 -1.109375q0.28125 -0.515625 0.71875 -0.8125q0.453125 -0.3125 1.015625 -0.46875q0.421875 -0.109375 1.25 -0.203125q1.703125 -0.203125 2.515625 -0.484375q0 -0.296875 0 -0.375q0 -0.859375 -0.390625 -1.203125q-0.546875 -0.484375 -1.609375 -0.484375q-0.984375 0 -1.46875 0.359375q-0.46875 0.34375 -0.6875 1.21875l-1.375 -0.1875q0.1875 -0.875 0.609375 -1.421875q0.4375 -0.546875 1.25 -0.828125q0.8125 -0.296875 1.875 -0.296875q1.0625 0 1.71875 0.25q0.671875 0.25 0.984375 0.625q0.3125 0.375 0.4375 0.953125q0.078125 0.359375 0.078125 1.296875l0 1.875q0 1.96875 0.078125 2.484375q0.09375 0.515625 0.359375 1.0l-1.46875 0q-0.21875 -0.4375 -0.28125 -1.03125zm-0.109375 -3.140625q-0.765625 0.3125 -2.296875 0.53125q-0.875 0.125 -1.234375 0.28125q-0.359375 0.15625 -0.5625 0.46875q-0.1875 0.296875 -0.1875 0.65625q0 0.5625 0.421875 0.9375q0.4375 0.375 1.25 0.375q0.8125 0 1.4375 -0.34375q0.640625 -0.359375 0.9375 -0.984375q0.234375 -0.46875 0.234375 -1.40625l0 -0.515625zm3.5703125 4.171875l0 -11.453125l1.40625 0l0 11.453125l-1.40625 0zm9.0234375 0l0 -1.21875q-0.96875 1.40625 -2.640625 1.40625q-0.734375 0 -1.375 -0.28125q-0.625 -0.28125 -0.9375 -0.703125q-0.3125 -0.4375 -0.4375 -1.046875q-0.078125 -0.421875 -0.078125 -1.3125l0 -5.140625l1.40625 0l0 4.59375q0 1.109375 0.078125 1.484375q0.140625 0.5625 0.5625 0.875q0.4375 0.3125 1.0625 0.3125q0.640625 0 1.1875 -0.3125q0.5625 -0.328125 0.78125 -0.890625q0.234375 -0.5625 0.234375 -1.625l0 -4.4375l1.40625 0l0 8.296875l-1.25 0zm9.1328125 -2.671875l1.453125 0.171875q-0.34375 1.28125 -1.28125 1.984375q-0.921875 0.703125 -2.359375 0.703125q-1.828125 0 -2.890625 -1.125q-1.0625 -1.125 -1.0625 -3.140625q0 -2.09375 1.078125 -3.25q1.078125 -1.15625 2.796875 -1.15625q1.65625 0 2.703125 1.140625q1.0625 1.125 1.0625 3.171875q0 0.125 0 0.375l-6.1875 0q0.078125 1.375 0.765625 2.109375q0.703125 0.71875 1.734375 0.71875q0.78125 0 1.328125 -0.40625q0.546875 -0.40625 0.859375 -1.296875zm-4.609375 -2.28125l4.625 0q-0.09375 -1.046875 -0.53125 -1.5625q-0.671875 -0.8125 -1.734375 -0.8125q-0.96875 0 -1.640625 0.65625q-0.65625 0.640625 -0.71875 1.71875z" fill-rule="nonzero"/><path fill="#eeeeee" d="m330.71652 390.61417l126.80316 0l0 72.188995l-126.80316 0z" fill-rule="evenodd"/><path stroke="#cccccc" stroke-width="1.0" stroke-linejoin="round" stroke-linecap="butt" d="m330.71652 390.61417l126.80316 0l0 72.188995l-126.80316 0z" fill-rule="evenodd"/><path fill="#000000" d="m358.70013 432.56866l0 -10.109375l-3.78125 0l0 -1.34375l9.078125 0l0 1.34375l-3.78125 0l0 10.109375l-1.515625 0zm6.6796875 0l0 -11.453125l1.40625 0l0 4.109375q0.984375 -1.140625 2.484375 -1.140625q0.921875 0 1.59375 0.359375q0.6875 0.359375 0.96875 1.0q0.296875 0.640625 0.296875 1.859375l0 5.265625l-1.40625 0l0 -5.265625q0 -1.046875 -0.453125 -1.53125q-0.453125 -0.484375 -1.296875 -0.484375q-0.625 0 -1.171875 0.328125q-0.546875 0.328125 -0.78125 0.890625q-0.234375 0.546875 -0.234375 1.515625l0 4.546875l-1.40625 0zm14.3359375 0l0 -1.21875q-0.96875 1.40625 -2.640625 1.40625q-0.734375 0 -1.375 -0.28125q-0.625 -0.28125 -0.9375 -0.703125q-0.3125 -0.4375 -0.4375 -1.046875q-0.078125 -0.421875 -0.078125 -1.3125l0 -5.140625l1.40625 0l0 4.59375q0 1.109375 0.078125 1.484375q0.140625 0.5625 0.5625 0.875q0.4375 0.3125 1.0625 0.3125q0.640625 0 1.1875 -0.3125q0.5625 -0.328125 0.78125 -0.890625q0.234375 -0.5625 0.234375 -1.625l0 -4.4375l1.40625 0l0 8.296875l-1.25 0zm3.4609375 0l0 -8.296875l1.25 0l0 1.15625q0.390625 -0.609375 1.03125 -0.96875q0.65625 -0.375 1.484375 -0.375q0.921875 0 1.515625 0.390625q0.59375 0.375 0.828125 1.0625q0.984375 -1.453125 2.5625 -1.453125q1.234375 0 1.890625 0.6875q0.671875 0.671875 0.671875 2.09375l0 5.703125l-1.390625 0l0 -5.234375q0 -0.84375 -0.140625 -1.203125q-0.140625 -0.375 -0.5 -0.59375q-0.359375 -0.234375 -0.84375 -0.234375q-0.875 0 -1.453125 0.578125q-0.578125 0.578125 -0.578125 1.859375l0 4.828125l-1.40625 0l0 -5.390625q0 -0.9375 -0.34375 -1.40625q-0.34375 -0.46875 -1.125 -0.46875q-0.59375 0 -1.09375 0.3125q-0.5 0.3125 -0.734375 0.921875q-0.21875 0.59375 -0.21875 1.71875l0 4.3125l-1.40625 0zm14.625 0l-1.3125 0l0 -11.453125l1.40625 0l0 4.078125q0.890625 -1.109375 2.28125 -1.109375q0.765625 0 1.4375 0.3125q0.6875 0.296875 1.125 0.859375q0.453125 0.5625 0.703125 1.359375q0.25 0.78125 0.25 1.671875q0 2.140625 -1.0625 3.3125q-1.046875 1.15625 -2.53125 1.15625q-1.46875 0 -2.296875 -1.234375l0 1.046875zm-0.015625 -4.21875q0 1.5 0.40625 2.15625q0.65625 1.09375 1.796875 1.09375q0.921875 0 1.59375 -0.796875q0.671875 -0.8125 0.671875 -2.390625q0 -1.625 -0.65625 -2.390625q-0.640625 -0.78125 -1.546875 -0.78125q-0.921875 0 -1.59375 0.796875q-0.671875 0.796875 -0.671875 2.3125zm12.0625 4.21875l0 -8.296875l1.265625 0l0 1.171875q0.90625 -1.359375 2.640625 -1.359375q0.75 0 1.375 0.265625q0.625 0.265625 0.9375 0.703125q0.3125 0.4375 0.4375 1.046875q0.078125 0.390625 0.078125 1.359375l0 5.109375l-1.40625 0l0 -5.046875q0 -0.859375 -0.171875 -1.28125q-0.15625 -0.4375 -0.578125 -0.6875q-0.40625 -0.25 -0.96875 -0.25q-0.90625 0 -1.5625 0.578125q-0.640625 0.5625 -0.640625 2.15625l0 4.53125l-1.40625 0zm14.3046875 -1.03125q-0.78125 0.671875 -1.5 0.953125q-0.71875 0.265625 -1.546875 0.265625q-1.375 0 -2.109375 -0.671875q-0.734375 -0.671875 -0.734375 -1.703125q0 -0.609375 0.28125 -1.109375q0.28125 -0.515625 0.71875 -0.8125q0.453125 -0.3125 1.015625 -0.46875q0.421875 -0.109375 1.25 -0.203125q1.703125 -0.203125 2.515625 -0.484375q0 -0.296875 0 -0.375q0 -0.859375 -0.390625 -1.203125q-0.546875 -0.484375 -1.609375 -0.484375q-0.984375 0 -1.46875 0.359375q-0.46875 0.34375 -0.6875 1.21875l-1.375 -0.1875q0.1875 -0.875 0.609375 -1.421875q0.4375 -0.546875 1.25 -0.828125q0.8125 -0.296875 1.875 -0.296875q1.0625 0 1.71875 0.25q0.671875 0.25 0.984375 0.625q0.3125 0.375 0.4375 0.953125q0.078125 0.359375 0.078125 1.296875l0 1.875q0 1.96875 0.078125 2.484375q0.09375 0.515625 0.359375 1.0l-1.46875 0q-0.21875 -0.4375 -0.28125 -1.03125zm-0.109375 -3.140625q-0.765625 0.3125 -2.296875 0.53125q-0.875 0.125 -1.234375 0.28125q-0.359375 0.15625 -0.5625 0.46875q-0.1875 0.296875 -0.1875 0.65625q0 0.5625 0.421875 0.9375q0.4375 0.375 1.25 0.375q0.8125 0 1.4375 -0.34375q0.640625 -0.359375 0.9375 -0.984375q0.234375 -0.46875 0.234375 -1.40625l0 -0.515625zm3.6015625 -5.671875l0 -1.609375l1.40625 0l0 1.609375l-1.40625 0zm0 9.84375l0 -8.296875l1.40625 0l0 8.296875l-1.40625 0zm3.5234375 0l0 -11.453125l1.40625 0l0 11.453125l-1.40625 0z" fill-rule="nonzero"/><path fill="#000000" fill-opacity="0.0" d="m354.49606 465.44882l79.24408 0l0 52.06302l-79.24408 0z" fill-rule="evenodd"/><path fill="#f3f3f3" d="m382.6656 498.4003l-1.5625 0l0 -11.9375l-4.21875 0l0 -1.375l9.984375 0l0 1.375l-4.203125 0l0 11.9375zm6.21167 0l0 -13.3125l1.546875 0l0 13.3125l-1.546875 0zm6.748413 0l-1.546875 0l0 -13.3125l7.421875 0l0 1.375l-5.875 0l0 4.875l5.53125 0l0 1.375l-5.53125 0l0 5.6875zm9.628723 0l-1.546875 0l0 -13.3125l7.421875 0l0 1.375l-5.875 0l0 4.875l5.53125 0l0 1.375l-5.53125 0l0 5.6875z" fill-rule="nonzero"/><path fill="#000000" fill-opacity="0.0" d="m330.71652 91.88976l-97.511795 93.41732" fill-rule="evenodd"/><path stroke="#f3f3f3" stroke-width="1.0" stroke-linejoin="round" stroke-linecap="butt" stroke-dasharray="4.0,3.0" d="m330.71652 91.88976l-97.511795 93.41732" fill-rule="evenodd"/><path fill="#000000" fill-opacity="0.0" d="m327.1706 464.15222l-91.68503 -227.52756" fill-rule="evenodd"/><path stroke="#f3f3f3" stroke-width="1.0" stroke-linejoin="round" stroke-linecap="butt" stroke-dasharray="4.0,3.0" d="m327.1706 464.15222l-91.68503 -227.52756" fill-rule="evenodd"/></g></svg>