<svg width="656" height="430" fill="none" xmlns="http://www.w3.org/2000/svg"><rect width="656" height="430" rx="2" fill="#000" fill-opacity=".08"/><path d="M16.793 23h1.542v-3.98c0-.805.537-1.351 1.202-1.351.652 0 1.1.439 1.1 1.112V23h1.512v-4.082c0-.738.44-1.249 1.185-1.249.622 0 1.116.366 1.116 1.176V23h1.547v-4.393c0-1.462-.844-2.238-2.045-2.238-.95 0-1.675.47-1.965 1.198h-.068c-.251-.742-.886-1.198-1.768-1.198-.878 0-1.535.452-1.807 1.198h-.077v-1.113h-1.474V23zm13.624.128c1.918 0 3.137-1.351 3.137-3.375 0-2.029-1.22-3.384-3.137-3.384s-3.136 1.355-3.136 3.384c0 2.024 1.219 3.375 3.136 3.375zm.009-1.236c-1.061 0-1.581-.946-1.581-2.143 0-1.198.52-2.157 1.58-2.157 1.045 0 1.565.96 1.565 2.157s-.52 2.143-1.564 2.143zm6.866 1.223c1.125 0 1.632-.669 1.875-1.146h.094V23h1.517v-8.727H39.23v3.264h-.064c-.235-.473-.716-1.168-1.87-1.168-1.514 0-2.703 1.185-2.703 3.367 0 2.156 1.155 3.38 2.698 3.38zm.43-1.266c-1.018 0-1.555-.895-1.555-2.122 0-1.218.528-2.092 1.555-2.092.993 0 1.539.822 1.539 2.092s-.554 2.122-1.539 2.122zm8.871-1.602c0 .997-.711 1.492-1.393 1.492-.742 0-1.236-.524-1.236-1.355v-3.93h-1.542v4.168c0 1.573.894 2.463 2.181 2.463.98 0 1.67-.515 1.97-1.248h.067V23h1.496v-6.546h-1.543v3.793zm4.672-5.974h-1.543V23h1.543v-8.727zm4.484 8.855c1.526 0 2.574-.746 2.846-1.884l-1.44-.162c-.209.554-.72.844-1.385.844-.997 0-1.657-.656-1.67-1.777h4.56v-.473c0-2.297-1.381-3.307-2.992-3.307-1.875 0-3.098 1.377-3.098 3.397 0 2.054 1.206 3.362 3.179 3.362zm-1.645-4.019c.047-.835.665-1.538 1.585-1.538.887 0 1.483.648 1.492 1.538h-3.077zM62.784 17h1.227v-.878c-.005-.66.251-1.193.584-1.696l-.716-.464c-.623.507-1.1 1.414-1.096 2.169V17zm2.16 0h1.227v-.878c-.004-.66.252-1.193.584-1.696l-.716-.464c-.622.507-1.1 1.414-1.095 2.169V17zm5.793 6.128c1.526 0 2.574-.746 2.847-1.884l-1.44-.162c-.21.554-.72.844-1.386.844-.997 0-1.657-.656-1.67-1.777h4.56v-.473c0-2.297-1.381-3.307-2.992-3.307-1.875 0-3.098 1.377-3.098 3.397 0 2.054 1.206 3.362 3.18 3.362zm-1.645-4.019c.047-.835.665-1.538 1.586-1.538.886 0 1.483.648 1.491 1.538h-3.077zm6.993-2.655H74.45l1.943 3.273L74.398 23h1.636l1.372-2.357L78.791 23h1.624l-2.007-3.273 1.973-3.273h-1.632l-1.343 2.417-1.32-2.416zm7.349 6.678c1.027 0 1.64-.481 1.922-1.031h.051V23h1.483v-4.38c0-1.73-1.41-2.25-2.66-2.25-1.376 0-2.432.613-2.773 1.806l1.44.205c.153-.448.588-.831 1.342-.831.716 0 1.108.366 1.108 1.01v.025c0 .443-.464.465-1.619.588-1.27.137-2.484.516-2.484 1.99 0 1.287.941 1.97 2.19 1.97zm.4-1.133c-.643 0-1.103-.294-1.103-.861 0-.593.515-.84 1.206-.938.405-.055 1.214-.157 1.415-.32v.772c0 .729-.589 1.347-1.517 1.347zM88.442 23h1.543v-3.98c0-.805.537-1.351 1.201-1.351.652 0 1.1.439 1.1 1.112V23h1.513v-4.082c0-.738.439-1.249 1.184-1.249.622 0 1.117.366 1.117 1.176V23h1.547v-4.393c0-1.462-.844-2.238-2.046-2.238-.95 0-1.675.47-1.964 1.198h-.069c-.25-.742-.886-1.198-1.768-1.198-.878 0-1.534.452-1.807 1.198h-.077v-1.113h-1.474V23zm10.77 2.454h1.542V21.97h.064c.243.477.75 1.146 1.875 1.146 1.543 0 2.698-1.223 2.698-3.38 0-2.181-1.189-3.366-2.702-3.366-1.155 0-1.637.695-1.871 1.168h-.089v-1.082h-1.517v9zm1.512-5.727c0-1.27.546-2.092 1.539-2.092 1.027 0 1.555.873 1.555 2.092 0 1.227-.537 2.122-1.555 2.122-.985 0-1.539-.852-1.539-2.122zm7.53-5.454h-1.542V23h1.542v-8.727zm4.484 8.855c1.526 0 2.574-.746 2.847-1.884l-1.441-.162c-.208.554-.72.844-1.384.844-.998 0-1.658-.656-1.671-1.777h4.56v-.473c0-2.297-1.381-3.307-2.992-3.307-1.875 0-3.098 1.377-3.098 3.397 0 2.054 1.206 3.362 3.179 3.362zm-1.645-4.019c.047-.835.665-1.538 1.586-1.538.886 0 1.483.648 1.491 1.538h-3.077zm9.393-4.836h-1.504l-2.169 1.393v1.45l2.041-1.305h.051V23h1.581v-8.727zm3.542 0H122.8v.878c0 .694-.272 1.227-.583 1.696l.715.464c.627-.52 1.096-1.415 1.096-2.169v-.87zm2.156 0h-1.227v.878c0 .694-.273 1.227-.584 1.696l.716.464c.626-.52 1.095-1.415 1.095-2.169v-.87z" fill="#333"/><rect x="16" y="68" width="307" height="84" rx="2" fill="#C7C3D5"/><path d="M29.912 80.454H28.57v-1.568h-1.274v1.569h-.96v1.022h.96v3.865c-.005 1.19.903 1.764 1.909 1.743.404-.004.677-.08.826-.136l-.23-1.053c-.085.017-.243.056-.447.056-.414 0-.784-.137-.784-.874v-3.6h1.342v-1.023zm2.215 9c1.052 0 1.717-.55 2.096-1.58l2.698-7.42h-1.368l-1.658 5.08h-.068l-1.658-5.08h-1.363l2.395 6.631-.158.435c-.324.87-.78.942-1.479.75l-.306 1.044c.153.068.485.14.869.14zm5.991 0h1.274v-3.472h.077c.23.417.699 1.146 1.892 1.146 1.585 0 2.736-1.27 2.736-3.388 0-2.122-1.168-3.37-2.749-3.37-1.214 0-1.653.74-1.879 1.146h-.106v-1.062h-1.245v9zm1.249-5.727c0-1.368.596-2.275 1.709-2.275 1.154 0 1.734.976 1.734 2.275 0 1.313-.597 2.314-1.734 2.314-1.096 0-1.71-.937-1.71-2.314zm8.979 3.405c1.427 0 2.437-.703 2.727-1.768l-1.206-.218c-.23.618-.784.933-1.509.933-1.09 0-1.824-.707-1.858-1.968h4.654v-.452c0-2.365-1.415-3.29-2.898-3.29-1.824 0-3.026 1.39-3.026 3.4 0 2.034 1.185 3.363 3.116 3.363zm-1.841-3.976c.05-.929.724-1.734 1.76-1.734.988 0 1.636.733 1.64 1.734h-3.4zm14.143-1.103c-.264-1.019-1.061-1.684-2.476-1.684-1.478 0-2.527.78-2.527 1.94 0 .928.563 1.546 1.79 1.819l1.108.243c.63.14.925.422.925.83 0 .508-.542.904-1.377.904-.763 0-1.253-.328-1.406-.972l-1.232.188c.213 1.16 1.177 1.811 2.647 1.811 1.58 0 2.676-.84 2.676-2.024 0-.925-.588-1.496-1.79-1.773l-1.04-.238c-.72-.17-1.03-.414-1.027-.857-.004-.503.542-.86 1.266-.86.793 0 1.16.438 1.308.877l1.155-.204zm4.35 5.08c1.427 0 2.437-.704 2.727-1.77l-1.206-.217c-.23.618-.784.933-1.508.933-1.091 0-1.824-.707-1.858-1.968h4.653v-.452c0-2.365-1.415-3.29-2.898-3.29-1.824 0-3.025 1.39-3.025 3.4 0 2.034 1.184 3.363 3.115 3.363zm-1.841-3.977c.051-.929.724-1.734 1.76-1.734.989 0 1.636.733 1.64 1.734h-3.4zm8.82 3.976c1.547 0 2.548-.929 2.689-2.203h-1.24c-.162.707-.712 1.125-1.44 1.125-1.079 0-1.773-.9-1.773-2.327 0-1.402.707-2.284 1.772-2.284.81 0 1.304.511 1.44 1.125h1.24c-.136-1.32-1.214-2.199-2.7-2.199-1.846 0-3.04 1.39-3.04 3.388 0 1.973 1.151 3.375 3.052 3.375zm7.107-6.678H77.74v-1.568h-1.274v1.569h-.959v1.022h.96v3.865c-.005 1.19.903 1.764 1.908 1.743a2.42 2.42 0 00.827-.136l-.23-1.053c-.085.017-.243.056-.447.056-.414 0-.784-.137-.784-.874v-3.6h1.342v-1.023zM80.494 87h1.273v-6.546h-1.274V87zm.643-7.555c.439 0 .805-.341.805-.759s-.366-.763-.805-.763c-.444 0-.806.346-.806.763 0 .418.362.759.806.759zm5.102 7.687c1.845 0 3.05-1.35 3.05-3.375 0-2.037-1.205-3.388-3.05-3.388-1.846 0-3.052 1.351-3.052 3.388 0 2.024 1.207 3.375 3.052 3.375zm.004-1.07c-1.206 0-1.769-1.052-1.769-2.31 0-1.252.563-2.317 1.769-2.317 1.197 0 1.76 1.065 1.76 2.318 0 1.257-.563 2.31-1.76 2.31zm5.743-2.948c0-1.044.64-1.641 1.526-1.641.865 0 1.389.567 1.389 1.517V87h1.274v-4.163c0-1.62-.89-2.468-2.229-2.468-.984 0-1.627.456-1.93 1.15h-.081v-1.065h-1.223V87h1.274v-3.886z" fill="#696184"/><path fill-rule="evenodd" clip-rule="evenodd" d="M28 98a2 2 0 00-2 2v16a2 2 0 002 2h57V98H28zm61 0v20h222a2 2 0 002-2v-16a2 2 0 00-2-2H89z" fill="#fff"/><path d="M52.141 112h.852l.397-2.42h1.29l.137-.853H53.53l.358-2.182h1.304l.136-.852h-1.3l.397-2.42h-.852l-.397 2.42h-2.215l.396-2.42h-.852l-.397 2.42h-1.29l-.137.852h1.287l-.358 2.182h-1.304l-.137.853h1.3l-.396 2.42h.852l.396-2.42h2.216l-.396 2.42zm-1.679-3.273l.358-2.182h2.216l-.358 2.182h-2.216zm8.823 3.392c1.926 0 3.034-1.632 3.034-4.483 0-2.829-1.125-4.483-3.034-4.483-1.909 0-3.034 1.654-3.034 4.483 0 2.851 1.108 4.483 3.034 4.483zm0-.937c-1.27 0-2.011-1.274-2.011-3.546 0-2.267.75-3.562 2.011-3.562 1.262 0 2.012 1.295 2.012 3.562 0 2.272-.742 3.546-2.012 3.546zm95.198-2.864c0 2.148.58 3.938 1.62 5.455h.886c-.818-1.125-1.466-3.426-1.466-5.455 0-2.028.648-4.329 1.466-5.454h-.886c-1.04 1.517-1.62 3.306-1.62 5.454zm3.99 3.682h1.006v-6.545h-1.006V112zm.512-7.636c.392 0 .715-.307.715-.682 0-.375-.323-.682-.715-.682-.392 0-.716.307-.716.682 0 .375.324.682.716.682zm5.268 7.755c1.691 0 2.949-1.061 2.949-2.488 0-1.108-.657-1.914-1.756-2.097v-.068c.882-.269 1.432-.993 1.432-1.977 0-1.236-.976-2.336-2.591-2.336-1.509 0-2.762.929-2.813 2.302h1.023c.038-.87.865-1.381 1.773-1.381.963 0 1.585.584 1.585 1.466 0 .92-.72 1.517-1.756 1.517h-.699v.937h.699c1.326 0 2.063.674 2.063 1.637 0 .924-.806 1.551-1.926 1.551-1.01 0-1.811-.52-1.875-1.364h-1.074c.064 1.372 1.274 2.301 2.966 2.301zm4.691-.119h5.506v-.938h-4.057v-.068l1.961-2.096c1.5-1.607 1.943-2.357 1.943-3.324 0-1.347-1.091-2.421-2.625-2.421-1.53 0-2.693 1.04-2.693 2.574h1.005c0-.993.644-1.653 1.654-1.653.946 0 1.67.579 1.67 1.5 0 .805-.473 1.402-1.483 2.506l-2.881 3.153V112zm8.783-1.193h-1.091l-.051.477c-.124 1.155-.366 2.305-.477 2.847h.767c.204-.58.639-1.892.784-2.864l.068-.46zm5.238 1.193h1.006v-6.545h-1.006V112zm.512-7.636c.392 0 .716-.307.716-.682 0-.375-.324-.682-.716-.682-.392 0-.716.307-.716.682 0 .375.324.682.716.682zm5.268 7.755c1.692 0 2.949-1.061 2.949-2.488 0-1.108-.657-1.914-1.756-2.097v-.068c.882-.269 1.432-.993 1.432-1.977 0-1.236-.976-2.336-2.591-2.336-1.509 0-2.761.929-2.813 2.302h1.023c.039-.87.865-1.381 1.773-1.381.963 0 1.585.584 1.585 1.466 0 .92-.72 1.517-1.756 1.517h-.698v.937h.698c1.326 0 2.063.674 2.063 1.637 0 .924-.805 1.551-1.926 1.551-1.01 0-1.811-.52-1.875-1.364h-1.074c.064 1.372 1.274 2.301 2.966 2.301zm4.692-.119h5.505v-.938h-4.057v-.068l1.961-2.096c1.5-1.607 1.943-2.357 1.943-3.324 0-1.347-1.091-2.421-2.625-2.421-1.53 0-2.693 1.04-2.693 2.574h1.005c0-.993.644-1.653 1.654-1.653.946 0 1.67.579 1.67 1.5 0 .805-.473 1.402-1.483 2.506l-2.88 3.153V112zm9.43-4.364c0-2.147-.58-3.937-1.619-5.454h-.887c.819 1.125 1.466 3.426 1.466 5.454 0 2.029-.647 4.33-1.466 5.455h.887c1.039-1.517 1.619-3.307 1.619-5.455zm11.106 3.819l3.818-3.819-3.818-3.818-.656.656 2.702 2.694h-6.998v.937h6.998l-2.702 2.702.656.648zm9.651-3.137c0 2.148.58 3.938 1.619 5.455h.887c-.818-1.125-1.466-3.426-1.466-5.455 0-2.028.648-4.329 1.466-5.454h-.887c-1.039 1.517-1.619 3.306-1.619 5.454zm3.99 3.682h1.005v-6.545h-1.005V112zm.511-7.636c.392 0 .716-.307.716-.682 0-.375-.324-.682-.716-.682-.392 0-.716.307-.716.682 0 .375.324.682.716.682zm5.268 7.755c1.692 0 2.949-1.061 2.949-2.488 0-1.108-.656-1.914-1.756-2.097v-.068c.883-.269 1.432-.993 1.432-1.977 0-1.236-.976-2.336-2.591-2.336-1.508 0-2.761.929-2.812 2.302h1.023c.038-.87.865-1.381 1.772-1.381.963 0 1.586.584 1.586 1.466 0 .92-.721 1.517-1.756 1.517h-.699v.937h.699c1.325 0 2.062.674 2.062 1.637 0 .924-.805 1.551-1.926 1.551-1.01 0-1.811-.52-1.875-1.364h-1.074c.064 1.372 1.275 2.301 2.966 2.301zm4.692-.119h5.506v-.938h-4.057v-.068l1.96-2.096c1.5-1.607 1.943-2.357 1.943-3.324 0-1.347-1.091-2.421-2.625-2.421-1.53 0-2.693 1.04-2.693 2.574h1.006c0-.993.643-1.653 1.653-1.653.946 0 1.671.579 1.671 1.5 0 .805-.473 1.402-1.483 2.506l-2.881 3.153V112zm9.43-3.682c0-2.148-.579-3.937-1.619-5.454h-.886c.818 1.125 1.466 3.426 1.466 5.454 0 2.029-.648 4.33-1.466 5.455h.886c1.04-1.517 1.619-3.307 1.619-5.455z" fill="#000"/><path fill-rule="evenodd" clip-rule="evenodd" d="M28 122a2 2 0 00-2 2v16a2 2 0 002 2h57v-20H28zm61 0v20h222a2 2 0 002-2v-16a2 2 0 00-2-2H89z" fill="#fff"/><path d="M53.102 136h.852l.396-2.42h1.292l.136-.853h-1.287l.358-2.182h1.304l.136-.852h-1.3l.397-2.42h-.852l-.397 2.42h-2.215l.396-2.42h-.852l-.397 2.42h-1.29l-.137.852h1.287l-.358 2.182h-1.304l-.137.853h1.3l-.396 2.42h.852l.396-2.42h2.216l-.396 2.42zm-1.68-3.273l.359-2.182h2.216l-.358 2.182h-2.216zm9.046-5.454H59.41l-2.182 1.449v1.073l2.13-1.414h.052V136h1.057v-8.727zm124.015 5.045c0 2.148.58 3.938 1.62 5.455h.886c-.818-1.125-1.466-3.426-1.466-5.455 0-2.028.648-4.329 1.466-5.454h-.886c-1.04 1.517-1.62 3.306-1.62 5.454zm6.138 0c0-2.148-.58-3.937-1.619-5.454h-.887c.818 1.125 1.466 3.426 1.466 5.454 0 2.029-.648 4.33-1.466 5.455h.887c1.039-1.517 1.619-3.307 1.619-5.455zM201.727 136l3.818-3.818-3.818-3.818-.656.656 2.702 2.693h-6.998v.938h6.998l-2.702 2.701.656.648zm9.651-3.682c0 2.148.58 3.938 1.619 5.455h.887c-.818-1.125-1.466-3.426-1.466-5.455 0-2.028.648-4.329 1.466-5.454h-.887c-1.039 1.517-1.619 3.306-1.619 5.454zm6.137 0c0-2.148-.579-3.937-1.619-5.454h-.886c.818 1.125 1.466 3.426 1.466 5.454 0 2.029-.648 4.33-1.466 5.455h.886c1.04-1.517 1.619-3.307 1.619-5.455z" fill="#000"/><rect x="16" y="232" width="307" height="84" rx="2" fill="#C7C3D5"/><path d="M29.972 244.455h-1.41v-.589c0-.579.238-.894.86-.894.264 0 .452.059.57.098l.3-1.032a3.066 3.066 0 00-1.066-.174c-1.036 0-1.943.605-1.943 1.832v.759h-1.01v1.022h1.01V251h1.278v-5.523h1.41v-1.022zm5.46 3.831c.005 1.112-.822 1.64-1.538 1.64-.788 0-1.334-.571-1.334-1.462v-4.009h-1.274v4.163c0 1.623.89 2.467 2.148 2.467.984 0 1.653-.52 1.956-1.219h.068V251h1.253v-6.545h-1.279v3.831zm4.265-1.172c0-1.044.64-1.641 1.526-1.641.865 0 1.389.567 1.389 1.517V251h1.274v-4.163c0-1.62-.89-2.468-2.229-2.468-.984 0-1.627.456-1.93 1.151h-.081v-1.065h-1.223V251h1.274v-3.886zm8.655 4.018c1.547 0 2.548-.929 2.689-2.203H49.8c-.162.707-.712 1.125-1.44 1.125-1.079 0-1.773-.899-1.773-2.327 0-1.402.707-2.284 1.772-2.284.81 0 1.304.512 1.44 1.125h1.24c-.136-1.321-1.214-2.199-2.7-2.199-1.846 0-3.04 1.39-3.04 3.388 0 1.973 1.151 3.375 3.052 3.375zm7.107-6.677h-1.343v-1.569h-1.274v1.569h-.959v1.022h.96v3.865c-.005 1.189.903 1.765 1.908 1.743.405-.004.678-.081.827-.136l-.23-1.053c-.085.017-.243.056-.447.056-.414 0-.785-.137-.785-.874v-3.601h1.343v-1.022zm1.41 6.545h1.273v-6.545h-1.274V251zm.643-7.555c.439 0 .805-.341.805-.759s-.366-.763-.805-.763c-.444 0-.806.345-.806.763 0 .418.362.759.806.759zm5.102 7.687c1.845 0 3.05-1.351 3.05-3.375 0-2.037-1.205-3.388-3.05-3.388-1.845 0-3.051 1.351-3.051 3.388 0 2.024 1.206 3.375 3.05 3.375zm.004-1.07c-1.206 0-1.769-1.052-1.769-2.309 0-1.253.563-2.318 1.769-2.318 1.197 0 1.76 1.065 1.76 2.318 0 1.257-.563 2.309-1.76 2.309zm5.743-2.948c0-1.044.64-1.641 1.526-1.641.865 0 1.389.567 1.389 1.517V251h1.274v-4.163c0-1.62-.89-2.468-2.229-2.468-.984 0-1.627.456-1.93 1.151h-.081v-1.065h-1.223V251h1.274v-3.886zm13.978-1.061c-.264-1.019-1.06-1.684-2.475-1.684-1.48 0-2.527.78-2.527 1.939 0 .929.562 1.547 1.79 1.82l1.107.243c.631.14.925.422.925.831 0 .507-.541.903-1.376.903-.763 0-1.253-.328-1.407-.971l-1.231.187c.213 1.159 1.176 1.811 2.646 1.811 1.581 0 2.676-.839 2.676-2.024 0-.925-.588-1.496-1.79-1.773l-1.04-.238c-.72-.171-1.03-.414-1.026-.857-.005-.503.541-.861 1.265-.861.793 0 1.16.439 1.309.878l1.154-.204zm4.35 5.079c1.428 0 2.438-.703 2.728-1.768l-1.206-.218c-.23.618-.784.934-1.509.934-1.09 0-1.824-.708-1.858-1.969h4.654v-.452c0-2.365-1.415-3.29-2.898-3.29-1.824 0-3.026 1.39-3.026 3.401 0 2.033 1.185 3.362 3.115 3.362zm-1.84-3.976c.05-.929.724-1.734 1.76-1.734.988 0 1.636.733 1.64 1.734h-3.4zm8.82 3.976c1.546 0 2.548-.929 2.688-2.203h-1.24c-.162.707-.712 1.125-1.44 1.125-1.078 0-1.773-.899-1.773-2.327 0-1.402.708-2.284 1.773-2.284.81 0 1.304.512 1.44 1.125h1.24c-.136-1.321-1.214-2.199-2.701-2.199-1.846 0-3.039 1.39-3.039 3.388 0 1.973 1.15 3.375 3.051 3.375zm7.106-6.677h-1.342v-1.569h-1.274v1.569h-.96v1.022h.96v3.865c-.005 1.189.903 1.765 1.909 1.743.405-.004.677-.081.827-.136l-.231-1.053c-.085.017-.242.056-.447.056-.413 0-.784-.137-.784-.874v-3.601h1.342v-1.022zm1.41 6.545h1.274v-6.545h-1.274V251zm.643-7.555c.439 0 .806-.341.806-.759s-.367-.763-.806-.763c-.443 0-.805.345-.805.763 0 .418.362.759.805.759zm5.102 7.687c1.845 0 3.051-1.351 3.051-3.375 0-2.037-1.206-3.388-3.051-3.388-1.845 0-3.051 1.351-3.051 3.388 0 2.024 1.206 3.375 3.051 3.375zm.004-1.07c-1.206 0-1.768-1.052-1.768-2.309 0-1.253.562-2.318 1.768-2.318 1.198 0 1.76 1.065 1.76 2.318 0 1.257-.562 2.309-1.76 2.309zm5.744-2.948c0-1.044.639-1.641 1.525-1.641.865 0 1.389.567 1.389 1.517V251h1.274v-4.163c0-1.62-.89-2.468-2.228-2.468-.985 0-1.628.456-1.931 1.151h-.081v-1.065h-1.223V251h1.275v-3.886z" fill="#696184"/><path fill-rule="evenodd" clip-rule="evenodd" d="M28 262a2 2 0 00-2 2v16a2 2 0 002 2h57v-20H28zm61 0v20h222a2 2 0 002-2v-16a2 2 0 00-2-2H89z" fill="#fff"/><path d="M53.102 276h.852l.396-2.42h1.292l.136-.853h-1.287l.358-2.182h1.304l.136-.852h-1.3l.397-2.42h-.852l-.397 2.42h-2.215l.396-2.42h-.852l-.397 2.42h-1.29l-.137.852h1.287l-.358 2.182h-1.304l-.137.853h1.3l-.396 2.42h.852l.396-2.42h2.216l-.396 2.42zm-1.68-3.273l.359-2.182h2.216l-.358 2.182h-2.216zm9.046-5.454H59.41l-2.182 1.449v1.073l2.13-1.414h.052V276h1.057v-8.727zm127.155 2.182h-1.398v-1.569h-1.006v1.569h-.989v.852h.989v4.091c0 1.142.921 1.687 1.773 1.687a2.1 2.1 0 00.75-.119l-.205-.904c-.085.018-.221.052-.443.052-.443 0-.869-.137-.869-.989v-3.818h1.398v-.852zm2.16 9c.908 0 1.547-.482 1.926-1.5l2.779-7.5h-1.091l-1.807 5.215h-.068l-1.807-5.215h-1.091l2.42 6.579-.187.511c-.367.998-.818 1.091-1.551.904l-.256.886c.102.051.392.12.733.12zm6.032 0h1.006v-3.461h.085c.221.358.648 1.142 1.909 1.142 1.636 0 2.778-1.312 2.778-3.392 0-2.062-1.142-3.375-2.795-3.375-1.278 0-1.671.784-1.892 1.125h-.119v-1.039h-.972v9zm.989-5.728c0-1.466.647-2.454 1.875-2.454 1.278 0 1.909 1.074 1.909 2.454 0 1.398-.648 2.506-1.909 2.506-1.211 0-1.875-1.023-1.875-2.506zm9.068 3.409c1.329 0 2.301-.664 2.608-1.653l-.972-.273c-.256.682-.848 1.023-1.636 1.023-1.181 0-1.995-.763-2.041-2.165h4.751v-.426c0-2.437-1.449-3.273-2.812-3.273-1.773 0-2.949 1.398-2.949 3.409 0 2.012 1.159 3.358 3.051 3.358zm-2.041-3.937c.068-1.019.788-1.926 1.939-1.926 1.09 0 1.789.818 1.789 1.926h-3.728zm12.707-4.926h-1.057l-2.182 1.449v1.073l2.131-1.414h.051V276h1.057v-8.727z" fill="#000"/><path fill-rule="evenodd" clip-rule="evenodd" d="M28 286a2 2 0 00-2 2v16a2 2 0 002 2h57v-20H28zm61 0v20h222a2 2 0 002-2v-16a2 2 0 00-2-2H89z" fill="#fff"/><path d="M52.258 300h.852l.397-2.42h1.29l.137-.853h-1.287l.358-2.182h1.304l.137-.852h-1.3l.396-2.42h-.852l-.396 2.42h-2.216l.396-2.42h-.852l-.397 2.42h-1.29l-.137.852h1.287l-.358 2.182h-1.304l-.136.853h1.3L49.19 300h.852l.397-2.42h2.215l-.396 2.42zm-1.679-3.273l.358-2.182h2.216l-.358 2.182H50.58zM56.556 300h5.505v-.938h-4.056v-.068l1.96-2.096c1.5-1.607 1.943-2.357 1.943-3.324 0-1.347-1.09-2.421-2.625-2.421-1.53 0-2.693 1.04-2.693 2.574h1.005c0-.993.644-1.653 1.654-1.653.946 0 1.67.579 1.67 1.5 0 .805-.473 1.402-1.483 2.506l-2.88 3.153V300zm130.106-6.545h-1.398v-1.569h-1.006v1.569h-.988v.852h.988v4.091c0 1.142.921 1.687 1.773 1.687.375 0 .614-.068.75-.119l-.205-.904c-.085.018-.221.052-.443.052-.443 0-.869-.137-.869-.989v-3.818h1.398v-.852zm2.16 9c.908 0 1.547-.482 1.926-1.5l2.779-7.5h-1.091l-1.807 5.215h-.068l-1.807-5.215h-1.091l2.42 6.579-.187.511c-.367.998-.818 1.091-1.551.904l-.256.886c.102.051.392.12.733.12zm6.032 0h1.006v-3.461h.085c.222.358.648 1.142 1.909 1.142 1.636 0 2.778-1.312 2.778-3.392 0-2.062-1.142-3.375-2.795-3.375-1.278 0-1.67.784-1.892 1.125h-.119v-1.039h-.972v9zm.989-5.728c0-1.466.647-2.454 1.875-2.454 1.278 0 1.909 1.074 1.909 2.454 0 1.398-.648 2.506-1.909 2.506-1.211 0-1.875-1.023-1.875-2.506zm9.068 3.409c1.329 0 2.301-.664 2.608-1.653l-.972-.273c-.255.682-.848 1.023-1.636 1.023-1.181 0-1.994-.763-2.041-2.165h4.751v-.426c0-2.437-1.449-3.273-2.812-3.273-1.773 0-2.949 1.398-2.949 3.409 0 2.012 1.159 3.358 3.051 3.358zm-2.041-3.937c.068-1.019.788-1.926 1.939-1.926 1.091 0 1.789.818 1.789 1.926h-3.728zm12.485 3.92c1.927 0 3.035-1.632 3.035-4.483 0-2.829-1.125-4.483-3.035-4.483-1.909 0-3.034 1.654-3.034 4.483 0 2.851 1.108 4.483 3.034 4.483zm0-.937c-1.269 0-2.011-1.274-2.011-3.546 0-2.267.75-3.562 2.011-3.562 1.262 0 2.012 1.295 2.012 3.562 0 2.272-.742 3.546-2.012 3.546z" fill="#000"/><rect x="16" y="162" width="307" height="60" rx="2" fill="#C7C3D5"/><path d="M26.857 181h1.274v-6.545h-1.274V181zm.643-7.555c.439 0 .805-.341.805-.759s-.366-.763-.805-.763c-.443 0-.805.345-.805.763 0 .418.362.759.805.759zM29.845 181h1.274v-4.036c0-.882.618-1.495 1.342-1.495.708 0 1.198.469 1.198 1.18V181h1.27v-4.172c0-.788.481-1.359 1.312-1.359.673 0 1.227.375 1.227 1.261V181h1.274v-4.389c0-1.496-.835-2.242-2.02-2.242-.941 0-1.648.452-1.964 1.151h-.068c-.285-.716-.886-1.151-1.76-1.151-.865 0-1.508.431-1.781 1.151h-.081v-1.065h-1.223V181zm10.605 2.455h1.274v-3.473h.077c.23.417.699 1.146 1.892 1.146 1.585 0 2.736-1.27 2.736-3.388 0-2.122-1.168-3.371-2.749-3.371-1.214 0-1.653.742-1.879 1.147h-.106v-1.061H40.45v9zm1.249-5.728c0-1.368.596-2.275 1.709-2.275 1.154 0 1.734.976 1.734 2.275 0 1.313-.597 2.314-1.734 2.314-1.096 0-1.71-.937-1.71-2.314zm8.915 3.405c1.845 0 3.05-1.351 3.05-3.375 0-2.037-1.205-3.388-3.05-3.388-1.845 0-3.051 1.351-3.051 3.388 0 2.024 1.206 3.375 3.05 3.375zm.004-1.07c-1.206 0-1.769-1.052-1.769-2.309 0-1.253.563-2.318 1.769-2.318 1.197 0 1.76 1.065 1.76 2.318 0 1.257-.563 2.309-1.76 2.309zm4.469.938h1.274v-3.997c0-.857.66-1.475 1.564-1.475.264 0 .563.047.665.077v-1.219a5.199 5.199 0 00-.541-.029c-.767 0-1.424.434-1.662 1.137h-.069v-1.039h-1.231V181zm8.048-6.545h-1.343v-1.569h-1.274v1.569h-.959v1.022h.96v3.865c-.005 1.189.903 1.765 1.908 1.743.405-.004.678-.081.827-.136l-.23-1.053c-.085.017-.243.056-.448.056-.413 0-.784-.137-.784-.874v-3.601h1.343v-1.022zm9.49 1.598c-.265-1.019-1.061-1.684-2.476-1.684-1.479 0-2.527.78-2.527 1.939 0 .929.562 1.547 1.79 1.82l1.107.243c.631.14.925.422.925.831 0 .507-.54.903-1.376.903-.763 0-1.253-.328-1.406-.971l-1.232.187c.213 1.159 1.176 1.811 2.646 1.811 1.581 0 2.677-.839 2.677-2.024 0-.925-.589-1.496-1.79-1.773l-1.04-.238c-.72-.171-1.031-.414-1.027-.857-.004-.503.541-.861 1.266-.861.792 0 1.159.439 1.308.878l1.155-.204zm4.35 5.079c1.427 0 2.437-.703 2.727-1.768l-1.206-.218c-.23.618-.784.934-1.509.934-1.09 0-1.824-.708-1.858-1.969h4.654v-.452c0-2.365-1.415-3.29-2.898-3.29-1.824 0-3.026 1.39-3.026 3.401 0 2.033 1.185 3.362 3.115 3.362zm-1.841-3.976c.05-.929.724-1.734 1.76-1.734.988 0 1.636.733 1.64 1.734h-3.4zm8.82 3.976c1.546 0 2.548-.929 2.688-2.203h-1.24c-.162.707-.711 1.125-1.44 1.125-1.078 0-1.773-.899-1.773-2.327 0-1.402.708-2.284 1.773-2.284.81 0 1.304.512 1.44 1.125h1.24c-.136-1.321-1.214-2.199-2.701-2.199-1.846 0-3.039 1.39-3.039 3.388 0 1.973 1.15 3.375 3.052 3.375zm7.106-6.677h-1.342v-1.569h-1.274v1.569h-.959v1.022h.959v3.865c-.004 1.189.903 1.765 1.909 1.743.405-.004.678-.081.827-.136l-.23-1.053c-.086.017-.243.056-.448.056-.413 0-.784-.137-.784-.874v-3.601h1.342v-1.022zM92.47 181h1.274v-6.545H92.47V181zm.643-7.555c.44 0 .806-.341.806-.759s-.367-.763-.806-.763c-.443 0-.805.345-.805.763 0 .418.362.759.805.759zm5.102 7.687c1.845 0 3.051-1.351 3.051-3.375 0-2.037-1.206-3.388-3.05-3.388-1.846 0-3.052 1.351-3.052 3.388 0 2.024 1.206 3.375 3.051 3.375zm.004-1.07c-1.206 0-1.768-1.052-1.768-2.309 0-1.253.563-2.318 1.769-2.318 1.197 0 1.76 1.065 1.76 2.318 0 1.257-.563 2.309-1.76 2.309zm5.744-2.948c0-1.044.639-1.641 1.525-1.641.865 0 1.389.567 1.389 1.517V181h1.275v-4.163c0-1.62-.891-2.468-2.229-2.468-.984 0-1.628.456-1.93 1.151h-.081v-1.065h-1.223V181h1.274v-3.886z" fill="#696184"/><path fill-rule="evenodd" clip-rule="evenodd" d="M28 192a2 2 0 00-2 2v16a2 2 0 002 2h57v-20H28zm61 0v20h222a2 2 0 002-2v-16a2 2 0 00-2-2H89z" fill="#fff"/><path d="M52.141 206h.852l.397-2.42h1.29l.137-.853H53.53l.358-2.182h1.304l.136-.852h-1.3l.397-2.42h-.852l-.397 2.42h-2.215l.396-2.42h-.852l-.397 2.42h-1.29l-.137.852h1.287l-.358 2.182h-1.304l-.137.853h1.3l-.396 2.42h.852l.396-2.42h2.216l-.396 2.42zm-1.679-3.273l.358-2.182h2.216l-.358 2.182h-2.216zm8.823 3.392c1.926 0 3.034-1.632 3.034-4.483 0-2.829-1.125-4.483-3.034-4.483-1.909 0-3.034 1.654-3.034 4.483 0 2.851 1.108 4.483 3.034 4.483zm0-.937c-1.27 0-2.011-1.274-2.011-3.546 0-2.267.75-3.562 2.011-3.562 1.262 0 2.012 1.295 2.012 3.562 0 2.272-.742 3.546-2.012 3.546zM110.794 200h.955v-.784c0-.631.307-1.176.665-1.688l-.546-.443c-.682.546-1.074 1.449-1.074 2.148V200zm2.182 0h.955v-.784c0-.631.307-1.176.665-1.688l-.546-.443c-.682.546-1.074 1.449-1.074 2.148V200zm3.735 2.062c0-1.142.729-1.789 1.722-1.789.946 0 1.517.596 1.517 1.636V206h1.006v-4.159c0-1.683-.895-2.472-2.233-2.472-1.032 0-1.62.431-1.926 1.108h-.086v-3.204h-1.005V206h1.005v-3.938zm8.011 4.091c1.142 0 1.738-.613 1.943-1.039h.051V206h1.006v-4.312c0-2.08-1.586-2.319-2.421-2.319-.989 0-2.113.341-2.625 1.534l.955.341c.221-.477.745-.988 1.704-.988.925 0 1.381.49 1.381 1.329v.034c0 .486-.494.443-1.688.597-1.214.158-2.539.426-2.539 1.926 0 1.278.988 2.011 2.233 2.011zm.153-.903c-.801 0-1.381-.358-1.381-1.057 0-.767.699-1.005 1.483-1.108.426-.051 1.568-.17 1.739-.375v.921c0 .818-.648 1.619-1.841 1.619zm5.688-7.977h-1.006V206h1.006v-8.727zm4.757 2.182h-1.466v-.665c0-.648.272-.989.937-.989.29 0 .46.068.563.102l.289-.869c-.153-.068-.46-.17-.954-.17-.938 0-1.841.562-1.841 1.687v.904h-1.057v.852h1.057V206h1.006v-5.693h1.466v-.852zm2.295-2.182h-.954v.784c0 .631-.307 1.176-.665 1.687l.546.444c.681-.546 1.073-1.449 1.073-2.148v-.767zm2.182 0h-.954v.784c0 .631-.307 1.176-.665 1.687l.545.444c.682-.546 1.074-1.449 1.074-2.148v-.767zm7.792 2.182h-1.466v-.665c0-.648.273-.989.938-.989.289 0 .46.068.562.102l.29-.869c-.153-.068-.46-.17-.955-.17-.937 0-1.84.562-1.84 1.687v.904h-1.057v.852h1.057V206h1.005v-5.693h1.466v-.852zm1.41 6.545h1.005v-4.142c0-.886.699-1.534 1.654-1.534.268 0 .545.051.613.068v-1.023a10.212 10.212 0 00-.528-.017c-.784 0-1.466.443-1.705 1.091h-.068v-.988h-.971V206zm6.924.136c1.773 0 2.966-1.346 2.966-3.375 0-2.045-1.193-3.392-2.966-3.392-1.772 0-2.966 1.347-2.966 3.392 0 2.029 1.194 3.375 2.966 3.375zm0-.903c-1.346 0-1.96-1.159-1.96-2.472 0-1.312.614-2.488 1.96-2.488 1.347 0 1.961 1.176 1.961 2.488 0 1.313-.614 2.472-1.961 2.472zm4.501.767h1.006v-4.091c0-.959.699-1.636 1.483-1.636.763 0 1.295.498 1.295 1.244V206h1.023v-4.261c0-.844.529-1.466 1.449-1.466.716 0 1.33.379 1.33 1.346V206h1.005v-4.381c0-1.538-.826-2.25-1.994-2.25-.938 0-1.624.431-1.96 1.108h-.068c-.324-.699-.895-1.108-1.756-1.108-.852 0-1.483.409-1.756 1.108h-.085v-1.022h-.972V206zm13.464-6h.955v-.784c0-.631.307-1.176.664-1.688l-.545-.443c-.682.546-1.074 1.449-1.074 2.148V200zm2.182 0h.955v-.784c0-.631.306-1.176.664-1.688l-.545-.443c-.682.546-1.074 1.449-1.074 2.148V200zm5.474 6.136c1.329 0 2.301-.664 2.608-1.653l-.972-.273c-.256.682-.848 1.023-1.636 1.023-1.181 0-1.995-.763-2.042-2.165h4.752v-.426c0-2.437-1.449-3.273-2.813-3.273-1.772 0-2.948 1.398-2.948 3.409 0 2.012 1.159 3.358 3.051 3.358zm-2.042-3.937c.069-1.019.789-1.926 1.939-1.926 1.091 0 1.79.818 1.79 1.926h-3.729zm6.856-2.744h-1.159l2.079 3.272-2.079 3.273h1.159l1.568-2.54 1.568 2.54h1.159l-2.113-3.273 2.113-3.272h-1.159l-1.568 2.676-1.568-2.676zm7.657 6.698c1.142 0 1.738-.613 1.943-1.039h.051V206h1.006v-4.312c0-2.08-1.586-2.319-2.421-2.319-.989 0-2.114.341-2.625 1.534l.955.341c.221-.477.745-.988 1.704-.988.925 0 1.381.49 1.381 1.329v.034c0 .486-.494.443-1.688.597-1.214.158-2.539.426-2.539 1.926 0 1.278.988 2.011 2.233 2.011zm.153-.903c-.801 0-1.381-.358-1.381-1.057 0-.767.699-1.005 1.483-1.108.426-.051 1.568-.17 1.739-.375v.921c0 .818-.648 1.619-1.841 1.619zm4.682.75h1.006v-4.091c0-.959.699-1.636 1.483-1.636.763 0 1.295.498 1.295 1.244V206h1.023v-4.261c0-.844.528-1.466 1.449-1.466.716 0 1.329.379 1.329 1.346V206h1.006v-4.381c0-1.538-.827-2.25-1.994-2.25-.938 0-1.624.431-1.96 1.108h-.069c-.324-.699-.895-1.108-1.755-1.108-.853 0-1.483.409-1.756 1.108h-.085v-1.022h-.972V206zm10.43 2.455h1.006v-3.461h.085c.221.358.647 1.142 1.909 1.142 1.636 0 2.778-1.312 2.778-3.392 0-2.062-1.142-3.375-2.795-3.375-1.279 0-1.671.784-1.892 1.125h-.12v-1.039h-.971v9zm.988-5.728c0-1.466.648-2.454 1.875-2.454 1.279 0 1.91 1.074 1.91 2.454 0 1.398-.648 2.506-1.91 2.506-1.21 0-1.875-1.023-1.875-2.506zm7.33-5.454h-1.006V206h1.006v-8.727zm4.586 8.863c1.33 0 2.301-.664 2.608-1.653l-.971-.273c-.256.682-.848 1.023-1.637 1.023-1.18 0-1.994-.763-2.041-2.165h4.752v-.426c0-2.437-1.449-3.273-2.813-3.273-1.773 0-2.949 1.398-2.949 3.409 0 2.012 1.159 3.358 3.051 3.358zm-2.041-3.937c.068-1.019.788-1.926 1.939-1.926 1.091 0 1.79.818 1.79 1.926h-3.729zm6.264 3.801h5.506v-.938h-4.057v-.068l1.96-2.096c1.5-1.607 1.944-2.357 1.944-3.324 0-1.347-1.091-2.421-2.625-2.421-1.53 0-2.694 1.04-2.694 2.574h1.006c0-.993.644-1.653 1.653-1.653.947 0 1.671.579 1.671 1.5 0 .805-.473 1.402-1.483 2.506l-2.881 3.153V206zm8.169-8.727h-.954v.784c0 .631-.307 1.176-.665 1.687l.545.444c.682-.546 1.074-1.449 1.074-2.148v-.767zm2.182 0h-.954v.784c0 .631-.307 1.176-.665 1.687l.545.444c.682-.546 1.074-1.449 1.074-2.148v-.767zm7.536 8.863c1.773 0 2.966-1.346 2.966-3.375 0-2.045-1.193-3.392-2.966-3.392-1.772 0-2.966 1.347-2.966 3.392 0 2.029 1.194 3.375 2.966 3.375zm0-.903c-1.346 0-1.96-1.159-1.96-2.472 0-1.312.614-2.488 1.96-2.488 1.347 0 1.961 1.176 1.961 2.488 0 1.313-.614 2.472-1.961 2.472zm7.416-5.778h-1.466v-.665c0-.648.273-.989.938-.989.29 0 .46.068.562.102l.29-.869c-.153-.068-.46-.17-.954-.17-.938 0-1.841.562-1.841 1.687v.904h-1.057v.852h1.057V206h1.005v-5.693h1.466v-.852zm7.631 0h-1.397v-1.569h-1.006v1.569h-.989v.852h.989v4.091c0 1.142.92 1.687 1.773 1.687a2.1 2.1 0 00.75-.119l-.205-.904c-.085.018-.222.052-.443.052-.443 0-.869-.137-.869-.989v-3.818h1.397v-.852zm2.161 9c.907 0 1.547-.482 1.926-1.5l2.778-7.5h-1.091l-1.806 5.215h-.069l-1.806-5.215h-1.091l2.42 6.579-.187.511c-.367.998-.819 1.091-1.551.904l-.256.886c.102.051.392.12.733.12zm6.032 0h1.005v-3.461h.086c.221.358.647 1.142 1.909 1.142 1.636 0 2.778-1.312 2.778-3.392 0-2.062-1.142-3.375-2.795-3.375-1.279 0-1.671.784-1.892 1.125h-.12v-1.039h-.971v9zm.988-5.728c0-1.466.648-2.454 1.875-2.454 1.279 0 1.909 1.074 1.909 2.454 0 1.398-.647 2.506-1.909 2.506-1.21 0-1.875-1.023-1.875-2.506zm9.069 3.409c1.329 0 2.301-.664 2.608-1.653l-.972-.273c-.256.682-.848 1.023-1.636 1.023-1.181 0-1.995-.763-2.042-2.165h4.752v-.426c0-2.437-1.449-3.273-2.813-3.273-1.772 0-2.949 1.398-2.949 3.409 0 2.012 1.16 3.358 3.052 3.358zm-2.042-3.937c.069-1.019.789-1.926 1.939-1.926 1.091 0 1.79.818 1.79 1.926h-3.729zm12.486 3.92c1.926 0 3.034-1.632 3.034-4.483 0-2.829-1.125-4.483-3.034-4.483-1.909 0-3.034 1.654-3.034 4.483 0 2.851 1.108 4.483 3.034 4.483zm0-.937c-1.27 0-2.011-1.274-2.011-3.546 0-2.267.75-3.562 2.011-3.562 1.262 0 2.012 1.295 2.012 3.562 0 2.272-.742 3.546-2.012 3.546z" fill="#000"/><rect x="16" y="326" width="307" height="60" rx="2" fill="#C7C3D5"/><path d="M29.678 345.132c1.427 0 2.437-.703 2.727-1.768l-1.206-.218c-.23.618-.784.934-1.509.934-1.09 0-1.824-.708-1.858-1.969h4.654v-.452c0-2.365-1.415-3.29-2.898-3.29-1.824 0-3.026 1.39-3.026 3.401 0 2.033 1.185 3.362 3.116 3.362zm-1.841-3.976c.05-.929.724-1.734 1.76-1.734.988 0 1.636.733 1.64 1.734h-3.4zm6.916-2.701h-1.398l2.012 3.272L33.33 345h1.397l1.47-2.446L37.672 345h1.393l-2.058-3.273 2.041-3.272h-1.393l-1.458 2.548-1.444-2.548zm5.603 9h1.275v-3.473h.076c.23.417.7 1.146 1.892 1.146 1.586 0 2.736-1.27 2.736-3.388 0-2.122-1.167-3.371-2.748-3.371-1.215 0-1.654.742-1.88 1.147h-.106v-1.061h-1.245v9zm1.25-5.728c0-1.368.596-2.275 1.708-2.275 1.155 0 1.734.976 1.734 2.275 0 1.313-.596 2.314-1.734 2.314-1.095 0-1.709-.937-1.709-2.314zm8.914 3.405c1.845 0 3.051-1.351 3.051-3.375 0-2.037-1.206-3.388-3.051-3.388-1.845 0-3.051 1.351-3.051 3.388 0 2.024 1.206 3.375 3.05 3.375zm.004-1.07c-1.206 0-1.768-1.052-1.768-2.309 0-1.253.562-2.318 1.768-2.318 1.198 0 1.76 1.065 1.76 2.318 0 1.257-.562 2.309-1.76 2.309zm4.47.938h1.273v-3.997c0-.857.66-1.475 1.564-1.475.264 0 .563.047.665.077v-1.219a5.2 5.2 0 00-.541-.029c-.767 0-1.423.434-1.662 1.137h-.068v-1.039h-1.232V345zm8.047-6.545h-1.342v-1.569h-1.275v1.569h-.958v1.022h.958v3.865c-.004 1.189.904 1.765 1.91 1.743.404-.004.677-.081.826-.136l-.23-1.053c-.085.017-.243.056-.447.056-.414 0-.784-.137-.784-.874v-3.601h1.342v-1.022zm9.49 1.598c-.264-1.019-1.061-1.684-2.476-1.684-1.479 0-2.527.78-2.527 1.939 0 .929.563 1.547 1.79 1.82l1.108.243c.63.14.924.422.924.831 0 .507-.54.903-1.376.903-.763 0-1.253-.328-1.406-.971l-1.232.187c.213 1.159 1.176 1.811 2.647 1.811 1.58 0 2.676-.839 2.676-2.024 0-.925-.588-1.496-1.79-1.773l-1.04-.238c-.72-.171-1.031-.414-1.027-.857-.004-.503.541-.861 1.266-.861.792 0 1.159.439 1.308.878l1.155-.204zm4.35 5.079c1.427 0 2.437-.703 2.727-1.768l-1.206-.218c-.23.618-.784.934-1.508.934-1.091 0-1.824-.708-1.859-1.969h4.654v-.452c0-2.365-1.415-3.29-2.898-3.29-1.824 0-3.025 1.39-3.025 3.401 0 2.033 1.184 3.362 3.115 3.362zm-1.841-3.976c.05-.929.724-1.734 1.76-1.734.988 0 1.636.733 1.64 1.734h-3.4zm8.82 3.976c1.547 0 2.548-.929 2.689-2.203h-1.24c-.162.707-.712 1.125-1.44 1.125-1.079 0-1.773-.899-1.773-2.327 0-1.402.707-2.284 1.772-2.284.81 0 1.304.512 1.44 1.125h1.24c-.136-1.321-1.214-2.199-2.701-2.199-1.845 0-3.038 1.39-3.038 3.388 0 1.973 1.15 3.375 3.05 3.375zm7.107-6.677h-1.343v-1.569H88.35v1.569h-.959v1.022h.96v3.865c-.005 1.189.903 1.765 1.908 1.743.405-.004.678-.081.827-.136l-.23-1.053c-.085.017-.243.056-.448.056-.413 0-.784-.137-.784-.874v-3.601h1.343v-1.022zm1.41 6.545h1.273v-6.545h-1.274V345zm.642-7.555c.44 0 .806-.341.806-.759s-.367-.763-.806-.763c-.443 0-.805.345-.805.763 0 .418.362.759.805.759zm5.102 7.687c1.846 0 3.052-1.351 3.052-3.375 0-2.037-1.206-3.388-3.052-3.388-1.845 0-3.05 1.351-3.05 3.388 0 2.024 1.205 3.375 3.05 3.375zm.005-1.07c-1.206 0-1.769-1.052-1.769-2.309 0-1.253.563-2.318 1.769-2.318 1.197 0 1.76 1.065 1.76 2.318 0 1.257-.563 2.309-1.76 2.309zm5.743-2.948c0-1.044.639-1.641 1.526-1.641.865 0 1.389.567 1.389 1.517V345h1.274v-4.163c0-1.62-.891-2.468-2.229-2.468-.984 0-1.628.456-1.93 1.151h-.081v-1.065h-1.223V345h1.274v-3.886z" fill="#696184"/><rect x="26.099" y="356" width="286.803" height="20" rx="2" fill="#fff"/><path d="M118.95 364h.954v-.784c0-.631.307-1.176.665-1.688l-.545-.443c-.682.546-1.074 1.449-1.074 2.148V364zm2.182 0h.954v-.784c0-.631.307-1.176.665-1.688l-.546-.443c-.681.546-1.073 1.449-1.073 2.148V364zm5.201 6.136c1.261 0 1.687-.784 1.909-1.142h.119V370h.972v-8.727h-1.006v3.221h-.085c-.222-.341-.614-1.125-1.892-1.125-1.654 0-2.796 1.313-2.796 3.375 0 2.08 1.142 3.392 2.779 3.392zm.136-.903c-1.261 0-1.909-1.108-1.909-2.506 0-1.38.63-2.454 1.909-2.454 1.227 0 1.875.988 1.875 2.454 0 1.483-.665 2.506-1.875 2.506zm7.504.903c1.773 0 2.966-1.346 2.966-3.375 0-2.045-1.193-3.392-2.966-3.392-1.773 0-2.966 1.347-2.966 3.392 0 2.029 1.193 3.375 2.966 3.375zm0-.903c-1.346 0-1.96-1.159-1.96-2.472 0-1.312.614-2.488 1.96-2.488 1.347 0 1.96 1.176 1.96 2.488 0 1.313-.613 2.472-1.96 2.472zm8.626-1.909c0 1.227-.937 1.79-1.687 1.79-.836 0-1.432-.614-1.432-1.569v-4.09h-1.006v4.159c0 1.67.887 2.471 2.114 2.471.988 0 1.636-.528 1.943-1.193h.068V370h1.006v-6.545h-1.006v3.869zm2.984 2.676h.972v-1.006h.119c.222.358.648 1.142 1.909 1.142 1.637 0 2.779-1.312 2.779-3.392 0-2.062-1.142-3.375-2.796-3.375-1.278 0-1.67.784-1.892 1.125h-.085v-3.221h-1.006V370zm.989-3.273c0-1.466.648-2.454 1.875-2.454 1.278 0 1.909 1.074 1.909 2.454 0 1.398-.648 2.506-1.909 2.506-1.21 0-1.875-1.023-1.875-2.506zm7.334-5.454H152.9V370h1.006v-8.727zm4.586 8.863c1.33 0 2.301-.664 2.608-1.653l-.972-.273c-.255.682-.848 1.023-1.636 1.023-1.18 0-1.994-.763-2.041-2.165h4.751v-.426c0-2.437-1.449-3.273-2.812-3.273-1.773 0-2.949 1.398-2.949 3.409 0 2.012 1.159 3.358 3.051 3.358zm-2.041-3.937c.068-1.019.788-1.926 1.939-1.926 1.091 0 1.789.818 1.789 1.926h-3.728zm7.167-4.926h-.954v.784c0 .631-.307 1.176-.665 1.687l.546.444c.681-.546 1.073-1.449 1.073-2.148v-.767zm2.182 0h-.954v.784c0 .631-.307 1.176-.665 1.687l.545.444c.682-.546 1.074-1.449 1.074-2.148v-.767zm7.536 8.863c1.773 0 2.966-1.346 2.966-3.375 0-2.045-1.193-3.392-2.966-3.392-1.772 0-2.965 1.347-2.965 3.392 0 2.029 1.193 3.375 2.965 3.375zm0-.903c-1.346 0-1.96-1.159-1.96-2.472 0-1.312.614-2.488 1.96-2.488 1.347 0 1.961 1.176 1.961 2.488 0 1.313-.614 2.472-1.961 2.472zm7.416-5.778h-1.466v-.665c0-.648.273-.989.938-.989.29 0 .46.068.562.102l.29-.869c-.153-.068-.46-.17-.954-.17-.938 0-1.841.562-1.841 1.687v.904h-1.057v.852h1.057V370h1.005v-5.693h1.466v-.852zm7.631 0h-1.397v-1.569h-1.006v1.569h-.989v.852h.989v4.091c0 1.142.92 1.687 1.773 1.687a2.1 2.1 0 00.75-.119l-.205-.904c-.085.018-.222.052-.443.052-.443 0-.869-.137-.869-.989v-3.818h1.397v-.852zm2.161 9c.907 0 1.547-.482 1.926-1.5l2.778-7.5h-1.091l-1.806 5.215h-.069l-1.806-5.215h-1.091l2.42 6.579-.187.511c-.367.998-.818 1.091-1.551.904l-.256.886c.102.051.392.12.733.12zm6.032 0h1.005v-3.461h.086c.221.358.647 1.142 1.909 1.142 1.636 0 2.778-1.312 2.778-3.392 0-2.062-1.142-3.375-2.795-3.375-1.279 0-1.671.784-1.892 1.125h-.12v-1.039h-.971v9zm.988-5.728c0-1.466.648-2.454 1.875-2.454 1.279 0 1.91 1.074 1.91 2.454 0 1.398-.648 2.506-1.91 2.506-1.21 0-1.875-1.023-1.875-2.506zm9.069 3.409c1.329 0 2.301-.664 2.608-1.653l-.972-.273c-.256.682-.848 1.023-1.636 1.023-1.181 0-1.995-.763-2.042-2.165h4.752v-.426c0-2.437-1.449-3.273-2.813-3.273-1.772 0-2.949 1.398-2.949 3.409 0 2.012 1.16 3.358 3.052 3.358zm-2.042-3.937c.069-1.019.789-1.926 1.939-1.926 1.091 0 1.79.818 1.79 1.926h-3.729zm12.486 3.92c1.926 0 3.034-1.632 3.034-4.483 0-2.829-1.125-4.483-3.034-4.483-1.909 0-3.034 1.654-3.034 4.483 0 2.851 1.108 4.483 3.034 4.483zm0-.937c-1.27 0-2.011-1.274-2.011-3.546 0-2.267.75-3.562 2.011-3.562 1.262 0 2.012 1.295 2.012 3.562 0 2.272-.742 3.546-2.012 3.546z" fill="#000"/><rect x="333" y="68" width="307" height="60" rx="2" fill="#C7C3D5"/><path d="M348.761 82.053c-.264-1.019-1.061-1.684-2.475-1.684-1.479 0-2.527.78-2.527 1.94 0 .928.562 1.546 1.789 1.819l1.108.243c.631.14.925.422.925.83 0 .508-.541.904-1.376.904-.763 0-1.253-.328-1.407-.972l-1.231.188c.213 1.16 1.176 1.811 2.646 1.811 1.581 0 2.676-.84 2.676-2.024 0-.925-.588-1.496-1.79-1.773l-1.039-.238c-.721-.17-1.032-.414-1.027-.857-.005-.503.541-.86 1.265-.86.793 0 1.159.438 1.309.877l1.154-.204zm4.585-1.599h-1.343v-1.568h-1.274v1.569h-.959v1.022h.959v3.865c-.004 1.19.903 1.764 1.909 1.743a2.42 2.42 0 00.827-.136l-.23-1.053c-.085.017-.243.056-.448.056-.413 0-.784-.137-.784-.874v-3.6h1.343v-1.023zm3.314 6.69c1.082 0 1.692-.549 1.934-1.039h.052V87h1.244v-4.347c0-1.904-1.5-2.284-2.54-2.284-1.185 0-2.275.478-2.702 1.67l1.198.273c.187-.464.665-.911 1.521-.911.823 0 1.245.43 1.245 1.171v.03c0 .465-.478.456-1.654.593-1.24.145-2.51.468-2.51 1.956 0 1.287.967 1.994 2.212 1.994zm.277-1.022c-.72 0-1.24-.324-1.24-.954 0-.682.605-.925 1.342-1.023.413-.055 1.394-.166 1.577-.35v.844c0 .776-.618 1.483-1.679 1.483zm4.65.878h1.274v-3.997c0-.857.661-1.475 1.564-1.475.264 0 .563.047.665.077v-1.219a5.157 5.157 0 00-.541-.03c-.767 0-1.424.435-1.662 1.138h-.068v-1.04h-1.232V87zm8.048-6.546h-1.343v-1.568h-1.274v1.569h-.959v1.022h.959v3.865c-.004 1.19.904 1.764 1.909 1.743a2.42 2.42 0 00.827-.136l-.23-1.053c-.085.017-.243.056-.448.056-.413 0-.784-.137-.784-.874v-3.6h1.343v-1.023zm9.49 1.599c-.265-1.019-1.061-1.684-2.476-1.684-1.479 0-2.527.78-2.527 1.94 0 .928.562 1.546 1.79 1.819l1.108.243c.63.14.924.422.924.83 0 .508-.541.904-1.376.904-.763 0-1.253-.328-1.406-.972l-1.232.188c.213 1.16 1.176 1.811 2.646 1.811 1.581 0 2.676-.84 2.676-2.024 0-.925-.588-1.496-1.789-1.773l-1.04-.238c-.72-.17-1.031-.414-1.027-.857-.004-.503.541-.86 1.266-.86.792 0 1.159.438 1.308.877l1.155-.204zm4.349 5.08c1.428 0 2.438-.704 2.728-1.77l-1.206-.217c-.23.618-.784.933-1.509.933-1.091 0-1.824-.707-1.858-1.968h4.654v-.452c0-2.365-1.415-3.29-2.898-3.29-1.824 0-3.026 1.39-3.026 3.4 0 2.034 1.185 3.363 3.115 3.363zm-1.84-3.977c.051-.929.724-1.734 1.759-1.734.989 0 1.637.733 1.641 1.734h-3.4zm8.819 3.976c1.547 0 2.549-.929 2.689-2.203h-1.24c-.162.707-.711 1.125-1.44 1.125-1.078 0-1.773-.9-1.773-2.327 0-1.402.708-2.284 1.773-2.284.81 0 1.304.511 1.44 1.125h1.24c-.136-1.32-1.214-2.199-2.701-2.199-1.845 0-3.039 1.39-3.039 3.388 0 1.973 1.151 3.375 3.051 3.375zm7.107-6.678h-1.342v-1.568h-1.274v1.569h-.959v1.022h.959v3.865c-.004 1.19.903 1.764 1.909 1.743a2.42 2.42 0 00.827-.136l-.23-1.053c-.086.017-.243.056-.448.056-.413 0-.784-.137-.784-.874v-3.6h1.342v-1.023zM398.97 87h1.274v-6.546h-1.274V87zm.643-7.555c.439 0 .806-.341.806-.759s-.367-.763-.806-.763c-.443 0-.805.346-.805.763 0 .418.362.759.805.759zm5.102 7.687c1.845 0 3.051-1.35 3.051-3.375 0-2.037-1.206-3.388-3.051-3.388-1.845 0-3.051 1.351-3.051 3.388 0 2.024 1.206 3.375 3.051 3.375zm.004-1.07c-1.206 0-1.768-1.052-1.768-2.31 0-1.252.562-2.317 1.768-2.317 1.198 0 1.76 1.065 1.76 2.318 0 1.257-.562 2.31-1.76 2.31zm5.744-2.948c0-1.044.639-1.641 1.525-1.641.865 0 1.389.567 1.389 1.517V87h1.275v-4.163c0-1.62-.891-2.468-2.229-2.468-.984 0-1.628.456-1.93 1.15h-.081v-1.065h-1.223V87h1.274v-3.886z" fill="#696184"/><rect x="343.099" y="98" width="286.803" height="20" rx="2" fill="#fff"/><path d="M458.008 105.455h-1.466v-.665c0-.648.273-.989.938-.989.289 0 .46.068.562.102l.29-.869c-.153-.068-.46-.17-.955-.17-.937 0-1.841.562-1.841 1.687v.904h-1.056v.852h1.056V112h1.006v-5.693h1.466v-.852zm5.535 3.869c0 1.227-.938 1.79-1.688 1.79-.835 0-1.432-.614-1.432-1.569v-4.09h-1.005v4.159c0 1.67.886 2.471 2.113 2.471.989 0 1.637-.528 1.943-1.193h.069V112h1.005v-6.545h-1.005v3.869zm3.853-1.262c0-1.142.707-1.789 1.67-1.789.934 0 1.5.609 1.5 1.636V112h1.006v-4.159c0-1.671-.891-2.472-2.216-2.472-.989 0-1.602.443-1.909 1.108h-.085v-1.022h-.972V112h1.006v-3.938zm8.673 4.074c1.449 0 2.403-.886 2.574-2.045h-1.006c-.188.716-.784 1.142-1.568 1.142-1.193 0-1.96-.989-1.96-2.506 0-1.483.784-2.454 1.96-2.454.886 0 1.415.545 1.568 1.142h1.006c-.171-1.227-1.211-2.046-2.591-2.046-1.773 0-2.949 1.398-2.949 3.392 0 1.961 1.125 3.375 2.966 3.375zm6.89-6.681h-1.397v-1.569h-1.006v1.569h-.989v.852h.989v4.091c0 1.142.92 1.687 1.773 1.687a2.1 2.1 0 00.75-.119l-.205-.904c-.085.018-.221.052-.443.052-.443 0-.869-.137-.869-.989v-3.818h1.397v-.852zm1.513 6.545h1.006v-6.545h-1.006V112zm.512-7.636c.392 0 .715-.307.715-.682 0-.375-.323-.682-.715-.682-.392 0-.716.307-.716.682 0 .375.324.682.716.682zm4.995 7.772c1.773 0 2.966-1.346 2.966-3.375 0-2.045-1.193-3.392-2.966-3.392-1.773 0-2.966 1.347-2.966 3.392 0 2.029 1.193 3.375 2.966 3.375zm0-.903c-1.347 0-1.96-1.159-1.96-2.472 0-1.312.613-2.488 1.96-2.488s1.96 1.176 1.96 2.488c0 1.313-.613 2.472-1.96 2.472zm5.507-3.171c0-1.142.707-1.789 1.67-1.789.933 0 1.5.609 1.5 1.636V112h1.006v-4.159c0-1.671-.891-2.472-2.216-2.472-.989 0-1.602.443-1.909 1.108h-.085v-1.022h-.972V112h1.006v-3.938zM508.13 112h.853l.396-2.42h1.291l.136-.853h-1.287l.358-2.182h1.304l.137-.852h-1.3l.396-2.42h-.852l-.396 2.42h-2.216l.396-2.42h-.852l-.396 2.42h-1.292l-.136.852h1.287l-.358 2.182h-1.304l-.136.853h1.299l-.396 2.42h.852l.397-2.42h2.216l-.397 2.42zm-1.679-3.273l.358-2.182h2.216l-.358 2.182h-2.216zm8.823 3.392c1.927 0 3.035-1.632 3.035-4.483 0-2.829-1.125-4.483-3.035-4.483-1.909 0-3.034 1.654-3.034 4.483 0 2.851 1.108 4.483 3.034 4.483zm0-.937c-1.269 0-2.011-1.274-2.011-3.546 0-2.267.75-3.562 2.011-3.562 1.262 0 2.012 1.295 2.012 3.562 0 2.272-.742 3.546-2.012 3.546z" fill="#000"/><rect x="333" y="316" width="307" height="62" rx="2" fill="#C7C3D5"/><path d="M346.307 335.128c1.193 0 1.662-.729 1.892-1.146h.106V335h1.245v-8.727h-1.274v3.243h-.077c-.23-.405-.665-1.147-1.884-1.147-1.581 0-2.744 1.249-2.744 3.371 0 2.118 1.146 3.388 2.736 3.388zm.281-1.087c-1.138 0-1.73-1.001-1.73-2.314 0-1.299.58-2.275 1.73-2.275 1.112 0 1.709.907 1.709 2.275 0 1.377-.609 2.314-1.709 2.314zm6.685 1.104c1.082 0 1.692-.55 1.935-1.04h.051V335h1.244v-4.347c0-1.904-1.5-2.284-2.54-2.284-1.184 0-2.275.478-2.701 1.671l1.197.272c.188-.464.665-.911 1.521-.911.823 0 1.245.43 1.245 1.171v.03c0 .465-.477.456-1.654.593-1.24.144-2.51.468-2.51 1.956 0 1.287.968 1.994 2.212 1.994zm.277-1.023c-.72 0-1.24-.324-1.24-.954 0-.682.605-.925 1.342-1.023.414-.056 1.394-.166 1.577-.35v.844c0 .776-.618 1.483-1.679 1.483zm7.706-5.667h-1.343v-1.569h-1.274v1.569h-.959v1.022h.959v3.865c-.004 1.189.904 1.765 1.909 1.743.405-.004.678-.081.827-.136l-.23-1.053c-.085.017-.243.056-.448.056-.413 0-.784-.137-.784-.874v-3.601h1.343v-1.022zm3.314 6.69c1.082 0 1.692-.55 1.935-1.04h.051V335h1.244v-4.347c0-1.904-1.5-2.284-2.54-2.284-1.184 0-2.275.478-2.701 1.671l1.197.272c.188-.464.665-.911 1.521-.911.823 0 1.245.43 1.245 1.171v.03c0 .465-.478.456-1.654.593-1.24.144-2.51.468-2.51 1.956 0 1.287.968 1.994 2.212 1.994zm.277-1.023c-.72 0-1.24-.324-1.24-.954 0-.682.605-.925 1.342-1.023.414-.056 1.394-.166 1.577-.35v.844c0 .776-.618 1.483-1.679 1.483zm12.731-4.069c-.264-1.019-1.061-1.684-2.476-1.684-1.479 0-2.527.78-2.527 1.939 0 .929.562 1.547 1.79 1.82l1.108.243c.63.14.924.422.924.831 0 .507-.541.903-1.376.903-.763 0-1.253-.328-1.406-.971l-1.232.187c.213 1.159 1.176 1.811 2.646 1.811 1.581 0 2.677-.839 2.677-2.024 0-.925-.588-1.496-1.79-1.773l-1.04-.238c-.72-.171-1.031-.414-1.027-.857-.004-.503.541-.861 1.266-.861.792 0 1.159.439 1.308.878l1.155-.204zm4.35 5.079c1.427 0 2.437-.703 2.727-1.768l-1.206-.218c-.23.618-.784.934-1.509.934-1.091 0-1.824-.708-1.858-1.969h4.654v-.452c0-2.365-1.415-3.29-2.898-3.29-1.824 0-3.026 1.39-3.026 3.401 0 2.033 1.185 3.362 3.116 3.362zm-1.841-3.976c.051-.929.724-1.734 1.76-1.734.988 0 1.636.733 1.64 1.734h-3.4zm8.82 3.976c1.546 0 2.548-.929 2.689-2.203h-1.241c-.161.707-.711 1.125-1.44 1.125-1.078 0-1.773-.899-1.773-2.327 0-1.402.708-2.284 1.773-2.284.81 0 1.304.512 1.44 1.125h1.241c-.137-1.321-1.215-2.199-2.702-2.199-1.845 0-3.039 1.39-3.039 3.388 0 1.973 1.151 3.375 3.052 3.375zm7.106-6.677h-1.342v-1.569h-1.274v1.569h-.959v1.022h.959v3.865c-.004 1.189.903 1.765 1.909 1.743.405-.004.678-.081.827-.136l-.23-1.053c-.086.017-.243.056-.448.056-.413 0-.784-.137-.784-.874v-3.601h1.342v-1.022zm1.41 6.545h1.274v-6.545h-1.274V335zm.643-7.555c.439 0 .806-.341.806-.759s-.367-.763-.806-.763c-.443 0-.805.345-.805.763 0 .418.362.759.805.759zm5.102 7.687c1.845 0 3.051-1.351 3.051-3.375 0-2.037-1.206-3.388-3.051-3.388-1.845 0-3.051 1.351-3.051 3.388 0 2.024 1.206 3.375 3.051 3.375zm.005-1.07c-1.206 0-1.769-1.052-1.769-2.309 0-1.253.563-2.318 1.769-2.318 1.197 0 1.76 1.065 1.76 2.318 0 1.257-.563 2.309-1.76 2.309zm5.743-2.948c0-1.044.639-1.641 1.525-1.641.865 0 1.39.567 1.39 1.517V335h1.274v-4.163c0-1.62-.891-2.468-2.229-2.468-.984 0-1.628.456-1.93 1.151h-.081v-1.065h-1.223V335h1.274v-3.886z" fill="#696184"/><rect x="343.099" y="348" width="286.803" height="20" rx="2" fill="#fff"/><path d="M437.362 362.119c1.926 0 3.034-1.632 3.034-4.483 0-2.829-1.125-4.483-3.034-4.483-1.909 0-3.034 1.654-3.034 4.483 0 2.851 1.108 4.483 3.034 4.483zm0-.937c-1.27 0-2.011-1.274-2.011-3.546 0-2.267.75-3.562 2.011-3.562 1.262 0 2.012 1.295 2.012 3.562 0 2.272-.742 3.546-2.012 3.546zm5.421-5.727h-1.159l2.079 3.272-2.079 3.273h1.159l1.568-2.54 1.568 2.54h1.159l-2.113-3.273 2.113-3.272h-1.159l-1.568 2.676-1.568-2.676zm8.44 6.664c1.662 0 2.881-1.227 2.881-2.897 0-1.692-1.176-2.932-2.778-2.932-.588 0-1.159.209-1.517.494h-.051l.306-2.574h3.648v-.937h-4.534l-.528 4.295.988.12c.362-.26.98-.448 1.517-.444 1.112.009 1.926.853 1.926 1.995 0 1.12-.784 1.943-1.858 1.943-.894 0-1.606-.575-1.687-1.364h-1.023c.064 1.33 1.21 2.301 2.71 2.301zm14.171 0c1.926 0 3.034-1.632 3.034-4.483 0-2.829-1.125-4.483-3.034-4.483-1.91 0-3.035 1.654-3.035 4.483 0 2.851 1.108 4.483 3.035 4.483zm0-.937c-1.27 0-2.012-1.274-2.012-3.546 0-2.267.75-3.562 2.012-3.562 1.261 0 2.011 1.295 2.011 3.562 0 2.272-.742 3.546-2.011 3.546zm5.42-5.727h-1.159l2.079 3.272-2.079 3.273h1.159l1.568-2.54 1.568 2.54h1.159l-2.113-3.273 2.113-3.272h-1.159l-1.568 2.676-1.568-2.676zm8.56 6.664c1.926 0 3.034-1.632 3.034-4.483 0-2.829-1.125-4.483-3.034-4.483-1.909 0-3.034 1.654-3.034 4.483 0 2.851 1.108 4.483 3.034 4.483zm0-.937c-1.27 0-2.011-1.274-2.011-3.546 0-2.267.75-3.562 2.011-3.562 1.261 0 2.011 1.295 2.011 3.562 0 2.272-.741 3.546-2.011 3.546zm14.25.937c1.926 0 3.034-1.632 3.034-4.483 0-2.829-1.125-4.483-3.034-4.483-1.909 0-3.034 1.654-3.034 4.483 0 2.851 1.108 4.483 3.034 4.483zm0-.937c-1.27 0-2.011-1.274-2.011-3.546 0-2.267.75-3.562 2.011-3.562 1.261 0 2.011 1.295 2.011 3.562 0 2.272-.741 3.546-2.011 3.546zm5.42-5.727h-1.159l2.08 3.272-2.08 3.273h1.159l1.569-2.54 1.568 2.54h1.159l-2.114-3.273 2.114-3.272h-1.159l-1.568 2.676-1.569-2.676zm8.56 6.664c1.927 0 3.035-1.632 3.035-4.483 0-2.829-1.125-4.483-3.035-4.483-1.909 0-3.034 1.654-3.034 4.483 0 2.851 1.108 4.483 3.034 4.483zm0-.937c-1.269 0-2.011-1.274-2.011-3.546 0-2.267.75-3.562 2.011-3.562 1.262 0 2.012 1.295 2.012 3.562 0 2.272-.742 3.546-2.012 3.546zm14.25.937c1.927 0 3.035-1.632 3.035-4.483 0-2.829-1.125-4.483-3.035-4.483-1.909 0-3.034 1.654-3.034 4.483 0 2.851 1.108 4.483 3.034 4.483zm0-.937c-1.269 0-2.011-1.274-2.011-3.546 0-2.267.75-3.562 2.011-3.562 1.262 0 2.012 1.295 2.012 3.562 0 2.272-.742 3.546-2.012 3.546zm5.421-5.727h-1.159l2.079 3.272-2.079 3.273h1.159l1.568-2.54 1.568 2.54h1.159l-2.113-3.273 2.113-3.272h-1.159l-1.568 2.676-1.568-2.676zm8.56 6.664c1.926 0 3.034-1.632 3.034-4.483 0-2.829-1.125-4.483-3.034-4.483-1.909 0-3.034 1.654-3.034 4.483 0 2.851 1.108 4.483 3.034 4.483zm0-.937c-1.27 0-2.011-1.274-2.011-3.546 0-2.267.75-3.562 2.011-3.562 1.261 0 2.011 1.295 2.011 3.562 0 2.272-.741 3.546-2.011 3.546z" fill="#000"/><path fill-rule="evenodd" clip-rule="evenodd" d="M18 38a2 2 0 00-2 2v16a2 2 0 002 2h57V38H18zm61 0v20h56a2 2 0 002-2V40a2 2 0 00-2-2H79z" fill="#fff"/><path d="M31.177 45.455h-1.09l-1.808 5.215h-.068l-1.807-5.215h-1.09L27.733 52h1.023l2.42-6.545zm3.837 6.681c1.33 0 2.301-.664 2.608-1.653l-.971-.273c-.256.682-.848 1.023-1.637 1.023-1.18 0-1.994-.763-2.04-2.165h4.75v-.426c0-2.438-1.448-3.273-2.812-3.273-1.773 0-2.949 1.398-2.949 3.41 0 2.01 1.16 3.357 3.051 3.357zm-2.04-3.937c.067-1.019.788-1.926 1.938-1.926 1.091 0 1.79.818 1.79 1.926h-3.729zM39.253 52h1.006v-4.142c0-.886.699-1.534 1.654-1.534.268 0 .545.051.613.068v-1.023a9.696 9.696 0 00-.528-.017c-.784 0-1.466.444-1.705 1.091h-.068v-.988h-.972V52zm9.102-5.08c-.316-.928-1.023-1.55-2.319-1.55-1.38 0-2.403.783-2.403 1.891 0 .904.537 1.509 1.739 1.79l1.09.256c.661.153.972.469.972.92 0 .563-.596 1.023-1.534 1.023-.822 0-1.338-.354-1.517-1.057l-.955.239c.235 1.112 1.151 1.704 2.49 1.704 1.52 0 2.556-.83 2.556-1.96 0-.912-.571-1.487-1.739-1.773l-.971-.238c-.776-.192-1.125-.452-1.125-.955 0-.562.596-.971 1.398-.971.877 0 1.24.485 1.414.937l.904-.256zM49.989 52h1.006v-6.545h-1.006V52zm.511-7.636c.392 0 .716-.307.716-.682 0-.375-.324-.682-.716-.682-.392 0-.716.307-.716.682 0 .375.324.682.716.682zm4.996 7.772c1.772 0 2.965-1.346 2.965-3.375 0-2.045-1.193-3.392-2.965-3.392-1.773 0-2.966 1.347-2.966 3.392 0 2.029 1.193 3.375 2.966 3.375zm0-.903c-1.347 0-1.96-1.16-1.96-2.472s.613-2.488 1.96-2.488c1.346 0 1.96 1.176 1.96 2.488 0 1.313-.614 2.472-1.96 2.472zm5.506-3.17c0-1.143.708-1.79 1.67-1.79.934 0 1.5.61 1.5 1.636V52h1.006v-4.16c0-1.67-.89-2.47-2.215-2.47-.99 0-1.603.443-1.91 1.107h-.085v-1.022h-.971V52h1.005v-3.938zm48.181-4.79h-1.057l-2.182 1.449v1.073l2.131-1.414h.051V52h1.057v-8.727z" fill="#000"/><path d="M479.75 406.398a1.875 1.875 0 100-3.75 1.875 1.875 0 000 3.75zm6.75 0a1.875 1.875 0 100-3.75 1.875 1.875 0 000 3.75zm6.75 0a1.875 1.875 0 100-3.75 1.875 1.875 0 000 3.75z" fill="#666"/><rect x="333" y="138" width="307" height="168" rx="2" fill="#C7C3D5"/><path d="M346.614 157.132c1.547 0 2.548-.929 2.689-2.203h-1.241c-.161.707-.711 1.125-1.44 1.125-1.078 0-1.773-.899-1.773-2.327 0-1.402.708-2.284 1.773-2.284.81 0 1.304.512 1.44 1.125h1.241c-.137-1.321-1.215-2.199-2.702-2.199-1.845 0-3.039 1.39-3.039 3.388 0 1.973 1.151 3.375 3.052 3.375zm6.808 0c1.845 0 3.051-1.351 3.051-3.375 0-2.037-1.206-3.388-3.051-3.388-1.845 0-3.051 1.351-3.051 3.388 0 2.024 1.206 3.375 3.051 3.375zm.004-1.07c-1.205 0-1.768-1.052-1.768-2.309 0-1.253.563-2.318 1.768-2.318 1.198 0 1.76 1.065 1.76 2.318 0 1.257-.562 2.309-1.76 2.309zm6.92 1.066c1.193 0 1.662-.729 1.892-1.146h.106V157h1.245v-8.727h-1.274v3.243h-.077c-.23-.405-.665-1.147-1.884-1.147-1.581 0-2.744 1.249-2.744 3.371 0 2.118 1.146 3.388 2.736 3.388zm.281-1.087c-1.138 0-1.73-1.001-1.73-2.314 0-1.299.58-2.275 1.73-2.275 1.112 0 1.709.907 1.709 2.275 0 1.377-.609 2.314-1.709 2.314zm7.601 1.091c1.428 0 2.438-.703 2.728-1.768l-1.206-.218c-.23.618-.784.934-1.509.934-1.091 0-1.824-.708-1.858-1.969h4.654v-.452c0-2.365-1.415-3.29-2.898-3.29-1.824 0-3.026 1.39-3.026 3.401 0 2.033 1.185 3.362 3.115 3.362zm-1.841-3.976c.052-.929.725-1.734 1.76-1.734.989 0 1.637.733 1.641 1.734h-3.401zm14.144-1.103c-.264-1.019-1.061-1.684-2.476-1.684-1.479 0-2.527.78-2.527 1.939 0 .929.563 1.547 1.79 1.82l1.108.243c.63.14.924.422.924.831 0 .507-.541.903-1.376.903-.763 0-1.253-.328-1.406-.971l-1.232.187c.213 1.159 1.176 1.811 2.647 1.811 1.581 0 2.676-.839 2.676-2.024 0-.925-.588-1.496-1.79-1.773l-1.04-.238c-.72-.171-1.031-.414-1.027-.857-.004-.503.541-.861 1.266-.861.792 0 1.159.439 1.308.878l1.155-.204zm4.35 5.079c1.427 0 2.437-.703 2.727-1.768l-1.206-.218c-.23.618-.784.934-1.509.934-1.09 0-1.823-.708-1.857-1.969h4.653v-.452c0-2.365-1.415-3.29-2.898-3.29-1.824 0-3.025 1.39-3.025 3.401 0 2.033 1.184 3.362 3.115 3.362zm-1.841-3.976c.051-.929.724-1.734 1.76-1.734.988 0 1.636.733 1.64 1.734h-3.4zm8.82 3.976c1.547 0 2.548-.929 2.689-2.203h-1.24c-.162.707-.712 1.125-1.441 1.125-1.078 0-1.772-.899-1.772-2.327 0-1.402.707-2.284 1.772-2.284.81 0 1.304.512 1.441 1.125h1.24c-.137-1.321-1.215-2.199-2.702-2.199-1.845 0-3.038 1.39-3.038 3.388 0 1.973 1.15 3.375 3.051 3.375zm7.107-6.677h-1.343v-1.569h-1.274v1.569h-.959v1.022h.959v3.865c-.004 1.189.904 1.765 1.909 1.743.405-.004.678-.081.827-.136l-.23-1.053c-.085.017-.243.056-.448.056-.413 0-.784-.137-.784-.874v-3.601h1.343v-1.022zm1.409 6.545h1.274v-6.545h-1.274V157zm.644-7.555c.438 0 .805-.341.805-.759s-.367-.763-.805-.763c-.444 0-.806.345-.806.763 0 .418.362.759.806.759zm5.101 7.687c1.846 0 3.052-1.351 3.052-3.375 0-2.037-1.206-3.388-3.052-3.388-1.845 0-3.051 1.351-3.051 3.388 0 2.024 1.206 3.375 3.051 3.375zm.005-1.07c-1.206 0-1.769-1.052-1.769-2.309 0-1.253.563-2.318 1.769-2.318 1.197 0 1.76 1.065 1.76 2.318 0 1.257-.563 2.309-1.76 2.309zm5.743-2.948c0-1.044.639-1.641 1.526-1.641.865 0 1.389.567 1.389 1.517V157h1.274v-4.163c0-1.62-.891-2.468-2.229-2.468-.984 0-1.628.456-1.93 1.151h-.081v-1.065h-1.223V157h1.274v-3.886z" fill="#696184"/><path fill-rule="evenodd" clip-rule="evenodd" d="M402 168h-57a2 2 0 00-2 2v58a2 2 0 002 2h57v-62zm4 62h222a2 2 0 002-2v-58a2 2 0 00-2-2H406v62z" fill="#fff"/><path d="M369.141 203h.852l.397-2.42h1.291l.136-.853h-1.287l.358-2.182h1.304l.136-.852h-1.299l.396-2.42h-.852l-.397 2.42h-2.215l.396-2.42h-.852l-.397 2.42h-1.291l-.136.852h1.287l-.358 2.182h-1.304l-.137.853h1.3l-.396 2.42h.852l.396-2.42h2.216l-.396 2.42zm-1.679-3.273l.358-2.182h2.216l-.358 2.182h-2.216zm8.823 3.392c1.926 0 3.034-1.632 3.034-4.483 0-2.829-1.125-4.483-3.034-4.483-1.909 0-3.034 1.654-3.034 4.483 0 2.851 1.108 4.483 3.034 4.483zm0-.937c-1.27 0-2.011-1.274-2.011-3.546 0-2.267.75-3.562 2.011-3.562 1.262 0 2.012 1.295 2.012 3.562 0 2.272-.742 3.546-2.012 3.546zM415.92 190h1.006v-6.545h-1.006V190zm.512-7.636c.392 0 .716-.307.716-.682 0-.375-.324-.682-.716-.682-.392 0-.716.307-.716.682 0 .375.324.682.716.682zm5.268 7.755c1.692 0 2.949-1.061 2.949-2.488 0-1.108-.656-1.914-1.756-2.097v-.068c.882-.269 1.432-.993 1.432-1.977 0-1.236-.976-2.336-2.591-2.336-1.509 0-2.761.929-2.812 2.302h1.022c.039-.87.865-1.381 1.773-1.381.963 0 1.585.584 1.585 1.466 0 .92-.72 1.517-1.755 1.517h-.699v.937h.699c1.325 0 2.062.674 2.062 1.637 0 .924-.805 1.551-1.926 1.551-1.01 0-1.811-.52-1.875-1.364h-1.074c.064 1.372 1.274 2.301 2.966 2.301zm4.692-.119h5.505v-.938h-4.056v-.068l1.96-2.096c1.5-1.607 1.943-2.357 1.943-3.324 0-1.347-1.091-2.421-2.625-2.421-1.53 0-2.693 1.04-2.693 2.574h1.005c0-.993.644-1.653 1.654-1.653.946 0 1.67.579 1.67 1.5 0 .805-.473 1.402-1.483 2.506l-2.88 3.153V190zm8.015.068a.77.77 0 00.767-.767.77.77 0 00-.767-.767.77.77 0 00-.767.767.77.77 0 00.767.767zm5.231.068c1.449 0 2.404-.886 2.574-2.045h-1.006c-.187.716-.784 1.142-1.568 1.142-1.193 0-1.96-.989-1.96-2.506 0-1.483.784-2.454 1.96-2.454.887 0 1.415.545 1.568 1.142h1.006c-.17-1.227-1.21-2.046-2.591-2.046-1.773 0-2.949 1.398-2.949 3.392 0 1.961 1.125 3.375 2.966 3.375zm6.703 0c1.773 0 2.966-1.346 2.966-3.375 0-2.045-1.193-3.392-2.966-3.392-1.772 0-2.966 1.347-2.966 3.392 0 2.029 1.194 3.375 2.966 3.375zm0-.903c-1.346 0-1.96-1.159-1.96-2.472 0-1.312.614-2.488 1.96-2.488 1.347 0 1.96 1.176 1.96 2.488 0 1.313-.613 2.472-1.96 2.472zm5.507-3.171c0-1.142.707-1.789 1.67-1.789.934 0 1.5.609 1.5 1.636V190h1.006v-4.159c0-1.671-.89-2.472-2.216-2.472-.988 0-1.602.443-1.909 1.108h-.085v-1.022h-.972V190h1.006v-3.938zm10.65-1.142c-.315-.929-1.023-1.551-2.318-1.551-1.381 0-2.403.784-2.403 1.892 0 .904.537 1.509 1.738 1.79l1.091.256c.661.153.972.469.972.92 0 .563-.597 1.023-1.534 1.023-.823 0-1.338-.354-1.517-1.057l-.955.239c.234 1.112 1.151 1.704 2.489 1.704 1.521 0 2.557-.831 2.557-1.96 0-.912-.571-1.487-1.739-1.773l-.972-.238c-.775-.192-1.125-.452-1.125-.955 0-.562.597-.971 1.398-.971.878 0 1.24.485 1.415.937l.903-.256zm4.48-1.465h-1.398v-1.569h-1.005v1.569h-.989v.852h.989v4.091c0 1.142.92 1.687 1.772 1.687.375 0 .614-.068.75-.119l-.204-.904c-.085.018-.222.052-.443.052-.444 0-.87-.137-.87-.989v-3.818h1.398v-.852zm8.246 6.545h5.505v-.938h-4.056v-.068l1.96-2.096c1.5-1.607 1.943-2.357 1.943-3.324 0-1.347-1.091-2.421-2.625-2.421-1.53 0-2.693 1.04-2.693 2.574h1.005c0-.993.644-1.653 1.654-1.653.946 0 1.67.579 1.67 1.5 0 .805-.473 1.402-1.483 2.506l-2.88 3.153V190zm-59.304 14h1.006v-6.545h-1.006V204zm.512-7.636c.392 0 .716-.307.716-.682 0-.375-.324-.682-.716-.682-.392 0-.716.307-.716.682 0 .375.324.682.716.682zm5.268 7.755c1.692 0 2.949-1.061 2.949-2.488 0-1.108-.656-1.914-1.756-2.097v-.068c.882-.269 1.432-.993 1.432-1.977 0-1.236-.976-2.336-2.591-2.336-1.509 0-2.761.929-2.812 2.302h1.022c.039-.87.865-1.381 1.773-1.381.963 0 1.585.584 1.585 1.466 0 .92-.72 1.517-1.755 1.517h-.699v.937h.699c1.325 0 2.062.674 2.062 1.637 0 .924-.805 1.551-1.926 1.551-1.01 0-1.811-.52-1.875-1.364h-1.074c.064 1.372 1.274 2.301 2.966 2.301zm4.692-.119h5.505v-.938h-4.056v-.068l1.96-2.096c1.5-1.607 1.943-2.357 1.943-3.324 0-1.347-1.091-2.421-2.625-2.421-1.53 0-2.693 1.04-2.693 2.574h1.005c0-.993.644-1.653 1.654-1.653.946 0 1.67.579 1.67 1.5 0 .805-.473 1.402-1.483 2.506l-2.88 3.153V204zm8.015.068a.77.77 0 00.767-.767.77.77 0 00-.767-.767.77.77 0 00-.767.767.77.77 0 00.767.767zm3.578-8.795h-1.006V204h1.006v-8.727zm4.501 8.863c1.773 0 2.966-1.346 2.966-3.375 0-2.045-1.193-3.392-2.966-3.392-1.773 0-2.966 1.347-2.966 3.392 0 2.029 1.193 3.375 2.966 3.375zm0-.903c-1.347 0-1.96-1.159-1.96-2.472 0-1.312.613-2.488 1.96-2.488 1.346 0 1.96 1.176 1.96 2.488 0 1.313-.614 2.472-1.96 2.472zm6.427.92c1.142 0 1.739-.613 1.943-1.039h.051V204h1.006v-4.312c0-2.08-1.585-2.319-2.42-2.319-.989 0-2.114.341-2.625 1.534l.954.341c.222-.477.746-.988 1.705-.988.924 0 1.38.49 1.38 1.329v.034c0 .486-.494.443-1.687.597-1.215.158-2.54.426-2.54 1.926 0 1.278.989 2.011 2.233 2.011zm.153-.903c-.801 0-1.38-.358-1.38-1.057 0-.767.699-1.005 1.483-1.108.426-.051 1.568-.17 1.738-.375v.921c0 .818-.647 1.619-1.841 1.619zm7.154.886c1.262 0 1.688-.784 1.909-1.142h.12V204h.971v-8.727h-1.006v3.221h-.085c-.221-.341-.613-1.125-1.892-1.125-1.653 0-2.795 1.313-2.795 3.375 0 2.08 1.142 3.392 2.778 3.392zm.137-.903c-1.262 0-1.91-1.108-1.91-2.506 0-1.38.631-2.454 1.91-2.454 1.227 0 1.875.988 1.875 2.454 0 1.483-.665 2.506-1.875 2.506zm11.578.767h5.505v-.938h-4.056v-.068l1.96-2.096c1.5-1.607 1.943-2.357 1.943-3.324 0-1.347-1.091-2.421-2.625-2.421-1.53 0-2.693 1.04-2.693 2.574h1.005c0-.993.644-1.653 1.654-1.653.946 0 1.67.579 1.67 1.5 0 .805-.473 1.402-1.483 2.506l-2.88 3.153V204zm16.862.119c1.926 0 3.034-1.632 3.034-4.483 0-2.829-1.125-4.483-3.034-4.483-1.909 0-3.034 1.654-3.034 4.483 0 2.851 1.108 4.483 3.034 4.483zm0-.937c-1.27 0-2.011-1.274-2.011-3.546 0-2.267.75-3.562 2.011-3.562 1.261 0 2.011 1.295 2.011 3.562 0 2.272-.741 3.546-2.011 3.546zm14.25.937c1.926 0 3.034-1.632 3.034-4.483 0-2.829-1.125-4.483-3.034-4.483-1.909 0-3.034 1.654-3.034 4.483 0 2.851 1.108 4.483 3.034 4.483zm0-.937c-1.27 0-2.011-1.274-2.011-3.546 0-2.267.75-3.562 2.011-3.562 1.261 0 2.011 1.295 2.011 3.562 0 2.272-.741 3.546-2.011 3.546zm-80.467 15.954c1.448 0 2.403-.886 2.573-2.045h-1.005c-.188.716-.784 1.142-1.568 1.142-1.194 0-1.961-.989-1.961-2.506 0-1.483.784-2.454 1.961-2.454.886 0 1.414.545 1.568 1.142h1.005c-.17-1.227-1.21-2.046-2.591-2.046-1.772 0-2.948 1.398-2.948 3.392 0 1.961 1.125 3.375 2.966 3.375zm5.97.017c1.142 0 1.738-.613 1.943-1.039h.051V219h1.006v-4.312c0-2.08-1.586-2.319-2.421-2.319-.988 0-2.113.341-2.625 1.534l.955.341c.221-.477.746-.988 1.704-.988.925 0 1.381.49 1.381 1.329v.034c0 .486-.494.443-1.687.597-1.215.158-2.54.426-2.54 1.926 0 1.278.988 2.011 2.233 2.011zm.153-.903c-.801 0-1.381-.358-1.381-1.057 0-.767.699-1.005 1.483-1.108.427-.051 1.569-.17 1.739-.375v.921c0 .818-.648 1.619-1.841 1.619zm5.688-7.977h-1.006V219h1.006v-8.727zm2.848 0h-1.006V219h1.006v-8.727zm11.643 0h-1.057l-2.182 1.449v1.073l2.131-1.414h.051V219h1.057v-8.727z" fill="#000"/><path fill-rule="evenodd" clip-rule="evenodd" d="M402 234h-57a2 2 0 00-2 2v58a2 2 0 002 2h57v-62zm4 62h222a2 2 0 002-2v-58a2 2 0 00-2-2H406v62z" fill="#fff"/><path d="M370.102 269h.852l.396-2.42h1.292l.136-.853h-1.287l.358-2.182h1.304l.136-.852h-1.299l.396-2.42h-.852l-.397 2.42h-2.215l.396-2.42h-.852l-.397 2.42h-1.291l-.136.852h1.287l-.358 2.182h-1.304l-.137.853h1.3l-.396 2.42h.852l.396-2.42h2.216l-.396 2.42zm-1.679-3.273l.358-2.182h2.216l-.358 2.182h-2.216zm9.045-5.454h-1.057l-2.182 1.449v1.073l2.131-1.414h.051V269h1.057v-8.727zm39.458-13h-1.006V256h1.006v-8.727zm4.501 8.863c1.773 0 2.966-1.346 2.966-3.375 0-2.045-1.193-3.392-2.966-3.392-1.773 0-2.966 1.347-2.966 3.392 0 2.029 1.193 3.375 2.966 3.375zm0-.903c-1.346 0-1.96-1.159-1.96-2.472 0-1.312.614-2.488 1.96-2.488 1.347 0 1.96 1.176 1.96 2.488 0 1.313-.613 2.472-1.96 2.472zm6.427.92c1.142 0 1.739-.613 1.944-1.039h.051V256h1.005v-4.312c0-2.08-1.585-2.319-2.42-2.319-.989 0-2.114.341-2.625 1.534l.954.341c.222-.477.746-.988 1.705-.988.925 0 1.381.49 1.381 1.329v.034c0 .486-.495.443-1.688.597-1.214.158-2.54.426-2.54 1.926 0 1.278.989 2.011 2.233 2.011zm.154-.903c-.801 0-1.381-.358-1.381-1.057 0-.767.699-1.005 1.483-1.108.426-.051 1.568-.17 1.739-.375v.921c0 .818-.648 1.619-1.841 1.619zm7.154.886c1.261 0 1.687-.784 1.909-1.142h.119V256h.972v-8.727h-1.006v3.221h-.085c-.222-.341-.614-1.125-1.892-1.125-1.654 0-2.796 1.313-2.796 3.375 0 2.08 1.142 3.392 2.779 3.392zm.136-.903c-1.261 0-1.909-1.108-1.909-2.506 0-1.38.631-2.454 1.909-2.454 1.227 0 1.875.988 1.875 2.454 0 1.483-.665 2.506-1.875 2.506zm9.772.767h-5.454v.938h5.454V256zm1.915-8.727h-1.006V256h1.006v-8.727zm4.501 8.863c1.773 0 2.966-1.346 2.966-3.375 0-2.045-1.193-3.392-2.966-3.392-1.773 0-2.966 1.347-2.966 3.392 0 2.029 1.193 3.375 2.966 3.375zm0-.903c-1.347 0-1.96-1.159-1.96-2.472 0-1.312.613-2.488 1.96-2.488 1.346 0 1.96 1.176 1.96 2.488 0 1.313-.614 2.472-1.96 2.472zm7.16.903c1.449 0 2.403-.886 2.574-2.045h-1.006c-.187.716-.784 1.142-1.568 1.142-1.193 0-1.96-.989-1.96-2.506 0-1.483.784-2.454 1.96-2.454.886 0 1.415.545 1.568 1.142h1.006c-.171-1.227-1.21-2.046-2.591-2.046-1.773 0-2.949 1.398-2.949 3.392 0 1.961 1.125 3.375 2.966 3.375zm5.97.017c1.142 0 1.739-.613 1.943-1.039h.051V256h1.006v-4.312c0-2.08-1.585-2.319-2.42-2.319-.989 0-2.114.341-2.625 1.534l.954.341c.222-.477.746-.988 1.705-.988.924 0 1.38.49 1.38 1.329v.034c0 .486-.494.443-1.687.597-1.215.158-2.54.426-2.54 1.926 0 1.278.989 2.011 2.233 2.011zm.154-.903c-.802 0-1.381-.358-1.381-1.057 0-.767.699-1.005 1.483-1.108.426-.051 1.568-.17 1.738-.375v.921c0 .818-.647 1.619-1.84 1.619zm5.687-7.977h-1.005V256h1.005v-8.727zm8.047 8.846c1.926 0 3.034-1.632 3.034-4.483 0-2.829-1.125-4.483-3.034-4.483-1.909 0-3.034 1.654-3.034 4.483 0 2.851 1.108 4.483 3.034 4.483zm0-.937c-1.27 0-2.011-1.274-2.011-3.546 0-2.267.75-3.562 2.011-3.562 1.261 0 2.011 1.295 2.011 3.562 0 2.272-.741 3.546-2.011 3.546zm-61.578 6.091h-1.006V270h1.006v-8.727zm4.501 8.863c1.773 0 2.966-1.346 2.966-3.375 0-2.045-1.193-3.392-2.966-3.392-1.773 0-2.966 1.347-2.966 3.392 0 2.029 1.193 3.375 2.966 3.375zm0-.903c-1.346 0-1.96-1.159-1.96-2.472 0-1.312.614-2.488 1.96-2.488 1.347 0 1.96 1.176 1.96 2.488 0 1.313-.613 2.472-1.96 2.472zm6.427.92c1.142 0 1.739-.613 1.944-1.039h.051V270h1.005v-4.312c0-2.08-1.585-2.319-2.42-2.319-.989 0-2.114.341-2.625 1.534l.954.341c.222-.477.746-.988 1.705-.988.925 0 1.381.49 1.381 1.329v.034c0 .486-.495.443-1.688.597-1.214.158-2.54.426-2.54 1.926 0 1.278.989 2.011 2.233 2.011zm.154-.903c-.801 0-1.381-.358-1.381-1.057 0-.767.699-1.005 1.483-1.108.426-.051 1.568-.17 1.739-.375v.921c0 .818-.648 1.619-1.841 1.619zm7.154.886c1.261 0 1.687-.784 1.909-1.142h.119V270h.972v-8.727h-1.006v3.221h-.085c-.222-.341-.614-1.125-1.892-1.125-1.654 0-2.796 1.313-2.796 3.375 0 2.08 1.142 3.392 2.779 3.392zm.136-.903c-1.261 0-1.909-1.108-1.909-2.506 0-1.38.631-2.454 1.909-2.454 1.227 0 1.875.988 1.875 2.454 0 1.483-.665 2.506-1.875 2.506zm9.772.767h-5.454v.938h5.454V270zm1.915-8.727h-1.006V270h1.006v-8.727zm4.501 8.863c1.773 0 2.966-1.346 2.966-3.375 0-2.045-1.193-3.392-2.966-3.392-1.773 0-2.966 1.347-2.966 3.392 0 2.029 1.193 3.375 2.966 3.375zm0-.903c-1.347 0-1.96-1.159-1.96-2.472 0-1.312.613-2.488 1.96-2.488 1.346 0 1.96 1.176 1.96 2.488 0 1.313-.614 2.472-1.96 2.472zm7.16.903c1.449 0 2.403-.886 2.574-2.045h-1.006c-.187.716-.784 1.142-1.568 1.142-1.193 0-1.96-.989-1.96-2.506 0-1.483.784-2.454 1.96-2.454.886 0 1.415.545 1.568 1.142h1.006c-.171-1.227-1.21-2.046-2.591-2.046-1.773 0-2.949 1.398-2.949 3.392 0 1.961 1.125 3.375 2.966 3.375zm5.97.017c1.142 0 1.739-.613 1.943-1.039h.051V270h1.006v-4.312c0-2.08-1.585-2.319-2.42-2.319-.989 0-2.114.341-2.625 1.534l.954.341c.222-.477.746-.988 1.705-.988.924 0 1.38.49 1.38 1.329v.034c0 .486-.494.443-1.687.597-1.215.158-2.54.426-2.54 1.926 0 1.278.989 2.011 2.233 2.011zm.154-.903c-.802 0-1.381-.358-1.381-1.057 0-.767.699-1.005 1.483-1.108.426-.051 1.568-.17 1.738-.375v.921c0 .818-.647 1.619-1.84 1.619zm5.687-7.977h-1.005V270h1.005v-8.727zm8.268 0h-1.056l-2.182 1.449v1.073l2.131-1.414h.051V270h1.056v-8.727zM415.92 285h1.006v-6.545h-1.006V285zm.512-7.636c.392 0 .716-.307.716-.682 0-.375-.324-.682-.716-.682-.392 0-.716.307-.716.682 0 .375.324.682.716.682zm5.268 7.755c1.692 0 2.949-1.061 2.949-2.488 0-1.108-.656-1.914-1.756-2.097v-.068c.882-.269 1.432-.993 1.432-1.977 0-1.236-.976-2.336-2.591-2.336-1.509 0-2.761.929-2.812 2.302h1.022c.039-.87.865-1.381 1.773-1.381.963 0 1.585.584 1.585 1.466 0 .92-.72 1.517-1.755 1.517h-.699v.937h.699c1.325 0 2.062.674 2.062 1.637 0 .924-.805 1.551-1.926 1.551-1.01 0-1.811-.52-1.875-1.364h-1.074c.064 1.372 1.274 2.301 2.966 2.301zm4.692-.119h5.505v-.938h-4.056v-.068l1.96-2.096c1.5-1.607 1.943-2.357 1.943-3.324 0-1.347-1.091-2.421-2.625-2.421-1.53 0-2.693 1.04-2.693 2.574h1.005c0-.993.644-1.653 1.654-1.653.946 0 1.67.579 1.67 1.5 0 .805-.473 1.402-1.483 2.506l-2.88 3.153V285zm8.015.068a.77.77 0 00.767-.767.77.77 0 00-.767-.767.77.77 0 00-.767.767.77.77 0 00.767.767zm2.572-.068h1.006v-4.091c0-.959.699-1.636 1.483-1.636.762 0 1.295.498 1.295 1.244V285h1.023v-4.261c0-.844.528-1.466 1.449-1.466.716 0 1.329.379 1.329 1.346V285h1.006v-4.381c0-1.538-.827-2.25-1.994-2.25-.938 0-1.624.431-1.961 1.108h-.068c-.324-.699-.895-1.108-1.755-1.108-.853 0-1.483.409-1.756 1.108h-.085v-1.022h-.972V285zm14.555-2.676c0 1.227-.938 1.79-1.688 1.79-.835 0-1.432-.614-1.432-1.569v-4.09h-1.005v4.159c0 1.67.886 2.471 2.113 2.471.989 0 1.637-.528 1.944-1.193h.068V285h1.005v-6.545h-1.005v3.869zm3.853-6.051h-1.006V285h1.006v-8.727z" fill="#000"/></svg>